<?xml version="1.0" encoding="utf-8"?><!-- Generator: Adobe Illustrator 17.1.0, SVG Export Plug-In . SVG Version: 6.00 Build 0)  --><!DOCTYPE svg PUBLIC "-//W3C//DTD SVG 1.1//EN" "http://www.w3.org/Graphics/SVG/1.1/DTD/svg11.dtd"><svg fill="#fe8903" xmlns="http://www.w3.org/2000/svg" xmlns:xlink="http://www.w3.org/1999/xlink" viewBox="0 0 50 50" width="50px" height="50px"><path d="M23.8,16.2c-0.2,0-0.4-0.1-0.4-0.4v-2.6c0-0.2,0.1-0.4,0.4-0.4h2.4c0.2,0,0.4,0.1,0.4,0.4v2.6c0,0.2-0.1,0.4-0.4,0.4H23.8z M23.9,34.3c-0.2,0-0.4-0.1-0.4-0.4V20.5c0-0.2,0.1-0.4,0.4-0.4h2.3c0.2,0,0.4,0.1,0.4,0.4v13.5c0,0.2-0.1,0.4-0.4,0.4H23.9z"/><path fill="none" stroke="#fe8903" stroke-width="2" stroke-linecap="round" stroke-miterlimit="10" d="M25,2C11.7,2,1,11.5,1,23.2c0,6,2.8,11.4,7.4,15.3c-1.3,5.3-7.6,7.5-7.2,9c4,2.3,14.8-2.1,18.2-3.6c1.8,0.4,3.6,0.6,5.5,0.6c13.3,0,24-9.5,24-21.2S38.3,2,25,2z"/></svg>