<svg width="20" height="18" viewBox="0 0 20 18" fill="none" xmlns="http://www.w3.org/2000/svg">
<path d="M5.61646 17.2917C4.66862 17.292 3.74199 17.0111 2.95384 16.4846C2.16568 15.9581 1.55141 15.2096 1.18875 14.3339C0.826101 13.4581 0.731362 12.4945 0.916525 11.565C1.10169 10.6354 1.55843 9.78161 2.22896 9.11168L9.29979 2.04002C9.41704 1.92277 9.57606 1.8569 9.74188 1.8569C9.90769 1.8569 10.0667 1.92277 10.184 2.04002C10.3012 2.15727 10.3671 2.31629 10.3671 2.4821C10.3671 2.64791 10.3012 2.80694 10.184 2.92418L3.11229 9.99502C2.76993 10.3208 2.49624 10.7118 2.30735 11.1451C2.11845 11.5783 2.01817 12.0449 2.01242 12.5175C2.00666 12.9901 2.09554 13.459 2.27383 13.8967C2.45212 14.3344 2.7162 14.732 3.05053 15.066C3.38485 15.4 3.78265 15.6638 4.22048 15.8417C4.65832 16.0196 5.12734 16.1081 5.5999 16.102C6.07247 16.0958 6.53903 15.9952 6.97209 15.8059C7.40514 15.6167 7.79594 15.3426 8.12146 15L17.2548 5.86668C17.6733 5.43449 17.9052 4.85509 17.9004 4.25347C17.8955 3.65186 17.6544 3.07626 17.229 2.65084C16.8036 2.22542 16.228 1.98428 15.6263 1.97945C15.0247 1.97462 14.4453 2.20648 14.0131 2.62502L6.64813 9.99502C6.45275 10.1904 6.34299 10.4554 6.34299 10.7317C6.34299 11.008 6.45275 11.273 6.64813 11.4684C6.8435 11.6637 7.10849 11.7735 7.38479 11.7735C7.6611 11.7735 7.92608 11.6637 8.12146 11.4684L12.834 6.75502C12.8916 6.6953 12.9605 6.64765 13.0368 6.61486C13.113 6.58207 13.195 6.56479 13.278 6.56403C13.361 6.56327 13.4433 6.57905 13.5201 6.61043C13.5969 6.64182 13.6667 6.6882 13.7254 6.74685C13.7842 6.80551 13.8306 6.87527 13.8621 6.95206C13.8935 7.02886 13.9094 7.11115 13.9087 7.19414C13.908 7.27713 13.8908 7.35915 13.8581 7.43541C13.8254 7.51168 13.7778 7.58067 13.7181 7.63835L9.00479 12.3525C8.57503 12.7824 7.99211 13.0239 7.38425 13.024C6.7764 13.0241 6.19342 12.7827 5.76354 12.3529C5.33367 11.9232 5.09213 11.3402 5.09205 10.7324C5.09197 10.1245 5.33337 9.54156 5.76313 9.11168L13.1298 1.75002C13.7939 1.08576 14.6948 0.712542 15.6341 0.712463C16.5734 0.712385 17.4743 1.08545 18.1385 1.7496C18.8028 2.41375 19.176 3.31457 19.1761 4.25389C19.1762 5.19321 18.8031 6.0941 18.139 6.75835L9.00563 15.8884C8.56152 16.3347 8.03332 16.6885 7.45157 16.9294C6.86983 17.1703 6.2461 17.2934 5.61646 17.2917Z" fill="black"/>
</svg>
