<svg width="20" height="21" viewBox="0 0 20 21" fill="none" xmlns="http://www.w3.org/2000/svg">
<g clip-path="url(#clip0_18_415)">
<path d="M10 13.2949C8.9375 13.2949 8.5625 13.0449 8.21875 12.7949C8.125 12.7324 8.0625 12.6699 7.96875 12.6387C7.03125 12.0762 6.34375 11.1074 6.03125 9.73242C5.59375 9.57617 5 9.10742 5 7.98242C5 7.10742 5.40625 6.82617 5.4375 6.79492C5.59375 6.70117 5.78125 6.73242 5.875 6.88867C5.96875 7.04492 5.9375 7.23242 5.78125 7.32617C5.625 7.41992 5.59375 7.48242 5.59375 8.01367C5.59375 9.07617 6.25 9.20117 6.3125 9.20117C6.4375 9.23242 6.5625 9.32617 6.59375 9.45117C6.78125 10.3262 7.1875 11.5137 8.25 12.1387C8.375 12.2012 8.46875 12.2637 8.5625 12.3262C8.875 12.5449 9.125 12.7012 9.96875 12.7012C10.8438 12.7012 11.0625 12.5449 11.375 12.3262C11.4688 12.2637 11.5625 12.2012 11.6875 12.1387C12.75 11.5137 13.1875 10.3574 13.3438 9.45117C13.375 9.32617 13.5 9.20117 13.625 9.20117C13.6875 9.20117 14.3438 9.07617 14.3438 8.01367C14.3438 7.48242 14.1563 7.32617 14.1563 7.32617C14 7.23242 13.9688 7.04492 14.0938 6.88867C14.1875 6.73242 14.4063 6.70117 14.5313 6.82617C14.5625 6.85742 14.9688 7.16992 14.9688 8.01367C14.9688 9.13867 14.375 9.60742 13.9375 9.76367C13.625 11.1074 12.9688 12.1074 12 12.6699C11.9063 12.7324 11.8125 12.7949 11.75 12.8262C11.4375 13.0449 11.0625 13.2949 10 13.2949Z" fill="black"/>
<path d="M5.62502 7.35742C5.50002 7.35742 5.40627 7.29492 5.34377 7.16992C5.28127 7.01367 5.34377 6.82617 5.50002 6.76367C6.31252 6.38867 6.93752 5.57617 7.53127 4.10742C7.56252 4.01367 7.65627 3.95117 7.75002 3.91992C7.84377 3.88867 7.96877 3.91992 8.03127 4.01367C8.93752 4.85742 10.2188 4.66992 11.0625 4.54492C11.3125 4.51367 11.5313 4.48242 11.6875 4.48242C12.9375 4.48242 13.4375 5.38867 13.7813 6.04492C14 6.48242 14.1563 6.76367 14.375 6.76367C14.5625 6.76367 14.6875 6.88867 14.6875 7.07617C14.6875 7.26367 14.5625 7.38867 14.375 7.38867C13.7813 7.38867 13.5 6.85742 13.2188 6.35742C12.875 5.73242 12.5625 5.13867 11.6875 5.13867C11.5625 5.13867 11.375 5.16992 11.1563 5.20117C10.3438 5.32617 9.00002 5.51367 7.93752 4.79492C7.31252 6.16992 6.62502 6.98242 5.75002 7.38867C5.71877 7.35742 5.65627 7.35742 5.62502 7.35742Z" fill="black"/>
<path d="M19.375 20.1699C19.1875 20.1699 19.0625 20.0449 19.0625 19.8574C19.0625 18.1387 19.0625 16.7637 16.625 16.1699C14.5938 15.7012 12.1875 14.7637 12.1875 13.1699V11.8887C12.1875 11.7012 12.3125 11.5762 12.5 11.5762C12.6875 11.5762 12.8125 11.7012 12.8125 11.8887V13.1699C12.8125 14.0762 14.25 14.9512 16.75 15.5762C19.6875 16.2637 19.6875 18.1699 19.6875 19.8262C19.6875 20.0137 19.5625 20.1699 19.375 20.1699Z" fill="black"/>
<path d="M0.625 19.8574H0.3125C0.3125 18.1699 0.3125 16.2637 3.25 15.5762C5.75 14.9824 7.1875 14.1074 7.1875 13.1699V11.8887C7.1875 11.7012 7.3125 11.5762 7.5 11.5762C7.6875 11.5762 7.8125 11.7012 7.8125 11.8887V13.1699C7.8125 14.7637 5.40625 15.7012 3.375 16.1699C0.9375 16.7637 0.9375 18.1387 0.9375 19.8262L0.625 19.8574Z" fill="black"/>
<path d="M9.99999 17.6699C8.21874 17.6699 6.49998 16.8574 5.31249 15.4512C5.18749 15.3262 5.21874 15.1387 5.34374 15.0137C5.46874 14.8887 5.65624 14.9199 5.78124 15.0449C6.87498 16.3262 8.40623 17.0449 9.99999 17.0449C11.5937 17.0449 13.125 16.3262 14.2187 15.0449C14.3437 14.9199 14.5312 14.8887 14.6562 15.0137C14.7812 15.1387 14.8125 15.3262 14.6875 15.4512C13.5 16.8574 11.7812 17.6699 9.99999 17.6699Z" fill="black"/>
<path d="M5.53125 7.45117C5.40625 7.45117 5.28125 7.38867 5.25 7.26367C5 6.60742 5 6.38867 5 4.85742C5 3.54492 5.8125 2.48242 6.65625 2.10742C7.3125 1.20117 8.34375 0.794922 10 0.794922C10.8125 0.794922 11.5938 0.951172 12.25 1.23242C13.3438 1.54492 14.3125 1.41992 14.3125 1.41992C14.4688 1.38867 14.625 1.51367 14.6563 1.66992C14.6563 1.70117 14.8125 2.38867 14.4062 2.98242C14.8125 3.63867 14.9688 4.57617 14.9688 5.23242C14.9688 5.82617 14.9688 6.60742 14.7188 7.26367C14.6562 7.41992 14.4688 7.51367 14.3125 7.45117C14.1563 7.38867 14.0625 7.20117 14.125 7.04492C14.3438 6.51367 14.3438 5.82617 14.3438 5.23242C14.3438 4.60742 14.1562 3.66992 13.7812 3.16992C13.6875 3.04492 13.6875 2.88867 13.7812 2.76367C13.9688 2.51367 14.0313 2.26367 14.0313 2.04492C13.625 2.04492 12.875 2.04492 12.0625 1.82617C12.0312 1.82617 12.0313 1.82617 12 1.79492C11.4375 1.54492 10.75 1.41992 10 1.41992C8.15625 1.41992 7.53125 1.95117 7.125 2.54492C7.09375 2.60742 7.03125 2.63867 6.96875 2.66992C6.3125 2.91992 5.625 3.76367 5.625 4.85742C5.625 6.35742 5.625 6.48242 5.84375 7.01367C5.90625 7.16992 5.8125 7.35742 5.65625 7.41992C5.625 7.45117 5.5625 7.45117 5.53125 7.45117Z" fill="black"/>
</g>
<defs>
<clipPath id="clip0_18_415">
<rect width="20" height="20" fill="white" transform="translate(0 0.482422)"/>
</clipPath>
</defs>
</svg>
