<svg width="18" height="18" viewBox="0 0 18 18" fill="none" xmlns="http://www.w3.org/2000/svg">
<path d="M17.0303 8.46969L11.7803 3.21969C11.6388 3.08307 11.4493 3.00747 11.2527 3.00918C11.0561 3.01089 10.8679 3.08977 10.7289 3.22883C10.5898 3.36788 10.511 3.55599 10.5092 3.75264C10.5075 3.94929 10.5831 4.13874 10.7198 4.28019L14.6895 8.24994H1.5C1.30109 8.24994 1.11032 8.32896 0.96967 8.46961C0.829018 8.61026 0.75 8.80103 0.75 8.99994C0.75 9.19885 0.829018 9.38962 0.96967 9.53027C1.11032 9.67092 1.30109 9.74994 1.5 9.74994H14.6895L10.7198 13.7197C10.6481 13.7889 10.591 13.8716 10.5517 13.9631C10.5124 14.0546 10.4917 14.1531 10.4908 14.2526C10.4899 14.3522 10.5089 14.451 10.5466 14.5432C10.5843 14.6353 10.64 14.7191 10.7105 14.7895C10.7809 14.8599 10.8646 14.9156 10.9568 14.9533C11.049 14.991 11.1477 15.01 11.2473 15.0091C11.3469 15.0083 11.4453 14.9876 11.5368 14.9483C11.6283 14.909 11.7111 14.8518 11.7803 14.7802L17.0303 9.53019C17.1709 9.38954 17.2498 9.19881 17.2498 8.99994C17.2498 8.80107 17.1709 8.61034 17.0303 8.46969Z" fill="#0D203B"/>
</svg>
