<svg width="60" height="60" viewBox="0 0 60 60" fill="none" xmlns="http://www.w3.org/2000/svg">
<rect width="60" height="60" rx="10" fill="url(#paint0_linear_18_767)"/>
<path d="M40.6338 12.5C36.8413 12.5 33.7676 15.5738 33.7676 19.3663C33.7676 23.1587 36.8413 26.2325 40.6338 26.2325C44.4263 26.2325 47.5001 23.1587 47.5001 19.3663C47.5001 15.5738 44.4263 12.5 40.6338 12.5ZM43.6738 19.0725L40.3213 21.7737C40.1213 21.9362 39.8713 22.0225 39.6163 22.0225C39.5738 22.0225 39.5313 22.02 39.4876 22.015C39.1888 21.9813 38.9163 21.8287 38.7313 21.5912L37.4138 19.9113C37.0301 19.4225 37.1163 18.715 37.6038 18.3313C38.0938 17.9462 38.8026 18.0337 39.1838 18.5225L39.7976 19.305L42.2626 17.32C42.7476 16.93 43.4551 17.0075 43.8451 17.49C44.2351 17.975 44.1588 18.6837 43.6738 19.0725Z" fill="#093254"/>
<path d="M46.6625 40.9125H43.65V27.56C42.7087 27.9075 41.695 28.1075 40.6337 28.1075C35.8137 28.1075 31.8925 24.1863 31.8925 19.3663C31.8925 18.4175 32.0487 17.5063 32.33 16.65H15.4875C15.475 16.65 15.45 16.6625 15.4375 16.6625C13.2 16.675 11.375 18.5125 11.375 20.75V22.6125C11.375 23.575 12.1625 24.3625 13.125 24.3625H17.3375V44.5125C17.3375 45.6625 17.825 46.775 18.675 47.55C19.4375 48.2375 20.4125 48.6125 21.425 48.625H44.3C46.575 48.625 48.4125 46.775 48.4125 44.5125V42.6625C48.4125 41.7 47.625 40.9125 46.6625 40.9125ZM17.3363 22.1113H13.625V20.7563C13.625 19.7363 14.4538 18.9063 15.485 18.9063C16.505 18.9063 17.335 19.7363 17.335 20.7563L17.3363 22.1113ZM24.825 26.35H32.85C33.4713 26.35 33.975 26.8538 33.975 27.475C33.975 28.0963 33.4713 28.6 32.85 28.6H24.825C24.2037 28.6 23.7 28.0963 23.7 27.475C23.7 26.8538 24.2037 26.35 24.825 26.35ZM23.7013 32.2213C23.7013 31.6 24.205 31.0963 24.8263 31.0963H30.32C30.9412 31.0963 31.445 31.6 31.445 32.2213C31.445 32.8425 30.9412 33.3463 30.32 33.3463H24.8263C24.205 33.3475 23.7013 32.8425 23.7013 32.2213ZM46.1663 44.5138C46.1663 45.54 45.3325 46.3738 44.3062 46.3738H25.0912C25.6 45.3738 25.5375 44.2463 25.5375 43.1625H42.525C42.5312 43.1625 42.5362 43.1588 42.5437 43.1588H46.1675L46.1663 44.5138Z" fill="#093254"/>
<defs>
<linearGradient id="paint0_linear_18_767" x1="-3.33333" y1="-11.6667" x2="30" y2="60" gradientUnits="userSpaceOnUse">
<stop stop-color="#F1FF2F"/>
<stop offset="1" stop-color="#96DD6F"/>
</linearGradient>
</defs>
</svg>
