<svg width="20" height="20" viewBox="0 0 20 20" fill="none" xmlns="http://www.w3.org/2000/svg">
<path fill-rule="evenodd" clip-rule="evenodd" d="M6.0094 19.0243C5.89535 19.0243 5.80273 18.9318 5.80273 18.8177L5.80276 16.0901C5.80276 15.976 5.89531 15.8835 6.00936 15.8835C6.12347 15.8835 6.21602 15.976 6.21602 16.0901L6.21604 18.8177C6.21604 18.9317 6.12347 19.0243 6.0094 19.0243Z" fill="#FE8903"/>
<path fill-rule="evenodd" clip-rule="evenodd" d="M13.986 19.0243C13.8719 19.0243 13.7793 18.9318 13.7793 18.8177L13.7793 16.0901C13.7793 15.976 13.8718 15.8835 13.9859 15.8835C14.1 15.8835 14.1926 15.976 14.1926 16.0901L14.1926 18.8177C14.1926 18.9317 14.1 19.0243 13.986 19.0243Z" fill="#FE8903"/>
<path fill-rule="evenodd" clip-rule="evenodd" d="M15.7778 19.0204H4.22166C3.88087 19.0204 3.60352 18.7431 3.60352 18.4023V13.6879C3.60352 12.6823 4.23707 11.7711 5.18022 11.4214C5.18278 11.4203 5.18525 11.4196 5.18776 11.4188L8.18842 10.4348V9.34991C8.18842 9.23582 8.28091 9.14365 8.39498 9.14365C8.50911 9.14362 8.60163 9.23584 8.60163 9.34994L8.6017 10.5844C8.6017 10.6737 8.54424 10.753 8.45956 10.781L5.32056 11.8102C4.54058 12.1012 4.0168 12.8556 4.0168 13.6879V18.4022C4.0168 18.5152 4.10862 18.6071 4.22163 18.6071L15.7778 18.6071C15.8908 18.6071 15.9826 18.5153 15.9826 18.4023V13.6919C15.9826 12.8592 15.4588 12.1051 14.6789 11.8142L11.5402 10.7846C11.4552 10.7569 11.3977 10.6777 11.3977 10.5883L11.3978 9.38543C11.3978 9.27132 11.4903 9.1788 11.6044 9.1788C11.7185 9.17878 11.811 9.27135 11.811 9.38544L11.8111 10.4387L14.8116 11.4228C14.8141 11.4235 14.8166 11.4242 14.8191 11.4253C15.7624 11.7751 16.3959 12.6863 16.3959 13.6919V18.4022C16.3959 18.7431 16.1186 19.0204 15.7778 19.0204Z" fill="#FE8903"/>
<path fill-rule="evenodd" clip-rule="evenodd" d="M11.4844 13.3102C11.3901 13.3102 11.2993 13.2729 11.2257 13.2029L9.86433 11.9035L8.27287 10.7519C8.1807 10.6848 8.15986 10.5557 8.22658 10.4635C8.2937 10.3709 8.42283 10.3501 8.51539 10.4172L10.118 11.577C10.1255 11.5824 10.1326 11.5885 10.1394 11.595L11.4794 12.8736L12.8947 10.9406C12.9618 10.8484 13.0913 10.8283 13.1834 10.8958C13.2754 10.9632 13.2954 11.0924 13.2279 11.1846L11.7937 13.1441C11.7269 13.2384 11.6286 13.2976 11.5192 13.3084C11.5074 13.3095 11.4959 13.3102 11.4844 13.3102Z" fill="#FE8903"/>
<path fill-rule="evenodd" clip-rule="evenodd" d="M8.51392 13.3102C8.50246 13.3102 8.49094 13.3095 8.47908 13.3084C8.36968 13.2976 8.27138 13.2385 8.20249 13.1412L6.77039 11.1846C6.70299 11.0924 6.723 10.9633 6.81485 10.8958C6.90705 10.8283 7.03656 10.8485 7.10364 10.9406L8.51892 12.8736L9.85458 11.595C9.86137 11.5885 9.8689 11.5825 9.87642 11.5771L11.479 10.4172C11.5716 10.3501 11.7007 10.371 11.7678 10.4635C11.8345 10.5557 11.814 10.6849 11.7215 10.7519L10.1301 11.9035L8.77295 13.2026C8.69901 13.2729 8.60859 13.3102 8.51392 13.3102Z" fill="#FE8903"/>
<path fill-rule="evenodd" clip-rule="evenodd" d="M12.9922 10.1797H11.6088C11.4948 10.1797 11.4022 10.0872 11.4022 9.97306C11.4022 9.85894 11.4948 9.76643 11.6088 9.76643L12.9922 9.76641C13.3775 9.76641 13.6907 9.47583 13.6907 9.11887V4.08343C13.6907 3.9446 13.6781 3.82086 13.6526 3.70498C13.6523 3.70389 13.6519 3.70283 13.6519 3.70139C13.5425 3.16541 13.1274 2.74854 12.5943 2.6402C12.5541 2.63194 12.5175 2.61186 12.4888 2.58281C10.821 0.898789 9.10331 1.36952 8.22796 1.80002C7.77565 2.02276 7.37666 2.31984 7.04303 2.68326C6.57271 3.19411 6.31367 3.85386 6.31367 4.54194V9.11493C6.31367 9.47222 6.62686 9.76248 7.01216 9.76248L8.3955 9.76245C8.50963 9.76245 8.60214 9.85503 8.60214 9.96912C8.60221 10.0832 8.50958 10.1758 8.3955 10.1758L7.01222 10.1757C6.39907 10.1757 5.90039 9.70006 5.90039 9.11494V4.54192C5.90039 3.74983 6.19815 2.99035 6.7388 2.40343C7.10731 2.00235 7.54705 1.67445 8.04571 1.42907C9.01332 0.953357 10.9028 0.43246 12.7393 2.24881C13.4044 2.40952 13.9177 2.94013 14.0562 3.61708C14.0885 3.76201 14.1039 3.91449 14.1039 4.08346V9.11887C14.1039 9.70397 13.6053 10.1797 12.9922 10.1797Z" fill="#FE8903"/>
<path fill-rule="evenodd" clip-rule="evenodd" d="M11.5889 4.10316C11.6115 4.16237 11.6065 4.23055 11.5709 4.28723C11.6126 4.22122 11.6072 4.14875 11.5889 4.10316ZM7.37432 7.04279C7.44213 8.48099 8.65358 9.69611 10.0204 9.69611C11.3869 9.6961 12.5977 8.48245 12.6666 7.04494V5.26443C11.9516 5.2476 11.5067 4.72489 11.3385 4.4831C11.3375 4.48129 11.336 4.47952 11.3349 4.47772C10.3107 5.18911 9.24551 5.37029 8.51438 5.39361C8.00498 5.40971 7.58989 5.35451 7.33698 5.30715L7.37432 7.04279ZM10.0204 10.1094C9.23513 10.1094 8.48246 9.78364 7.90163 9.19278C7.33195 8.61338 6.99795 7.85572 6.96135 7.05929C6.96136 7.05784 6.96101 7.05605 6.96101 7.05426L6.91802 5.05169C6.91657 4.98606 6.94664 4.92329 6.99905 4.88346C7.05104 4.84328 7.11957 4.83074 7.18271 4.84903C7.20392 4.8551 9.3754 5.46069 11.2707 4.01314C11.35 3.9525 11.4619 3.95753 11.5354 4.02534C11.5585 4.04614 11.5756 4.0709 11.5867 4.09816C11.6144 4.15232 12.0348 4.94445 12.8474 4.84221C12.9062 4.835 12.9654 4.85334 13.0099 4.89244C13.0544 4.9315 13.0798 4.98823 13.0798 5.04741V7.04993C13.0798 7.05316 13.0798 7.05605 13.0795 7.05929C13.043 7.85571 12.7089 8.61339 12.1392 9.19278C11.5585 9.78364 10.8057 10.1094 10.0204 10.1094Z" fill="#FE8903"/>
<path fill-rule="evenodd" clip-rule="evenodd" d="M9.99839 19.0243C9.93383 19.0243 9.86996 18.9938 9.82976 18.9371L6.3499 14.0387C6.29147 13.9566 6.3011 13.8439 6.37285 13.7726L7.06887 13.0802L5.9338 11.455C5.8685 11.3617 5.89105 11.2326 5.98469 11.1673C6.07837 11.102 6.20711 11.125 6.2724 11.2186L7.50693 12.9858C7.56432 13.068 7.55422 13.1799 7.4832 13.2506L6.78829 13.9422L10.1667 18.6978C10.2326 18.7907 10.2111 18.9199 10.1179 18.9859C10.0816 19.0117 10.0396 19.0243 9.99839 19.0243Z" fill="#FE8903"/>
<path fill-rule="evenodd" clip-rule="evenodd" d="M9.99744 19.0243C9.95619 19.0243 9.91415 19.0118 9.87792 18.9859C9.78506 18.9199 9.76311 18.7908 9.82912 18.6979L13.2075 13.9423L12.5126 13.2506C12.4416 13.1799 12.4315 13.0684 12.4889 12.9862L13.7191 11.2186C13.7844 11.125 13.9132 11.102 14.0068 11.1673C14.1005 11.2326 14.1237 11.3614 14.0584 11.4551L12.927 13.0798L13.6233 13.7726C13.6947 13.844 13.7043 13.9566 13.6459 14.0388L10.1661 18.9372C10.1259 18.9938 10.062 19.0243 9.99744 19.0243Z" fill="#FE8903"/>
<path fill-rule="evenodd" clip-rule="evenodd" d="M9.99786 19.0243C9.98713 19.0243 9.97561 19.0233 9.96448 19.0214C9.85183 19.0031 9.77542 18.897 9.79372 18.7843L10.7889 12.6594C10.8075 12.5467 10.9134 12.4703 11.026 12.4886C11.1387 12.5069 11.2154 12.6131 11.1972 12.7257L10.2017 18.8506C10.1851 18.9522 10.0976 19.0243 9.99786 19.0243Z" fill="#FE8903"/>
<path fill-rule="evenodd" clip-rule="evenodd" d="M9.99681 19.0243C9.89704 19.0243 9.80949 18.9522 9.79299 18.8507L8.80144 12.7257C8.78351 12.6131 8.85987 12.5069 8.97252 12.4886C9.08557 12.4703 9.19135 12.5471 9.20966 12.6597L10.2009 18.7846C10.2192 18.8973 10.1428 19.0031 10.0301 19.0214C10.0187 19.0232 10.0075 19.0243 9.99681 19.0243Z" fill="#FE8903"/>
</svg>
