<svg width="90" height="92" viewBox="0 0 90 92" fill="none" xmlns="http://www.w3.org/2000/svg">
<rect x="0.5" width="89" height="92" rx="5" fill="#FB5D52" fill-opacity="0.25"/>
<rect x="7.5" y="6" width="75.0889" height="79.2222" rx="5" stroke="#FB5D52" stroke-linecap="round" stroke-linejoin="round" stroke-dasharray="2 2"/>
<g clip-path="url(#clip0_642_2088)">
<path d="M41.4734 37.3292C42.422 37.3292 43.191 36.5602 43.191 35.6116C43.191 34.663 42.422 33.894 41.4734 33.894C40.5248 33.894 39.7559 34.663 39.7559 35.6116C39.7559 36.5602 40.5248 37.3292 41.4734 37.3292Z" fill="#FB5D52"/>
<path d="M55.5718 41.9331C54.7607 41.1697 53.7349 40.6687 52.6138 40.5256V31.7947C52.6138 30.8644 52.2321 30.0294 51.6357 29.4092C51.0155 28.789 50.1806 28.4312 49.2502 28.4312H35.4143C34.484 28.4312 33.6491 28.8128 33.0288 29.4092C32.4086 30.0294 32.0508 30.8644 32.0508 31.7947V42.7918V43.8176V46.0361C32.0508 46.9665 32.4325 47.8014 33.0288 48.4216C33.6491 49.0418 34.484 49.3997 35.4143 49.3997H48.797C49.6796 50.1153 50.7769 50.5686 51.9935 50.5686C53.401 50.5686 54.6653 49.996 55.5718 49.0895C56.4783 48.1831 57.0508 46.9187 57.0508 45.5113C57.0508 44.1039 56.4783 42.8395 55.5718 41.9331ZM33.3151 31.7947C33.3151 31.2222 33.5536 30.6974 33.9353 30.3395C34.317 29.9579 34.8418 29.7193 35.4143 29.7193H49.2502C49.8227 29.7193 50.3475 29.9579 50.7292 30.3395C51.1109 30.7212 51.3494 31.246 51.3494 31.8186V39.2613L47.8189 35.7308C47.5804 35.4922 47.1748 35.4684 46.9124 35.7308L41.5928 41.0743L37.9907 37.4483C37.7521 37.2098 37.3466 37.1859 37.0842 37.4483L33.3151 41.2651V31.7947ZM35.3905 48.1831V48.1354C34.818 48.1354 34.2931 47.8968 33.9115 47.5151C33.5536 47.1334 33.3151 46.6086 33.3151 46.0361V43.8176V43.0781L37.5374 38.8319L41.1395 42.434C41.3781 42.6726 41.7836 42.6726 42.046 42.434L47.3657 37.0905L50.8485 40.5972C50.7769 40.621 50.7054 40.6449 50.6338 40.6687C50.5384 40.6926 50.443 40.7165 50.3237 40.7642C50.2283 40.788 50.1328 40.8357 50.0374 40.8596C49.9659 40.8834 49.9181 40.9073 49.8466 40.955C49.7512 41.0027 49.6796 41.0266 49.608 41.0743C49.4888 41.1458 49.3695 41.2174 49.2502 41.289C49.1786 41.3367 49.1309 41.3605 49.0594 41.4083C49.0117 41.4321 48.9878 41.456 48.9401 41.4798C48.7254 41.6229 48.5346 41.7899 48.3676 41.9808C47.4611 42.8873 46.8886 44.1516 46.8886 45.559C46.8886 45.9168 46.9363 46.2508 47.0078 46.6086C47.0317 46.7041 47.0556 46.7756 47.0794 46.871C47.151 47.1096 47.2225 47.3481 47.318 47.5867V47.6105C47.4134 47.8014 47.5088 48.0161 47.6281 48.1831H35.3905ZM54.6414 48.1831C53.9496 48.8749 53.0193 49.2804 51.9697 49.2804C50.9678 49.2804 50.0374 48.8749 49.3695 48.2308C49.2741 48.1354 49.1786 48.0161 49.0832 47.9207C49.0117 47.8491 48.9401 47.7537 48.8685 47.6821C48.7731 47.5628 48.7015 47.4197 48.63 47.2766C48.5823 47.1812 48.5346 47.1096 48.4868 47.0142C48.4391 46.8949 48.3914 46.7518 48.3676 46.6086C48.3437 46.5132 48.296 46.3939 48.2722 46.2985C48.2244 46.06 48.2006 45.7976 48.2006 45.5352C48.2006 44.4855 48.63 43.5552 49.2979 42.8634C49.9659 42.1716 50.9201 41.7661 51.9697 41.7661C53.0193 41.7661 53.9496 42.1955 54.6414 42.8634C55.3332 43.5552 55.7388 44.4855 55.7388 45.5352C55.7388 46.5609 55.3094 47.4913 54.6414 48.1831Z" fill="#FB5D52"/>
<path d="M52.4238 42.9589C52.3761 42.9112 52.3045 42.8635 52.2091 42.8158C52.1375 42.7919 52.066 42.7681 51.9944 42.7681C51.9705 42.7681 51.9705 42.7681 51.9705 42.7681C51.9467 42.7681 51.9467 42.7681 51.9467 42.7681C51.8751 42.7681 51.8036 42.7919 51.732 42.8158C51.6604 42.8396 51.5889 42.8873 51.5173 42.9589L50.0383 44.4379C49.7997 44.6765 49.7997 45.082 50.0383 45.3444C50.2768 45.583 50.6824 45.583 50.9448 45.3444L51.3265 44.9627V47.5868C51.3265 47.9446 51.6127 48.2309 51.9705 48.2309C52.3284 48.2309 52.6146 47.9446 52.6146 47.5868V44.9627L52.9963 45.3444C53.2349 45.583 53.6404 45.583 53.9028 45.3444C54.1413 45.1059 54.1413 44.7003 53.9028 44.4379L52.4238 42.9589Z" fill="#FB5D52"/>
</g>
<path d="M27.2908 65.12C26.1388 65.12 25.2348 64.796 24.5788 64.148C23.9308 63.5 23.6068 62.564 23.6068 61.34V56.6H25.1668V61.28C25.1668 62.144 25.3508 62.772 25.7188 63.164C26.0948 63.556 26.6228 63.752 27.3028 63.752C27.9828 63.752 28.5068 63.556 28.8748 63.164C29.2428 62.772 29.4268 62.144 29.4268 61.28V56.6H30.9628V61.34C30.9628 62.564 30.6348 63.5 29.9788 64.148C29.3308 64.796 28.4348 65.12 27.2908 65.12ZM36.3155 65.084C35.7955 65.084 35.3195 64.964 34.8875 64.724C34.4635 64.484 34.1235 64.124 33.8675 63.644C33.6195 63.156 33.4955 62.54 33.4955 61.796C33.4955 61.044 33.6155 60.428 33.8555 59.948C34.1035 59.468 34.4395 59.112 34.8635 58.88C35.2875 58.64 35.7715 58.52 36.3155 58.52C36.9475 58.52 37.5035 58.656 37.9835 58.928C38.4715 59.2 38.8555 59.58 39.1355 60.068C39.4235 60.556 39.5675 61.132 39.5675 61.796C39.5675 62.46 39.4235 63.04 39.1355 63.536C38.8555 64.024 38.4715 64.404 37.9835 64.676C37.5035 64.948 36.9475 65.084 36.3155 65.084ZM32.7635 67.328V58.592H34.1915V60.104L34.1435 61.808L34.2635 63.512V67.328H32.7635ZM36.1475 63.8C36.5075 63.8 36.8275 63.72 37.1075 63.56C37.3955 63.4 37.6235 63.168 37.7915 62.864C37.9595 62.56 38.0435 62.204 38.0435 61.796C38.0435 61.38 37.9595 61.024 37.7915 60.728C37.6235 60.424 37.3955 60.192 37.1075 60.032C36.8275 59.872 36.5075 59.792 36.1475 59.792C35.7875 59.792 35.4635 59.872 35.1755 60.032C34.8875 60.192 34.6595 60.424 34.4915 60.728C34.3235 61.024 34.2395 61.38 34.2395 61.796C34.2395 62.204 34.3235 62.56 34.4915 62.864C34.6595 63.168 34.8875 63.4 35.1755 63.56C35.4635 63.72 35.7875 63.8 36.1475 63.8ZM40.7501 65V56.096H42.2501V65H40.7501ZM46.8588 65.084C46.2028 65.084 45.6188 64.944 45.1068 64.664C44.5948 64.376 44.1908 63.984 43.8948 63.488C43.5988 62.992 43.4508 62.428 43.4508 61.796C43.4508 61.156 43.5988 60.592 43.8948 60.104C44.1908 59.608 44.5948 59.22 45.1068 58.94C45.6188 58.66 46.2028 58.52 46.8588 58.52C47.5228 58.52 48.1108 58.66 48.6228 58.94C49.1428 59.22 49.5468 59.604 49.8348 60.092C50.1308 60.58 50.2788 61.148 50.2788 61.796C50.2788 62.428 50.1308 62.992 49.8348 63.488C49.5468 63.984 49.1428 64.376 48.6228 64.664C48.1108 64.944 47.5228 65.084 46.8588 65.084ZM46.8588 63.8C47.2268 63.8 47.5548 63.72 47.8428 63.56C48.1308 63.4 48.3548 63.168 48.5148 62.864C48.6828 62.56 48.7668 62.204 48.7668 61.796C48.7668 61.38 48.6828 61.024 48.5148 60.728C48.3548 60.424 48.1308 60.192 47.8428 60.032C47.5548 59.872 47.2308 59.792 46.8708 59.792C46.5028 59.792 46.1748 59.872 45.8868 60.032C45.6068 60.192 45.3828 60.424 45.2148 60.728C45.0468 61.024 44.9628 61.38 44.9628 61.796C44.9628 62.204 45.0468 62.56 45.2148 62.864C45.3828 63.168 45.6068 63.4 45.8868 63.56C46.1748 63.72 46.4988 63.8 46.8588 63.8ZM55.3392 65V63.704L55.2552 63.428V61.16C55.2552 60.72 55.1232 60.38 54.8592 60.14C54.5952 59.892 54.1952 59.768 53.6592 59.768C53.2992 59.768 52.9432 59.824 52.5912 59.936C52.2472 60.048 51.9552 60.204 51.7152 60.404L51.1272 59.312C51.4712 59.048 51.8792 58.852 52.3512 58.724C52.8312 58.588 53.3272 58.52 53.8392 58.52C54.7672 58.52 55.4832 58.744 55.9872 59.192C56.4992 59.632 56.7552 60.316 56.7552 61.244V65H55.3392ZM53.3232 65.084C52.8432 65.084 52.4232 65.004 52.0632 64.844C51.7032 64.676 51.4232 64.448 51.2232 64.16C51.0312 63.864 50.9352 63.532 50.9352 63.164C50.9352 62.804 51.0192 62.48 51.1872 62.192C51.3632 61.904 51.6472 61.676 52.0392 61.508C52.4312 61.34 52.9512 61.256 53.5992 61.256H55.4592V62.252H53.7072C53.1952 62.252 52.8512 62.336 52.6752 62.504C52.4992 62.664 52.4112 62.864 52.4112 63.104C52.4112 63.376 52.5192 63.592 52.7352 63.752C52.9512 63.912 53.2512 63.992 53.6352 63.992C54.0032 63.992 54.3312 63.908 54.6192 63.74C54.9152 63.572 55.1272 63.324 55.2552 62.996L55.5072 63.896C55.3632 64.272 55.1032 64.564 54.7272 64.772C54.3592 64.98 53.8912 65.084 53.3232 65.084ZM61.164 65.084C60.548 65.084 59.992 64.948 59.496 64.676C59.008 64.396 58.624 64.012 58.344 63.524C58.064 63.036 57.924 62.46 57.924 61.796C57.924 61.132 58.064 60.556 58.344 60.068C58.624 59.58 59.008 59.2 59.496 58.928C59.992 58.656 60.548 58.52 61.164 58.52C61.7 58.52 62.18 58.64 62.604 58.88C63.028 59.112 63.364 59.468 63.612 59.948C63.86 60.428 63.984 61.044 63.984 61.796C63.984 62.54 63.864 63.156 63.624 63.644C63.384 64.124 63.052 64.484 62.628 64.724C62.204 64.964 61.716 65.084 61.164 65.084ZM61.344 63.8C61.704 63.8 62.024 63.72 62.304 63.56C62.592 63.4 62.82 63.168 62.988 62.864C63.164 62.56 63.252 62.204 63.252 61.796C63.252 61.38 63.164 61.024 62.988 60.728C62.82 60.424 62.592 60.192 62.304 60.032C62.024 59.872 61.704 59.792 61.344 59.792C60.984 59.792 60.66 59.872 60.372 60.032C60.092 60.192 59.864 60.424 59.688 60.728C59.52 61.024 59.436 61.38 59.436 61.796C59.436 62.204 59.52 62.56 59.688 62.864C59.864 63.168 60.092 63.4 60.372 63.56C60.66 63.72 60.984 63.8 61.344 63.8ZM63.288 65V63.488L63.348 61.784L63.228 60.08V56.096H64.716V65H63.288Z" fill="#FB5D52"/>
<defs>
<clipPath id="clip0_642_2088">
<rect width="25" height="25" fill="white" transform="translate(32.0508 27)"/>
</clipPath>
</defs>
</svg>
