<svg width="72" height="73" viewBox="0 0 72 73" fill="none" xmlns="http://www.w3.org/2000/svg">
<circle cx="36" cy="36.793" r="36" fill="url(#paint0_linear_18_546)"/>
<path d="M29.4212 23.9416L32.3824 26.3218L31.3858 29.9878C31.2808 30.3739 31.4221 30.7753 31.7458 31.0104C31.9142 31.1328 32.1101 31.1943 32.3065 31.1943C32.4876 31.1943 32.6691 31.1419 32.8296 31.0369L36.0082 28.956L39.1869 31.0369C39.5216 31.2559 39.947 31.2454 40.2706 31.0104C40.5943 30.7753 40.7356 30.374 40.6307 29.9878L39.6341 26.3218L42.5953 23.9417C42.9071 23.6911 43.0288 23.2833 42.9051 22.9027C42.7814 22.5222 42.4433 22.2638 42.0438 22.2444L38.2492 22.0594L36.9007 18.5076C36.7589 18.1343 36.4086 17.8931 36.0083 17.8931C35.608 17.8931 35.2576 18.1343 35.116 18.5076L33.7675 22.0594L29.9729 22.2443C29.5734 22.2637 29.2352 22.5221 29.1116 22.9026C28.988 23.2832 29.1094 23.691 29.4212 23.9416ZM34.0656 23.3589C34.4447 23.3404 34.7767 23.0991 34.9113 22.7443L36.0083 19.855L37.1053 22.7442C37.24 23.0991 37.5719 23.3404 37.9512 23.3589L41.0381 23.5093L38.6291 25.4456C38.3333 25.6835 38.2066 26.0739 38.3062 26.4399L39.117 29.4222L36.531 27.7294C36.3722 27.6255 36.1903 27.5736 36.0083 27.5736C35.8263 27.5736 35.6442 27.6256 35.4854 27.7294L32.8997 29.4221L33.7105 26.4398C33.8101 26.0735 33.6832 25.6831 33.3874 25.4454L30.9785 23.5093L34.0656 23.3589ZM22.3793 37.5246C22.5522 37.8268 22.8653 38.0052 23.204 38.0052C23.2546 38.0052 23.3056 38.0013 23.3569 37.9932C23.752 37.9306 24.0602 37.6372 24.142 37.2455L24.9183 33.5265L28.6373 32.7502C29.0289 32.6684 29.3224 32.3602 29.3849 31.965C29.4474 31.5698 29.2635 31.1861 28.9164 30.9874L25.6194 29.0998L26.0303 25.323C26.0735 24.9253 25.8712 24.551 25.5146 24.3694C25.1582 24.1877 24.7363 24.244 24.4401 24.5128L21.6261 27.0652L18.1612 25.5073C17.797 25.3435 17.3788 25.4205 17.0957 25.7037C16.8125 25.9868 16.7354 26.405 16.8991 26.7693L18.4571 30.2343L15.9047 33.0483C15.6359 33.3446 15.5796 33.7664 15.7612 34.1229C15.9428 34.4794 16.3172 34.6818 16.7149 34.6385L20.4918 34.2276L22.3793 37.5246ZM19.5868 30.9426C19.8418 30.6614 19.9061 30.256 19.7504 29.9099L18.483 27.0911L21.3018 28.3585C21.6481 28.5141 22.0535 28.45 22.3345 28.195L24.6237 26.1186L24.2894 29.1911C24.2484 29.5686 24.4348 29.9343 24.7641 30.1226L27.4463 31.6581L24.421 32.2896C24.0493 32.3672 23.7591 32.6574 23.6816 33.0289L23.0502 36.0543L21.5146 33.3721C21.3433 33.0729 21.026 32.8918 20.6867 32.8918C20.6523 32.8918 20.6177 32.8937 20.583 32.8975L17.5105 33.2318L19.5868 30.9426ZM56.0955 33.0879L53.5431 30.2738L55.101 26.8089C55.2648 26.4447 55.1878 26.0264 54.9046 25.7433C54.6215 25.4601 54.2033 25.3831 53.839 25.5468L50.3741 27.1048L47.56 24.5524C47.2637 24.2835 46.8419 24.2274 46.4854 24.4089C46.1289 24.5905 45.9265 24.9649 45.9698 25.3626L46.3807 29.1395L43.0837 31.027C42.7366 31.2257 42.5526 31.6094 42.6152 32.0046C42.6777 32.3997 42.9712 32.708 43.3629 32.7898L47.0819 33.5661L47.8581 37.2851C47.9399 37.6767 48.2481 37.9702 48.6432 38.0327C48.6945 38.0408 48.7455 38.0448 48.7961 38.0448C49.1349 38.0448 49.4479 37.8663 49.6208 37.5642L51.5084 34.2671L55.2853 34.6781C55.683 34.7215 56.0573 34.5189 56.2389 34.1624C56.4206 33.8059 56.3643 33.3841 56.0955 33.0879ZM51.4173 32.9369C51.0397 32.896 50.6743 33.0821 50.4858 33.4116L48.9504 36.0938L48.3188 33.0683C48.2412 32.6967 47.951 32.4065 47.5795 32.3291L44.5542 31.6975L47.2362 30.162C47.5658 29.9733 47.7521 29.6076 47.711 29.2304L47.3767 26.158L49.6657 28.2343C49.9468 28.4894 50.3522 28.5537 50.6985 28.398L53.5173 27.1306L52.2499 29.9494C52.0943 30.2957 52.1585 30.701 52.4136 30.9821L54.4899 33.2713L51.4173 32.9369ZM44.2684 47.1514C42.826 45.8469 41.1136 44.916 39.271 44.4108C41.2357 43.2779 42.5619 41.157 42.5619 38.7308C42.5619 35.1172 39.622 32.1772 36.0083 32.1772C32.3946 32.1772 29.4547 35.1172 29.4547 38.7308C29.4547 41.157 30.7809 43.2779 32.7456 44.4108C30.9028 44.916 29.1904 45.8469 27.7479 47.1515C25.4971 49.1868 24.0805 51.9625 23.7591 54.9671C23.7393 55.1522 23.799 55.3371 23.9235 55.4756C24.0479 55.6141 24.2253 55.6931 24.4115 55.6931L47.6047 55.6931C47.7909 55.6931 47.9684 55.614 48.0928 55.4754C48.2173 55.337 48.2771 55.1522 48.2572 54.967C47.9358 51.9624 46.5192 49.1868 44.2684 47.1514ZM36.0062 45.2843C36.0069 45.2843 36.0076 45.2844 36.0084 45.2844C36.0091 45.2844 36.0099 45.2843 36.0105 45.2843C36.1282 45.2843 36.2455 45.2868 36.3623 45.2905L38.12 50.817L36.0082 53.2015L33.8964 50.817L35.6541 45.2905C35.7711 45.2868 35.8884 45.2843 36.0062 45.2843ZM30.7672 38.7308C30.7672 35.8409 33.1184 33.4897 36.0083 33.4897C38.8983 33.4897 41.2494 35.8409 41.2494 38.7308C41.2494 41.62 38.8994 43.9706 36.0105 43.9718C36.0098 43.9718 36.009 43.9718 36.0083 43.9718C36.0076 43.9718 36.0069 43.9718 36.0062 43.9718C33.1173 43.9706 30.7672 41.6199 30.7672 38.7308ZM34.2337 45.4262L32.5327 50.7742C32.4627 50.9945 32.5136 51.2352 32.6668 51.4082L35.2993 54.3805H25.166C25.9745 49.7317 29.6446 46.166 34.2337 45.4262ZM36.7171 54.3806L39.3495 51.4083C39.5028 51.2353 39.5537 50.9946 39.4836 50.7743L37.7827 45.4262C42.3718 46.166 46.0419 49.7316 46.8505 54.3805L36.7171 54.3806ZM27.7812 45.2843C28.1436 45.2843 28.4375 44.9904 28.4375 44.628C28.4375 44.2656 28.1436 43.9718 27.7812 43.9718H22.7477C22.4586 42.9096 21.4861 42.1261 20.3337 42.1261C18.9541 42.1261 17.8317 43.2485 17.8317 44.628C17.8317 46.0076 18.9542 47.13 20.3337 47.13C21.4862 47.13 22.4586 46.3464 22.7477 45.2843H27.7812ZM20.3337 45.8175C19.6778 45.8175 19.1442 45.2839 19.1442 44.628C19.1442 43.9721 19.6778 43.4386 20.3337 43.4386C20.9895 43.4386 21.5231 43.9722 21.5231 44.628C21.5231 45.2839 20.9895 45.8175 20.3337 45.8175ZM51.6831 42.126C50.5305 42.126 49.5581 42.9096 49.269 43.9717H44.2355C43.873 43.9717 43.5792 44.2655 43.5792 44.628C43.5792 44.9904 43.873 45.2842 44.2355 45.2842H49.269C49.5581 46.3463 50.5305 47.1299 51.6831 47.1299C53.0627 47.1299 54.185 46.0076 54.185 44.628C54.185 43.2484 53.0626 42.126 51.6831 42.126ZM51.6831 45.8175C51.0272 45.8175 50.4936 45.2839 50.4936 44.628C50.4936 43.9721 51.0272 43.4386 51.6831 43.4386C52.3389 43.4386 52.8725 43.9722 52.8725 44.628C52.8725 45.2839 52.3389 45.8175 51.6831 45.8175Z" fill="#0D203B"/>
<defs>
<linearGradient id="paint0_linear_18_546" x1="-4" y1="-13.207" x2="36" y2="72.793" gradientUnits="userSpaceOnUse">
<stop stop-color="#F1FF2F"/>
<stop offset="1" stop-color="#96DD6F"/>
</linearGradient>
</defs>
</svg>
