<svg width="21" height="21" viewBox="0 0 21 21" fill="none" xmlns="http://www.w3.org/2000/svg">
<path d="M10.5 0.364258C4.98602 0.364258 0.5 4.85028 0.5 10.3643C0.5 15.8778 4.98602 20.3643 10.5 20.3643C16.0136 20.3643 20.5 15.8778 20.5 10.3643C20.5 4.85028 16.0144 0.364258 10.5 0.364258ZM12.9869 10.7163H11.36V16.5151H8.94921C8.94921 16.5151 8.94921 13.3466 8.94921 10.7163H7.80323V8.66684H8.94921V7.34122C8.94921 6.39181 9.40035 4.90828 11.3821 4.90828L13.1686 4.91513V6.90458C13.1686 6.90458 12.083 6.90458 11.8719 6.90458C11.6609 6.90458 11.3608 7.01011 11.3608 7.46286V8.66725H13.1976L12.9869 10.7163Z" fill="#83829C"/>
</svg>
