<svg width="23" height="22" viewBox="0 0 23 22" fill="none" xmlns="http://www.w3.org/2000/svg">
<g clip-path="url(#clip0_168_509)">
<path d="M11.7265 0C17.802 0 22.7266 4.92525 22.7266 11C22.7266 17.0755 17.802 22 11.7265 22C5.65105 22 0.726562 17.0754 0.726562 11C0.726562 4.92525 5.65113 0 11.7265 0Z" fill="#3B5998"/>
<path d="M13.0662 7.57277H14.4839V5.47864H12.8174V5.48619C10.7982 5.55771 10.3843 6.69275 10.3479 7.88489H10.3437V8.93059H8.96875V10.9814H10.3437V16.4786H12.4159V10.9814H14.1133L14.4412 8.93059H12.4166V8.2988C12.4166 7.89591 12.6846 7.57277 13.0662 7.57277Z" fill="white"/>
</g>
<defs>
<clipPath id="clip0_168_509">
<rect width="22" height="22" fill="white" transform="translate(0.726562)"/>
</clipPath>
</defs>
</svg>
