<svg width="40" height="41" viewBox="0 0 40 41" fill="none" xmlns="http://www.w3.org/2000/svg">
<g clip-path="url(#clip0_18_631)">
<path d="M20 0.193359C16.0444 0.193359 12.1776 1.36634 8.8886 3.56397C5.59962 5.7616 3.03617 8.88517 1.52242 12.5397C0.00866564 16.1942 -0.387401 20.2155 0.384303 24.0952C1.15601 27.9748 3.06082 31.5384 5.85787 34.3355C8.65492 37.1325 12.2186 39.0374 16.0982 39.8091C19.9778 40.5808 23.9992 40.1847 27.6537 38.671C31.3082 37.1572 34.4318 34.5937 36.6294 31.3048C38.827 28.0158 40 24.149 40 20.1934C40 14.889 37.8929 9.80195 34.1421 6.05122C30.3914 2.3005 25.3043 0.193359 20 0.193359ZM25.6895 13.2091C25.6895 13.5855 25.5316 13.7355 25.1632 13.7355C24.4553 13.7355 23.7474 13.7355 23.0421 13.7644C22.3369 13.7934 21.9526 14.1144 21.9526 14.8513C21.9368 15.6407 21.9526 16.4144 21.9526 17.2197H24.9816C25.4132 17.2197 25.5605 17.367 25.5605 17.8013C25.5605 18.8539 25.5605 19.9118 25.5605 20.9749C25.5605 21.4039 25.4237 21.5381 24.9895 21.5407H21.9263V30.1039C21.9263 30.5618 21.7842 30.7065 21.3316 30.7065H18.0369C17.6395 30.7065 17.4842 30.5513 17.4842 30.1539V21.5539H14.8684C14.4579 21.5539 14.3105 21.4039 14.3105 20.9907C14.3105 19.9258 14.3105 18.8618 14.3105 17.7986C14.3105 17.3881 14.4658 17.2328 14.8711 17.2328H17.4842V14.9302C17.4532 13.8959 17.7014 12.8723 18.2026 11.967C18.7237 11.0531 19.5587 10.3593 20.5526 10.0144C21.1977 9.77972 21.8794 9.66208 22.5658 9.66704H25.1526C25.5237 9.66704 25.679 9.8302 25.679 10.1934C25.6921 11.2065 25.6921 12.2091 25.6895 13.2091Z" fill="white"/>
</g>
<defs>
<clipPath id="clip0_18_631">
<rect width="40" height="40" fill="white" transform="translate(0 0.193359)"/>
</clipPath>
</defs>
</svg>
