<svg width="20" height="20" viewBox="0 0 20 20" fill="none" xmlns="http://www.w3.org/2000/svg">
<circle opacity="0.1" cx="10" cy="10" r="10" fill="#FE8903"/>
<circle cx="9.95688" cy="9.9559" r="5.38462" fill="#FE8903"/>
<mask id="mask0_640_1585" style="mask-type:luminance" maskUnits="userSpaceOnUse" x="6" y="6" width="7" height="8">
<path d="M6.85742 6.85742H12.9042V13.1988H6.85742V6.85742Z" fill="white"/>
</mask>
<g mask="url(#mask0_640_1585)">
<mask id="mask1_640_1585" style="mask-type:luminance" maskUnits="userSpaceOnUse" x="6" y="6" width="7" height="8">
<path d="M10.3165 9.81366H7.61853C7.51403 9.81366 7.43836 9.71383 7.46646 9.61303L8.20712 6.97375C8.22634 6.90548 8.28846 6.8584 8.3592 6.8584H11.0571C11.1616 6.8584 11.2373 6.95822 11.2092 7.05903L10.4685 9.69855C10.4493 9.76658 10.3872 9.81366 10.3165 9.81366ZM8.56402 11.8062L8.94556 10.4471C8.97366 10.3463 8.89799 10.2465 8.79349 10.2465H7.40656C7.33582 10.2465 7.27371 10.2935 7.25449 10.3618L6.87319 11.7209C6.84484 11.8215 6.92051 11.9215 7.02526 11.9215H8.41194C8.48293 11.9215 8.54504 11.8742 8.56402 11.8062ZM9.26598 10.3618L8.52532 13.0013C8.49698 13.1019 8.57264 13.202 8.6774 13.202H11.3751C11.4458 13.202 11.5079 13.1547 11.5272 13.0866L12.2678 10.4471C12.2962 10.3463 12.2205 10.2465 12.1158 10.2465H9.41806C9.34708 10.2465 9.28496 10.2935 9.26598 10.3618ZM11.1703 8.2542L10.789 9.61303C10.7606 9.71383 10.8363 9.81366 10.941 9.81366H12.3277C12.3985 9.81366 12.4606 9.76658 12.4798 9.69855L12.8611 8.33948C12.8894 8.23867 12.8138 8.13885 12.709 8.13885H11.3223C11.2516 8.13885 11.1892 8.18592 11.1703 8.2542Z" fill="white"/>
</mask>
<g mask="url(#mask1_640_1585)">
<path d="M6.84375 6.8584V13.1993H12.8884V6.8584H6.84375Z" fill="white"/>
</g>
</g>
</svg>
