<svg width="314" height="85" viewBox="0 0 314 85" fill="none" xmlns="http://www.w3.org/2000/svg">
<mask id="mask0_18_601" style="mask-type:alpha" maskUnits="userSpaceOnUse" x="0" y="18" width="41" height="43">
<path d="M23.3049 38.4842H5.46802C4.77533 38.4842 4.27486 37.8244 4.46188 37.1577L9.35923 19.7071C9.48564 19.2551 9.89606 18.9434 10.3654 18.9434H28.2022C28.8932 18.9434 29.3936 19.6049 29.2066 20.2699L24.311 37.7223C24.1846 38.1725 23.7724 38.4842 23.3049 38.4842ZM11.7196 51.6575L14.241 42.6716C14.428 42.0049 13.9275 41.3451 13.2348 41.3451H4.06705C3.59775 41.3451 3.18733 41.6568 3.06091 42.107L0.539507 51.093C0.35248 51.7597 0.852951 52.4195 1.54564 52.4195H10.7134C11.1827 52.4195 11.5932 52.1078 11.7196 51.6575ZM16.3589 42.107L11.4633 59.5594C11.2763 60.2244 11.7767 60.8859 12.4677 60.8859H30.3045C30.7721 60.8859 31.1843 60.5742 31.3107 60.1222L36.2063 42.6716C36.3933 42.0049 35.8928 41.3451 35.2019 41.3451H17.365C16.8975 41.3451 16.4853 41.6568 16.3589 42.107ZM28.9503 28.1718L26.4289 37.1577C26.2419 37.8244 26.7424 38.4842 27.4333 38.4842H36.6029C37.0722 38.4842 37.4826 38.1725 37.609 37.7223L40.1304 28.7363C40.3174 28.0696 39.8169 27.4098 39.1243 27.4098H29.9547C29.4872 27.4098 29.0767 27.7215 28.9503 28.1718Z" fill="black"/>
</mask>
<g mask="url(#mask0_18_601)">
<path d="M0.352539 18.9434V60.8357H40.2482V18.9434H0.352539Z" fill="url(#paint0_linear_18_601)"/>
</g>
<mask id="mask1_18_601" style="mask-type:luminance" maskUnits="userSpaceOnUse" x="271" y="16" width="43" height="45">
<path d="M271.016 16.311H313.5V60.8651H271.016V16.311Z" fill="white"/>
</mask>
<g mask="url(#mask1_18_601)">
<mask id="mask2_18_601" style="mask-type:luminance" maskUnits="userSpaceOnUse" x="271" y="16" width="43" height="45">
<path d="M295.336 37.0779H276.38C275.646 37.0779 275.115 36.3766 275.312 35.6683L280.516 17.1249C280.651 16.6452 281.087 16.3145 281.584 16.3145H300.54C301.274 16.3145 301.806 17.0158 301.608 17.7241L296.404 36.2692C296.269 36.7472 295.833 37.0779 295.336 37.0779ZM283.023 51.0773L285.704 41.5285C285.902 40.8202 285.37 40.1189 284.636 40.1189H274.891C274.394 40.1189 273.958 40.4496 273.823 40.9293L271.144 50.4781C270.945 51.1846 271.476 51.8877 272.212 51.8877H281.955C282.454 51.8877 282.89 51.5552 283.023 51.0773ZM287.955 40.9293L282.752 59.4744C282.552 60.181 283.084 60.8841 283.82 60.8841H302.774C303.271 60.8841 303.707 60.5516 303.842 60.0736L309.046 41.5285C309.245 40.8202 308.714 40.1189 307.978 40.1189H289.024C288.525 40.1189 288.089 40.4496 287.955 40.9293ZM301.335 26.1213L298.656 35.6683C298.457 36.3766 298.988 37.0779 299.724 37.0779H309.467C309.964 37.0779 310.4 36.7472 310.535 36.2692L313.214 26.7204C313.414 26.0122 312.882 25.3108 312.146 25.3108H302.403C301.906 25.3108 301.468 25.6416 301.335 26.1213Z" fill="white"/>
</mask>
<g mask="url(#mask2_18_601)">
<path d="M270.944 16.3145V60.865H313.413V16.3145H270.944Z" fill="url(#paint1_linear_18_601)"/>
</g>
</g>
<path d="M238.215 47.5558C238.16 50.9967 237.232 53.7138 235.431 55.7088C233.63 57.7003 230.722 58.6943 226.71 58.6943C222.341 58.6943 219.113 57.8077 217.026 56.0344C214.937 54.2611 213.895 51.3795 213.895 47.3895V31.5892C213.895 31.2896 213.833 31.087 213.708 30.9796C213.587 30.8688 213.322 30.7718 212.911 30.6887L211.394 30.3631V29.5388H224.659V30.3631L223.191 30.6887C222.806 30.7718 222.554 30.8619 222.429 30.9589C222.308 31.0524 222.249 31.2481 222.249 31.5477V48.1307C222.249 50.4495 222.41 52.2505 222.734 53.5337C223.061 54.8187 223.696 55.7677 224.639 56.3807C225.581 56.9955 226.966 57.302 228.795 57.302C231.417 57.302 233.424 56.4431 234.814 54.7252C236.208 53.0038 236.906 50.7214 236.906 47.8814V31.5892C236.906 31.2896 236.844 31.087 236.719 30.9796C236.598 30.8688 236.333 30.7718 235.923 30.6887L234.406 30.3631V29.5388H240.633V30.3631L239.157 30.6887C238.773 30.7718 238.52 30.8619 238.395 30.9589C238.274 31.0524 238.215 31.2481 238.215 31.5477V47.5558Z" fill="#5AB15B"/>
<path fill-rule="evenodd" clip-rule="evenodd" d="M173.086 1.24512C174.792 1.24165 176.49 1.35941 178.181 1.59839C179.871 1.83737 181.537 2.19411 183.177 2.6686C184.815 3.1431 186.413 3.73188 187.97 4.43324C189.525 5.13459 191.025 5.94331 192.466 6.85766C191.529 6.53729 190.578 6.26195 189.613 6.02989C188.651 5.79784 187.679 5.61082 186.699 5.46881C185.719 5.32681 184.733 5.2281 183.745 5.17615C182.754 5.1242 181.765 5.11727 180.775 5.1571C179.784 5.1952 178.799 5.28005 177.817 5.4082C176.833 5.53808 175.86 5.71299 174.894 5.93119C173.927 6.14938 172.973 6.41261 172.031 6.71912C171.089 7.02564 170.163 7.37545 169.252 7.76682C168.343 8.15819 167.452 8.5894 166.581 9.06389C165.71 9.53665 164.864 10.0492 164.041 10.5999C163.217 11.1506 162.422 11.7394 161.651 12.3628C160.882 12.988 160.143 13.6461 159.435 14.337C158.726 15.0297 158.049 15.7536 157.407 16.5069C156.764 17.2619 156.158 18.0429 155.588 18.8534C155.017 19.6638 154.485 20.4985 153.99 21.3575C153.496 22.2147 153.043 23.0944 152.629 23.9949C152.217 24.8954 151.846 25.8132 151.517 26.7484C151.188 27.6835 150.902 28.6307 150.66 29.5919C150.417 30.5512 150.22 31.521 150.068 32.5012C149.915 33.4796 149.808 34.4632 149.745 35.452C149.683 36.4409 149.666 37.4314 149.694 38.4202C149.723 39.4108 149.796 40.3979 149.915 41.3815C150.035 42.3651 150.197 43.3418 150.407 44.3099C150.615 45.2779 150.868 46.2355 151.166 47.1811C151.462 48.1266 151.801 49.0565 152.182 49.9709C152.565 50.8835 152.987 51.7788 153.451 52.6551C153.915 53.5296 154.419 54.3816 154.961 55.2111C155.505 56.0406 156.084 56.8424 156.7 57.6182C157.317 58.394 157.966 59.1404 158.652 59.8556C159.336 60.5726 160.053 61.2549 160.799 61.906C161.547 62.5554 162.323 63.1702 163.127 63.7503C163.93 64.3287 164.76 64.8707 165.613 65.3729L179.201 73.2177C178.584 73.3233 177.964 73.4116 177.344 73.4861C176.722 73.5588 176.101 73.616 175.477 73.6575C174.854 73.6991 174.229 73.7233 173.604 73.732C172.978 73.7424 172.353 73.7337 171.728 73.7112C171.105 73.687 170.48 73.6489 169.858 73.5917C169.234 73.5363 168.614 73.4653 167.994 73.377C167.376 73.2887 166.76 73.1848 166.147 73.0653C165.532 72.9458 164.922 72.8107 164.316 72.6601C163.708 72.5077 163.108 72.3414 162.508 72.1579C161.911 71.976 161.319 71.7786 160.73 71.5656C160.143 71.3526 159.561 71.124 158.984 70.8816C158.409 70.6374 157.84 70.3794 157.277 70.1075C156.714 69.8339 156.16 69.5464 155.611 69.2451C155.064 68.9438 154.523 68.6286 153.993 68.2996C153.462 67.9705 152.939 67.6276 152.424 67.2709C151.912 66.9142 151.408 66.5453 150.913 66.1626C150.417 65.7799 149.934 65.385 149.46 64.9781C148.985 64.5694 148.523 64.1503 148.069 63.7191C147.617 63.2879 147.176 62.8446 146.746 62.3909C146.317 61.9354 145.899 61.4713 145.494 60.9951C145.089 60.5189 144.696 60.0323 144.317 59.537C143.936 59.04 143.568 58.5343 143.215 58.02C142.86 57.5039 142.521 56.9809 142.193 56.4476C141.866 55.9142 141.553 55.3739 141.255 54.8249C140.955 54.276 140.671 53.7184 140.401 53.1555C140.129 52.591 139.875 52.0213 139.634 51.4446C139.393 50.8662 139.168 50.2843 138.957 49.6955C138.747 49.1068 138.552 48.5128 138.371 47.9136C138.191 47.3144 138.027 46.7118 137.88 46.1057C137.731 45.4978 137.597 44.8865 137.481 44.2735C137.364 43.6587 137.263 43.0422 137.178 42.4223C137.093 41.8023 137.024 41.1823 136.97 40.5589C136.919 39.9355 136.88 39.3121 136.86 38.6869C136.839 38.0618 136.835 37.4366 136.848 36.8115C136.858 36.188 136.887 35.5629 136.931 34.9394C136.974 34.316 137.035 33.6926 137.111 33.0726C137.187 32.4527 137.279 31.8344 137.388 31.218C137.495 30.6032 137.62 29.9902 137.76 29.3806C137.899 28.771 138.055 28.1666 138.226 27.564C138.397 26.9631 138.584 26.3674 138.785 25.7751C138.988 25.1846 139.206 24.5975 139.438 24.0174C139.67 23.4373 139.918 22.8623 140.179 22.2961C140.441 21.7281 140.718 21.167 141.009 20.6145C141.3 20.0604 141.606 19.5149 141.925 18.9781C142.244 18.4395 142.578 17.9113 142.924 17.3918C143.271 16.8705 143.631 16.3597 144.003 15.8575C144.377 15.357 144.763 14.8652 145.162 14.3838C145.56 13.9024 145.97 13.4313 146.393 12.9707C146.817 12.51 147.252 12.0598 147.697 11.6234C148.144 11.1853 148.601 10.7593 149.068 10.3436C149.538 9.92976 150.016 9.528 150.506 9.13836C150.994 8.74871 151.493 8.37293 152.002 8.00927C152.509 7.6456 153.027 7.29579 153.554 6.9581C154.08 6.62042 154.615 6.29831 155.159 5.98833C155.703 5.68008 156.253 5.38396 156.813 5.10342C157.37 4.82288 157.937 4.55792 158.508 4.30509C159.081 4.05399 159.66 3.81847 160.245 3.59681C160.829 3.37515 161.419 3.16907 162.015 2.97685C162.609 2.78636 163.21 2.61145 163.814 2.4504C164.418 2.29108 165.026 2.14735 165.638 2.0192C166.251 1.88932 166.865 1.77676 167.482 1.68151C168.1 1.58454 168.72 1.50314 169.342 1.43907C169.963 1.375 170.587 1.32651 171.21 1.2936C171.835 1.2607 172.461 1.24512 173.086 1.24512Z" fill="#5AB15B"/>
<path fill-rule="evenodd" clip-rule="evenodd" d="M191.264 66.2094L208.283 76.0352L203.33 84.6073L167.752 64.0655C167.226 63.7815 166.71 63.4836 166.202 63.1702C162.669 60.9882 159.708 58.1966 157.322 54.7972C157.878 55.3029 158.456 55.7809 159.057 56.2311C159.66 56.6814 160.281 57.1004 160.924 57.4918C161.566 57.8814 162.224 58.2399 162.901 58.5672C163.579 58.8928 164.27 59.1872 164.974 59.4469C165.679 59.7084 166.394 59.9336 167.122 60.124C167.847 60.3163 168.582 60.4721 169.324 60.5933C170.066 60.7128 170.81 60.7977 171.56 60.8462C172.31 60.8964 173.062 60.9085 173.813 60.8843C174.563 60.8618 175.311 60.8029 176.057 60.7059C176.802 60.6107 177.542 60.4808 178.274 60.3128C179.007 60.1466 179.73 59.9457 180.442 59.7084C181.156 59.4729 181.857 59.2028 182.544 58.8997C183.23 58.5949 183.902 58.259 184.557 57.8901C185.211 57.523 185.849 57.123 186.465 56.6935C187.082 56.264 187.676 55.8068 188.247 55.3185C188.82 54.8319 189.368 54.3193 189.891 53.779C190.413 53.2404 190.911 52.6759 191.378 52.0888C191.847 51.5017 192.287 50.8939 192.696 50.2636C193.106 49.6349 193.486 48.9873 193.834 48.3206C194.182 47.6538 194.497 46.9733 194.777 46.2771C195.06 45.581 195.309 44.8709 195.522 44.1505C195.737 43.4319 195.915 42.7028 196.059 41.9651C196.203 41.2274 196.31 40.4845 196.383 39.7364C196.456 38.9882 196.49 38.2384 196.49 37.4868C196.49 36.7353 196.456 35.9854 196.383 35.239C196.31 34.4909 196.203 33.748 196.059 33.0103C195.915 32.2726 195.737 31.5435 195.522 30.8231C195.309 30.1027 195.06 29.3944 194.777 28.6983C194.497 28.0021 194.182 27.3198 193.834 26.6548C193.486 25.9881 193.106 25.3405 192.696 24.7101C192.287 24.0815 191.847 23.4719 191.378 22.8849C190.911 22.2978 190.413 21.735 189.891 21.1947C189.368 20.6544 188.82 20.1418 188.247 19.6552C187.676 19.1686 187.082 18.7096 186.465 18.2802C185.849 17.8507 185.211 17.4524 184.557 17.0836C183.902 16.7147 183.23 16.3787 182.544 16.0757C181.857 15.7726 181.156 15.5025 180.442 15.2652C179.73 15.0297 179.007 14.8271 178.274 14.6609C177.542 14.4946 176.802 14.363 176.057 14.2678C175.311 14.1725 174.563 14.1136 173.813 14.0894C173.062 14.0669 172.31 14.079 171.56 14.1275C170.81 14.176 170.066 14.2608 169.324 14.382C168.582 14.5015 167.847 14.6591 167.122 14.8496C166.394 15.0418 165.679 15.267 164.974 15.5267C164.27 15.7882 163.579 16.0809 162.901 16.4082C162.224 16.7337 161.566 17.0922 160.924 17.4836C160.281 17.8732 159.66 18.294 159.057 18.7443C158.456 19.1945 157.878 19.6725 157.322 20.1782C158.015 19.1893 158.764 18.2438 159.57 17.345C160.377 16.4463 161.234 15.5977 162.141 14.8011C163.049 14.0045 164.001 13.2668 164.999 12.5845C165.996 11.9022 167.03 11.284 168.102 10.7264C169.172 10.1687 170.273 9.67693 171.404 9.25265C172.535 8.82838 173.687 8.47164 174.859 8.18591C176.033 7.90017 177.219 7.6837 178.418 7.53997C179.618 7.39624 180.821 7.32523 182.028 7.32697C215.792 7.32697 217.81 57.6806 191.264 66.2094Z" fill="#F98A06"/>
<path d="M265.171 12.4789C265.171 12.8217 265.153 13.1646 265.12 13.5058C265.086 13.8469 265.036 14.1864 264.97 14.524C264.902 14.86 264.819 15.1925 264.719 15.5215C264.62 15.8505 264.504 16.1726 264.372 16.4896C264.241 16.8065 264.095 17.1164 263.932 17.4195C263.771 17.7225 263.595 18.0169 263.404 18.3027C263.214 18.5884 263.009 18.8638 262.791 19.1287C262.573 19.3937 262.343 19.6482 262.1 19.8907C261.858 20.1331 261.603 20.3634 261.338 20.5816C261.073 20.7998 260.798 21.0042 260.512 21.1947C260.227 21.3852 259.932 21.5618 259.629 21.7229C259.328 21.8856 259.018 22.0311 258.699 22.1627C258.382 22.2943 258.06 22.4104 257.731 22.5091C257.402 22.6095 257.07 22.6926 256.734 22.7602C256.396 22.826 256.058 22.8762 255.715 22.9108C255.374 22.9437 255.031 22.961 254.688 22.961C254.346 22.961 254.003 22.9437 253.662 22.9108C253.319 22.8762 252.981 22.826 252.643 22.7602C252.307 22.6926 251.975 22.6095 251.646 22.5091C251.317 22.4104 250.995 22.2943 250.678 22.1627C250.359 22.0311 250.049 21.8856 249.748 21.7229C249.445 21.5618 249.15 21.3852 248.865 21.1947C248.579 21.0042 248.304 20.7998 248.039 20.5816C247.774 20.3634 247.519 20.1331 247.277 19.8907C247.034 19.6482 246.804 19.3937 246.586 19.1287C246.368 18.8638 246.163 18.5884 245.973 18.3027C245.782 18.0169 245.606 17.7225 245.445 17.4195C245.282 17.1164 245.136 16.8065 245.005 16.4896C244.873 16.1726 244.757 15.8505 244.658 15.5215C244.558 15.1925 244.475 14.86 244.407 14.524C244.341 14.1864 244.291 13.8469 244.257 13.5058C244.224 13.1646 244.206 12.8217 244.206 12.4789C244.206 12.136 244.224 11.7931 244.257 11.4519C244.291 11.1091 244.341 10.7696 244.407 10.4337C244.475 10.096 244.558 9.7635 244.658 9.43621C244.757 9.10718 244.873 8.78508 245.005 8.46644C245.136 8.14953 245.282 7.83955 245.445 7.5365C245.606 7.23517 245.782 6.94078 245.973 6.65504C246.163 6.36931 246.368 6.09396 246.586 5.82901C246.804 5.56405 247.034 5.30949 247.277 5.06704C247.519 4.82287 247.774 4.59428 248.039 4.37608C248.304 4.15788 248.579 3.95354 248.865 3.76305C249.15 3.57256 249.445 3.39592 249.748 3.23487C250.049 3.07209 250.359 2.92489 250.678 2.79501C250.995 2.6634 251.317 2.54737 251.646 2.44693C251.975 2.34822 252.307 2.2651 252.643 2.19756C252.981 2.13002 253.319 2.0798 253.662 2.0469C254.003 2.01227 254.346 1.99668 254.688 1.99668C255.031 1.99668 255.374 2.01227 255.715 2.0469C256.058 2.0798 256.396 2.13002 256.734 2.19756C257.07 2.2651 257.402 2.34822 257.731 2.44693C258.06 2.54737 258.382 2.6634 258.699 2.79501C259.018 2.92489 259.328 3.07209 259.629 3.23487C259.932 3.39592 260.227 3.57256 260.512 3.76305C260.798 3.95354 261.073 4.15788 261.338 4.37608C261.603 4.59428 261.858 4.82287 262.1 5.06704C262.343 5.30949 262.573 5.56405 262.791 5.82901C263.009 6.09396 263.214 6.36931 263.404 6.65504C263.595 6.94078 263.771 7.23517 263.932 7.5365C264.095 7.83955 264.241 8.14953 264.372 8.46644C264.504 8.78508 264.62 9.10718 264.719 9.43621C264.819 9.7635 264.902 10.096 264.97 10.4337C265.036 10.7696 265.086 11.1091 265.12 11.4519C265.153 11.7931 265.171 12.136 265.171 12.4789Z" fill="#F98A06"/>
<path d="M255.066 13.8088H253.502V18.0395H250.612V6.05413H255.329C256.02 6.05413 256.645 6.13206 257.206 6.28965C257.766 6.4455 258.244 6.67582 258.639 6.98061C259.033 7.28539 259.336 7.66291 259.548 8.11143C259.759 8.56168 259.865 9.08293 259.865 9.67692C259.865 10.1376 259.814 10.548 259.716 10.9064C259.617 11.2666 259.477 11.5818 259.293 11.8537C259.108 12.1256 258.888 12.3611 258.63 12.562C258.372 12.7611 258.086 12.936 257.774 13.0832L260.277 17.9165V18.0395H257.18L255.066 13.8088ZM253.502 11.5784H255.329C255.878 11.5784 256.29 11.4329 256.567 11.1454C256.844 10.858 256.983 10.4562 256.983 9.94014C256.983 9.42408 256.843 9.01886 256.564 8.7262C256.283 8.4318 255.873 8.2846 255.329 8.2846H253.502V11.5784Z" fill="#0D203B"/>
<path d="M254.689 24.9577C251.355 24.9577 248.222 23.6589 245.865 21.302C243.508 18.9452 242.21 15.8125 242.21 12.4789C242.21 9.14528 243.508 6.01085 245.865 3.65396C248.222 1.29707 251.355 0 254.689 0C258.022 0 261.155 1.29707 263.512 3.65396C265.869 6.01085 267.167 9.14528 267.167 12.4789C267.167 15.8125 265.869 18.9452 263.512 21.302C261.155 23.6589 258.022 24.9577 254.689 24.9577ZM254.689 2.21489C249.029 2.21489 244.425 6.81956 244.425 12.4789C244.425 18.1382 249.029 22.7429 254.689 22.7429C260.348 22.7429 264.952 18.1382 264.952 12.4789C264.952 6.81956 260.348 2.21489 254.689 2.21489Z" fill="#0D203B"/>
<path d="M209.483 71.0657L207.357 67.7269C207.291 67.7373 207.192 67.7408 207.059 67.7408H205.722V71.0657H204.51V62.0261H206.921C207.539 62.0261 208.088 62.1352 208.569 62.3516C209.054 62.5698 209.432 62.8885 209.705 63.3076C209.982 63.7284 210.121 64.234 210.121 64.8246C210.121 65.3839 209.998 65.8965 209.754 66.3623C209.508 66.8299 209.132 67.1849 208.625 67.4291L210.897 71.0657H209.483ZM207.031 66.5632C207.682 66.5632 208.15 66.3935 208.438 66.0506C208.728 65.7095 208.874 65.3198 208.874 64.88C208.874 64.6133 208.812 64.3501 208.687 64.0903C208.566 63.8323 208.375 63.6175 208.112 63.4461C207.852 63.2764 207.523 63.1898 207.121 63.1898H205.722V66.5632H207.031Z" fill="white"/>
<path d="M214.892 70.1929C215.325 70.1929 215.748 70.044 216.16 69.7427L216.693 70.6016C216.419 70.7869 216.122 70.9324 215.8 71.038C215.481 71.1385 215.171 71.1904 214.871 71.1904C214.293 71.1904 213.791 71.0726 213.361 70.8371C212.932 70.5982 212.599 70.2691 212.364 69.8535C212.132 69.4379 212.017 68.9669 212.017 68.4404C212.017 67.933 212.144 67.4689 212.398 67.0481C212.651 66.629 213.001 66.2965 213.444 66.0506C213.888 65.8013 214.369 65.6766 214.892 65.6766C215.571 65.6766 216.135 65.8757 216.589 66.2723C217.041 66.6706 217.351 67.2213 217.517 67.9278L213.417 69.3686C213.569 69.6232 213.772 69.8241 214.026 69.9713C214.279 70.1202 214.568 70.1929 214.892 70.1929ZM214.809 66.6048C214.333 66.6048 213.94 66.771 213.631 67.1035C213.321 67.436 213.167 67.862 213.167 68.3781C213.167 68.5028 213.171 68.598 213.181 68.6621L216.194 67.5538C216.07 67.268 215.891 67.0394 215.661 66.868C215.434 66.6931 215.15 66.6048 214.809 66.6048Z" fill="white"/>
<path d="M224.28 65.8913V71.0657H223.116V70.2137C222.936 70.4596 222.669 70.683 222.319 70.8856C221.968 71.0882 221.571 71.1904 221.128 71.1904C220.638 71.1904 220.194 71.083 219.798 70.8718C219.399 70.6605 219.086 70.3505 218.856 69.9436C218.629 69.5331 218.516 69.0431 218.516 68.4751C218.516 67.9122 218.634 67.4204 218.87 66.9996C219.109 66.5753 219.431 66.2498 219.832 66.0229C220.238 65.7926 220.688 65.6766 221.183 65.6766C221.621 65.6766 222.002 65.7735 222.326 65.9675C222.653 66.158 222.917 66.4074 223.116 66.7156L223.206 65.8913H224.28ZM221.446 70.2276C221.871 70.2276 222.233 70.1098 222.534 69.8743C222.839 69.6353 223.033 69.3115 223.116 68.9045V67.8793C223.019 67.5105 222.811 67.2126 222.492 66.9858C222.177 66.7554 221.815 66.6394 221.405 66.6394C221.095 66.6394 220.809 66.7156 220.546 66.868C220.286 67.0169 220.078 67.2265 219.922 67.4984C219.77 67.7668 219.694 68.0716 219.694 68.4127C219.694 68.7504 219.772 69.0569 219.929 69.334C220.085 69.6076 220.298 69.8241 220.567 69.9851C220.833 70.1479 221.128 70.2276 221.446 70.2276Z" fill="white"/>
<path d="M230.508 70.5808C230.272 70.7713 229.991 70.9203 229.669 71.0311C229.351 71.1367 229.025 71.1904 228.693 71.1904C228.133 71.1904 227.64 71.0796 227.21 70.8579C226.781 70.6328 226.445 70.3142 226.206 69.902C225.97 69.4864 225.853 69.0084 225.853 68.4681C225.853 67.933 225.977 67.4603 226.227 67.0481C226.48 66.6325 226.815 66.3139 227.231 66.0922C227.647 65.8671 228.097 65.7528 228.582 65.7528C229.372 65.7528 230.024 65.971 230.542 66.4039L229.953 67.1659C229.787 67.0412 229.595 66.9355 229.378 66.8472C229.16 66.7606 228.928 66.7156 228.679 66.7156C228.369 66.7156 228.087 66.7953 227.834 66.9511C227.579 67.1035 227.378 67.3148 227.231 67.5815C227.087 67.8447 227.016 68.1408 227.016 68.4681C227.016 68.792 227.093 69.0881 227.245 69.3548C227.401 69.618 227.612 69.831 227.875 69.9921C228.142 70.1496 228.447 70.2276 228.79 70.2276C229.214 70.2276 229.586 70.1029 229.905 69.8535L230.508 70.5808Z" fill="white"/>
<path d="M235.216 65.6904C235.701 65.6904 236.099 65.8342 236.414 66.1199C236.733 66.4074 236.896 66.7814 236.906 67.2421V71.0657H235.729V67.6369C235.71 67.346 235.621 67.1174 235.465 66.9511C235.308 66.7849 235.071 66.6983 234.752 66.6879C234.451 66.6879 234.18 66.771 233.941 66.9373C233.701 67.1035 233.512 67.3373 233.373 67.6369C233.235 67.9382 233.166 68.2724 233.166 68.6413V71.0657H232.002V61.3749H233.138V66.8264C233.332 66.4853 233.609 66.2099 233.969 66.0021C234.333 65.7943 234.748 65.6904 235.216 65.6904Z" fill="white"/>
<path d="M246.077 65.6904C246.562 65.6904 246.96 65.8342 247.275 66.1199C247.594 66.4074 247.757 66.7814 247.767 67.2421V71.0657H246.589V67.6369C246.57 67.346 246.482 67.1174 246.326 66.9511C246.169 66.7849 245.931 66.6983 245.613 66.6879C245.155 66.6879 244.776 66.8732 244.477 67.2421C244.175 67.6075 244.026 68.0733 244.026 68.6413V71.0657H242.863V65.8913H243.916L243.992 66.8888C244.172 66.5147 244.444 66.2221 244.809 66.0091C245.178 65.7978 245.601 65.6904 246.077 65.6904Z" fill="white"/>
<path d="M252.198 70.1929C252.631 70.1929 253.054 70.044 253.466 69.7427L253.999 70.6016C253.726 70.7869 253.428 70.9324 253.106 71.038C252.787 71.1385 252.477 71.1904 252.178 71.1904C251.599 71.1904 251.097 71.0726 250.668 70.8371C250.238 70.5982 249.906 70.2691 249.67 69.8535C249.438 69.4379 249.324 68.9669 249.324 68.4404C249.324 67.933 249.45 67.4689 249.705 67.0481C249.958 66.629 250.307 66.2965 250.751 66.0506C251.194 65.8013 251.675 65.6766 252.198 65.6766C252.877 65.6766 253.442 65.8757 253.896 66.2723C254.348 66.6706 254.657 67.2213 254.824 67.9278L250.723 69.3686C250.875 69.6232 251.078 69.8241 251.333 69.9713C251.585 70.1202 251.875 70.1929 252.198 70.1929ZM252.115 66.6048C251.639 66.6048 251.246 66.771 250.938 67.1035C250.628 67.436 250.474 67.862 250.474 68.3781C250.474 68.5028 250.477 68.598 250.487 68.6621L253.501 67.5538C253.376 67.268 253.198 67.0394 252.967 66.868C252.74 66.6931 252.456 66.6048 252.115 66.6048Z" fill="white"/>
<path d="M263.463 65.8913L261.073 71.3774L259.411 67.8308L257.901 71.3774L255.497 65.8913H256.647L258.039 69.0292L259.002 66.7779L258.587 65.8913H259.598L260.997 69.1054L262.313 65.8913H263.463Z" fill="white"/>
<path d="M271.872 65.6904C272.357 65.6904 272.756 65.8342 273.071 66.1199C273.389 66.4074 273.552 66.7814 273.563 67.2421V71.0657H272.385V67.6369C272.366 67.346 272.278 67.1174 272.122 66.9511C271.964 66.7849 271.727 66.6983 271.408 66.6879C271.107 66.6879 270.837 66.771 270.598 66.9373C270.357 67.1035 270.168 67.3373 270.03 67.6369C269.891 67.9382 269.822 68.2724 269.822 68.6413V71.0657H268.658V61.3749H269.794V66.8264C269.988 66.4853 270.265 66.2099 270.626 66.0021C270.989 65.7943 271.405 65.6904 271.872 65.6904Z" fill="white"/>
<path d="M277.994 70.1929C278.427 70.1929 278.85 70.044 279.262 69.7427L279.795 70.6016C279.522 70.7869 279.224 70.9324 278.902 71.038C278.583 71.1385 278.273 71.1904 277.973 71.1904C277.395 71.1904 276.893 71.0726 276.463 70.8371C276.034 70.5982 275.701 70.2691 275.466 69.8535C275.234 69.4379 275.119 68.9669 275.119 68.4404C275.119 67.933 275.246 67.4689 275.5 67.0481C275.753 66.629 276.103 66.2965 276.546 66.0506C276.99 65.8013 277.471 65.6766 277.994 65.6766C278.673 65.6766 279.238 65.8757 279.691 66.2723C280.143 66.6706 280.453 67.2213 280.619 67.9278L276.519 69.3686C276.671 69.6232 276.874 69.8241 277.128 69.9713C277.381 70.1202 277.67 70.1929 277.994 70.1929ZM277.911 66.6048C277.435 66.6048 277.042 66.771 276.733 67.1035C276.423 67.436 276.269 67.862 276.269 68.3781C276.269 68.5028 276.273 68.598 276.283 68.6621L279.296 67.5538C279.172 67.268 278.993 67.0394 278.763 66.868C278.536 66.6931 278.252 66.6048 277.911 66.6048Z" fill="white"/>
<path d="M283.232 65.8913V71.0657H282.069V65.8913H283.232ZM281.986 64.021C281.986 63.8409 282.055 63.6885 282.193 63.5639C282.335 63.4357 282.5 63.3699 282.685 63.3699C282.869 63.3699 283.028 63.4357 283.163 63.5639C283.302 63.6885 283.371 63.8409 283.371 64.021C283.371 64.2063 283.302 64.3605 283.163 64.4851C283.028 64.6098 282.869 64.6722 282.685 64.6722C282.5 64.6722 282.335 64.6098 282.193 64.4851C282.055 64.3605 281.986 64.2063 281.986 64.021Z" fill="white"/>
<path d="M290.721 65.8913V71.1004C290.721 71.5749 290.598 72.0043 290.354 72.3888C290.113 72.7715 289.769 73.0763 289.322 73.3031C288.878 73.5282 288.355 73.6425 287.756 73.6425C287.23 73.6425 286.776 73.5542 286.399 73.3793C286.019 73.2027 285.638 72.9446 285.256 72.6035L285.941 71.8C286.227 72.0667 286.511 72.271 286.793 72.4095C287.079 72.5481 287.393 72.6174 287.736 72.6174C288.307 72.6174 288.75 72.4788 289.065 72.2017C289.379 71.9281 289.538 71.5593 289.543 71.0934L289.557 70.1167C289.367 70.4406 289.086 70.7021 288.712 70.8995C288.342 71.0934 287.916 71.1904 287.431 71.1904C286.954 71.1904 286.516 71.0692 286.115 70.8302C285.716 70.586 285.398 70.2553 285.159 69.8397C284.923 69.424 284.805 68.9634 284.805 68.4543C284.805 67.9278 284.927 67.4551 285.173 67.0342C285.422 66.6152 285.754 66.2844 286.17 66.0437C286.586 65.7995 287.031 65.6766 287.507 65.6766C287.95 65.6766 288.359 65.7649 288.733 65.9398C289.107 66.1164 289.386 66.3398 289.571 66.6117L289.661 65.8913H290.721ZM287.77 70.2276C288.213 70.2276 288.596 70.1081 288.92 69.8674C289.242 69.6232 289.455 69.3063 289.557 68.9184V67.8932C289.441 67.5157 289.22 67.2126 288.892 66.9858C288.568 66.7554 288.194 66.6394 287.77 66.6394C287.261 66.6394 286.837 66.8057 286.496 67.1382C286.153 67.4706 285.983 67.8967 285.983 68.4127C285.983 68.7504 286.061 69.0569 286.219 69.334C286.374 69.6076 286.593 69.8241 286.87 69.9851C287.147 70.1479 287.446 70.2276 287.77 70.2276Z" fill="white"/>
<path d="M295.956 65.6904C296.441 65.6904 296.839 65.8342 297.154 66.1199C297.473 66.4074 297.636 66.7814 297.646 67.2421V71.0657H296.469V67.6369C296.45 67.346 296.361 67.1174 296.205 66.9511C296.048 66.7849 295.811 66.6983 295.492 66.6879C295.191 66.6879 294.92 66.771 294.681 66.9373C294.441 67.1035 294.252 67.3373 294.113 67.6369C293.975 67.9382 293.906 68.2724 293.906 68.6413V71.0657H292.742V61.3749H293.878V66.8264C294.072 66.4853 294.349 66.2099 294.709 66.0021C295.073 65.7943 295.488 65.6904 295.956 65.6904Z" fill="white"/>
<path d="M301.33 63.6124V65.9052H302.743V66.8264H301.33V71.0657H300.152V66.8264H299.203V65.9052H300.152V63.6124H301.33Z" fill="white"/>
<path d="M305.614 71.1765C305.23 71.1765 304.866 71.109 304.52 70.9757C304.177 70.8423 303.898 70.6484 303.682 70.3938L304.18 69.715C304.388 69.9141 304.605 70.0682 304.831 70.1791C305.062 70.2864 305.29 70.3384 305.517 70.3384C305.794 70.3384 306.018 70.2864 306.189 70.1791C306.364 70.0682 306.452 69.902 306.452 69.6803C306.452 69.5054 306.397 69.3652 306.286 69.2578C306.179 69.147 306.057 69.0673 305.919 69.0153C305.784 68.9651 305.554 68.8889 305.226 68.7868C304.343 68.5062 303.903 68.0023 303.903 67.2767C303.903 66.8438 304.062 66.4732 304.381 66.1684C304.703 65.8601 305.153 65.7043 305.732 65.7043C306.096 65.7043 306.419 65.751 306.702 65.8428C306.987 65.9311 307.251 66.0766 307.491 66.2792L307.027 66.9927C306.892 66.8507 306.724 66.7364 306.522 66.6533C306.317 66.5701 306.123 66.5251 305.94 66.5147C305.708 66.5147 305.51 66.5736 305.344 66.6879C305.178 66.7987 305.095 66.9494 305.095 67.1381C305.095 67.3009 305.147 67.4343 305.254 67.5399C305.365 67.6421 305.477 67.7165 305.593 67.7616C305.708 67.8083 305.936 67.8845 306.279 67.9902C306.703 68.1339 307.034 68.3192 307.27 68.5443C307.509 68.766 307.63 69.069 307.63 69.4517C307.63 69.9505 307.453 70.3644 307.103 70.6917C306.752 71.0155 306.255 71.1765 305.614 71.1765Z" fill="white"/>
<path d="M60.7753 57.0965C60.7753 57.3979 60.8342 57.6022 60.9554 57.713C61.0801 57.8239 61.3468 57.9191 61.7589 57.997L63.269 58.3295V59.1469H49.9139V58.3295L51.4309 57.997C51.8413 57.9191 52.1063 57.8239 52.2275 57.713C52.3522 57.6022 52.4145 57.3979 52.4145 57.0965V31.6124H51.4724C49.8048 31.6124 48.5146 31.8877 47.6003 32.4367C46.6859 32.9822 45.988 33.6904 45.5084 34.5632C45.0321 35.436 44.4381 36.8283 43.7281 38.7402H42.8276V30.4694H70.3622V38.7402H69.4617C68.7499 36.8283 68.1542 35.436 67.6745 34.5632C67.1983 33.6904 66.5004 32.9822 65.5826 32.4367C64.6683 31.8877 63.3798 31.6124 61.7174 31.6124H60.7753V57.0965Z" fill="#F98A06"/>
<path d="M88.6282 58.3295L90.3946 58.1633C90.7721 58.1079 90.9626 57.9589 90.9626 57.713C90.9626 57.5745 90.9228 57.4117 90.8449 57.2212L88.1364 51.2364H78.6327L76.1736 57.2212C76.0905 57.4117 76.0489 57.5745 76.0489 57.713C76.0489 57.9589 76.2394 58.1079 76.6239 58.1633L78.3902 58.3295V59.1469H72.156V58.3295L73.673 58.1633C74.0003 58.1356 74.2306 58.0559 74.3657 57.9208C74.5042 57.7823 74.6566 57.5364 74.8229 57.1797L86.1692 30.0122H87.4853L99.4897 57.1797C99.6507 57.5364 99.7979 57.7823 99.933 57.9208C100.072 58.0559 100.304 58.1356 100.633 58.1633L102.15 58.3295V59.1469H88.6282V58.3295ZM87.6031 50.0103L83.1837 40.2156L79.1245 50.0103H87.6031Z" fill="#F98A06"/>
<path d="M128.286 32.3951C128.425 32.2011 128.494 32.0488 128.494 31.9379C128.494 31.8046 128.439 31.6886 128.328 31.5916C128.22 31.4946 128.072 31.4357 127.878 31.4115L126.077 31.2452V30.4694H133.287V31.2868L131.729 31.4115C131.267 31.4357 130.932 31.5154 130.725 31.6539C130.52 31.7925 130.255 32.0522 129.928 32.4297L122.308 41.8573L132.629 57.1797C132.879 57.5364 133.083 57.7823 133.246 57.9208C133.407 58.0559 133.641 58.1356 133.946 58.1633L135.58 58.3295V59.1469H121.366V58.3295L123.001 58.1633C123.356 58.1356 123.534 58.0005 123.534 57.7546C123.534 57.5381 123.453 57.3321 123.292 57.1381L116.732 47.4265L109.071 57.2212C108.936 57.4117 108.87 57.5606 108.87 57.6715C108.87 57.81 108.922 57.9278 109.029 58.0248C109.14 58.1183 109.289 58.1771 109.48 58.2049L111.288 58.3711V59.1469H104.077V58.3295L105.628 58.2049C106.094 58.1771 106.442 58.0836 106.674 57.9208C106.905 57.7546 107.159 57.5087 107.436 57.1797L116.039 46.3667L106.653 32.4297C106.408 32.0799 106.203 31.834 106.037 31.6955C105.874 31.5569 105.644 31.4738 105.344 31.4461L103.703 31.2868V30.4694H117.924V31.2868L116.282 31.4461C115.925 31.4738 115.749 31.6124 115.749 31.8617C115.749 32.0522 115.832 32.2548 115.998 32.4713L121.567 40.7905L128.286 32.3951Z" fill="#F98A06"/>
<path d="M244.021 57.0526C244.432 56.9747 244.697 56.8794 244.818 56.7686C244.943 56.6578 245.005 56.4534 245.005 56.1521V31.5892C245.005 31.2896 244.943 31.087 244.818 30.9796C244.697 30.8688 244.432 30.7718 244.021 30.6887L242.511 30.3631V29.5388H267.732V37.5256H266.707C266.134 35.7523 265.594 34.4154 265.086 33.5149C264.582 32.6144 263.881 31.9338 262.98 31.4715C262.08 31.0056 260.809 30.7718 259.171 30.7718H253.359V42.9286H263.922V44.1616H253.359V56.9764H259.586C261.193 56.9764 262.461 56.7323 263.389 56.2422C264.317 55.7486 265.046 55.0369 265.578 54.1087C266.113 53.1805 266.667 51.8297 267.24 50.0564H268.307V58.2025H242.511V57.3851L244.021 57.0526Z" fill="#5AB15B"/>
<defs>
<linearGradient id="paint0_linear_18_601" x1="10.0876" y1="14.9485" x2="30.5548" y2="64.8144" gradientUnits="userSpaceOnUse">
<stop stop-color="#FE8903"/>
<stop offset="0.0625" stop-color="#FE8903"/>
<stop offset="0.09375" stop-color="#FE8903"/>
<stop offset="0.0976562" stop-color="#FD8904"/>
<stop offset="0.101563" stop-color="#FC8A04"/>
<stop offset="0.105469" stop-color="#FB8A05"/>
<stop offset="0.109375" stop-color="#FA8A05"/>
<stop offset="0.113281" stop-color="#F98A06"/>
<stop offset="0.117188" stop-color="#F88A06"/>
<stop offset="0.121094" stop-color="#F78B07"/>
<stop offset="0.125" stop-color="#F68B07"/>
<stop offset="0.128906" stop-color="#F68B08"/>
<stop offset="0.132812" stop-color="#F58B08"/>
<stop offset="0.136719" stop-color="#F48B08"/>
<stop offset="0.140625" stop-color="#F38C09"/>
<stop offset="0.144531" stop-color="#F28C09"/>
<stop offset="0.148438" stop-color="#F18C0A"/>
<stop offset="0.152344" stop-color="#F08C0A"/>
<stop offset="0.15625" stop-color="#F08C0B"/>
<stop offset="0.160156" stop-color="#EF8D0B"/>
<stop offset="0.164063" stop-color="#EE8D0C"/>
<stop offset="0.167969" stop-color="#ED8D0C"/>
<stop offset="0.171875" stop-color="#EC8D0D"/>
<stop offset="0.175781" stop-color="#EB8E0D"/>
<stop offset="0.179688" stop-color="#EA8E0E"/>
<stop offset="0.183594" stop-color="#EA8E0E"/>
<stop offset="0.1875" stop-color="#E98E0E"/>
<stop offset="0.191406" stop-color="#E88E0F"/>
<stop offset="0.195312" stop-color="#E78F0F"/>
<stop offset="0.199219" stop-color="#E68F10"/>
<stop offset="0.203125" stop-color="#E58F10"/>
<stop offset="0.207031" stop-color="#E48F11"/>
<stop offset="0.210938" stop-color="#E38F11"/>
<stop offset="0.214844" stop-color="#E39012"/>
<stop offset="0.21875" stop-color="#E29012"/>
<stop offset="0.222656" stop-color="#E19013"/>
<stop offset="0.226562" stop-color="#E09013"/>
<stop offset="0.230469" stop-color="#DF9014"/>
<stop offset="0.234375" stop-color="#DE9114"/>
<stop offset="0.238281" stop-color="#DD9115"/>
<stop offset="0.242188" stop-color="#DD9115"/>
<stop offset="0.246094" stop-color="#DC9115"/>
<stop offset="0.25" stop-color="#DB9216"/>
<stop offset="0.253906" stop-color="#DA9216"/>
<stop offset="0.257812" stop-color="#D99217"/>
<stop offset="0.261719" stop-color="#D89217"/>
<stop offset="0.265625" stop-color="#D79218"/>
<stop offset="0.269531" stop-color="#D79318"/>
<stop offset="0.273438" stop-color="#D69319"/>
<stop offset="0.277344" stop-color="#D59319"/>
<stop offset="0.28125" stop-color="#D4931A"/>
<stop offset="0.285156" stop-color="#D3931A"/>
<stop offset="0.289062" stop-color="#D2941B"/>
<stop offset="0.292969" stop-color="#D1941B"/>
<stop offset="0.296875" stop-color="#D0941B"/>
<stop offset="0.300781" stop-color="#D0941C"/>
<stop offset="0.304688" stop-color="#CF941C"/>
<stop offset="0.308594" stop-color="#CE951D"/>
<stop offset="0.3125" stop-color="#CD951D"/>
<stop offset="0.316406" stop-color="#CC951E"/>
<stop offset="0.320312" stop-color="#CB951E"/>
<stop offset="0.324219" stop-color="#CA961F"/>
<stop offset="0.328125" stop-color="#CA961F"/>
<stop offset="0.332031" stop-color="#C99620"/>
<stop offset="0.335938" stop-color="#C89620"/>
<stop offset="0.339844" stop-color="#C79621"/>
<stop offset="0.34375" stop-color="#C69721"/>
<stop offset="0.347656" stop-color="#C59721"/>
<stop offset="0.351563" stop-color="#C49722"/>
<stop offset="0.355469" stop-color="#C49722"/>
<stop offset="0.359375" stop-color="#C39723"/>
<stop offset="0.363281" stop-color="#C29823"/>
<stop offset="0.367188" stop-color="#C19824"/>
<stop offset="0.371094" stop-color="#C09824"/>
<stop offset="0.375" stop-color="#BF9825"/>
<stop offset="0.378906" stop-color="#BE9825"/>
<stop offset="0.382813" stop-color="#BE9926"/>
<stop offset="0.386719" stop-color="#BD9926"/>
<stop offset="0.390625" stop-color="#BC9927"/>
<stop offset="0.394531" stop-color="#BB9927"/>
<stop offset="0.398438" stop-color="#BA9A28"/>
<stop offset="0.402344" stop-color="#B99A28"/>
<stop offset="0.40625" stop-color="#B89A28"/>
<stop offset="0.410156" stop-color="#B79A29"/>
<stop offset="0.414062" stop-color="#B79A29"/>
<stop offset="0.417969" stop-color="#B69B2A"/>
<stop offset="0.421875" stop-color="#B59B2A"/>
<stop offset="0.425781" stop-color="#B49B2B"/>
<stop offset="0.429688" stop-color="#B39B2B"/>
<stop offset="0.433594" stop-color="#B29B2C"/>
<stop offset="0.4375" stop-color="#B19C2C"/>
<stop offset="0.441406" stop-color="#B19C2D"/>
<stop offset="0.445312" stop-color="#B09C2D"/>
<stop offset="0.449219" stop-color="#AF9C2E"/>
<stop offset="0.453125" stop-color="#AE9C2E"/>
<stop offset="0.457031" stop-color="#AD9D2E"/>
<stop offset="0.460938" stop-color="#AC9D2F"/>
<stop offset="0.464844" stop-color="#AB9D2F"/>
<stop offset="0.46875" stop-color="#AB9D30"/>
<stop offset="0.472656" stop-color="#AA9E30"/>
<stop offset="0.476563" stop-color="#A99E31"/>
<stop offset="0.480469" stop-color="#A89E31"/>
<stop offset="0.484375" stop-color="#A79E32"/>
<stop offset="0.488281" stop-color="#A69E32"/>
<stop offset="0.492188" stop-color="#A59F33"/>
<stop offset="0.496094" stop-color="#A49F33"/>
<stop offset="0.5" stop-color="#A49F34"/>
<stop offset="0.503906" stop-color="#A39F34"/>
<stop offset="0.507812" stop-color="#A29F34"/>
<stop offset="0.511719" stop-color="#A1A035"/>
<stop offset="0.515625" stop-color="#A0A035"/>
<stop offset="0.519531" stop-color="#9FA036"/>
<stop offset="0.523438" stop-color="#9EA036"/>
<stop offset="0.527344" stop-color="#9EA037"/>
<stop offset="0.53125" stop-color="#9DA137"/>
<stop offset="0.535156" stop-color="#9CA138"/>
<stop offset="0.539063" stop-color="#9BA138"/>
<stop offset="0.542969" stop-color="#9AA139"/>
<stop offset="0.546875" stop-color="#99A239"/>
<stop offset="0.550781" stop-color="#98A23A"/>
<stop offset="0.554688" stop-color="#98A23A"/>
<stop offset="0.558594" stop-color="#97A23A"/>
<stop offset="0.5625" stop-color="#96A23B"/>
<stop offset="0.566406" stop-color="#95A33B"/>
<stop offset="0.570312" stop-color="#94A33C"/>
<stop offset="0.574219" stop-color="#93A33C"/>
<stop offset="0.578125" stop-color="#92A33D"/>
<stop offset="0.582031" stop-color="#91A33D"/>
<stop offset="0.585938" stop-color="#91A43E"/>
<stop offset="0.589844" stop-color="#90A43E"/>
<stop offset="0.59375" stop-color="#8FA43F"/>
<stop offset="0.597656" stop-color="#8EA43F"/>
<stop offset="0.601562" stop-color="#8DA440"/>
<stop offset="0.605469" stop-color="#8CA540"/>
<stop offset="0.609375" stop-color="#8BA541"/>
<stop offset="0.613281" stop-color="#8BA541"/>
<stop offset="0.617188" stop-color="#8AA541"/>
<stop offset="0.621094" stop-color="#89A642"/>
<stop offset="0.625" stop-color="#88A642"/>
<stop offset="0.628906" stop-color="#87A643"/>
<stop offset="0.632812" stop-color="#86A643"/>
<stop offset="0.636719" stop-color="#85A644"/>
<stop offset="0.640625" stop-color="#85A744"/>
<stop offset="0.644531" stop-color="#84A745"/>
<stop offset="0.648438" stop-color="#83A745"/>
<stop offset="0.652344" stop-color="#82A746"/>
<stop offset="0.65625" stop-color="#81A746"/>
<stop offset="0.660156" stop-color="#80A847"/>
<stop offset="0.664062" stop-color="#7FA847"/>
<stop offset="0.667969" stop-color="#7FA847"/>
<stop offset="0.671875" stop-color="#7EA848"/>
<stop offset="0.675781" stop-color="#7DA848"/>
<stop offset="0.679688" stop-color="#7CA949"/>
<stop offset="0.683594" stop-color="#7BA949"/>
<stop offset="0.6875" stop-color="#7AA94A"/>
<stop offset="0.691406" stop-color="#79A94A"/>
<stop offset="0.695313" stop-color="#78AA4B"/>
<stop offset="0.699219" stop-color="#78AA4B"/>
<stop offset="0.703125" stop-color="#77AA4C"/>
<stop offset="0.707031" stop-color="#76AA4C"/>
<stop offset="0.710938" stop-color="#75AA4D"/>
<stop offset="0.714844" stop-color="#74AB4D"/>
<stop offset="0.71875" stop-color="#73AB4D"/>
<stop offset="0.722656" stop-color="#72AB4E"/>
<stop offset="0.726562" stop-color="#72AB4E"/>
<stop offset="0.730469" stop-color="#71AB4F"/>
<stop offset="0.734375" stop-color="#70AC4F"/>
<stop offset="0.738281" stop-color="#6FAC50"/>
<stop offset="0.742188" stop-color="#6EAC50"/>
<stop offset="0.746094" stop-color="#6DAC51"/>
<stop offset="0.75" stop-color="#6CAC51"/>
<stop offset="0.753906" stop-color="#6CAD52"/>
<stop offset="0.757813" stop-color="#6BAD52"/>
<stop offset="0.761719" stop-color="#6AAD53"/>
<stop offset="0.765625" stop-color="#69AD53"/>
<stop offset="0.769531" stop-color="#68AE53"/>
<stop offset="0.773438" stop-color="#67AE54"/>
<stop offset="0.777344" stop-color="#66AE54"/>
<stop offset="0.78125" stop-color="#65AE55"/>
<stop offset="0.785156" stop-color="#65AE55"/>
<stop offset="0.789062" stop-color="#64AF56"/>
<stop offset="0.792969" stop-color="#63AF56"/>
<stop offset="0.796875" stop-color="#62AF57"/>
<stop offset="0.800781" stop-color="#61AF57"/>
<stop offset="0.804688" stop-color="#60AF58"/>
<stop offset="0.808594" stop-color="#5FB058"/>
<stop offset="0.8125" stop-color="#5FB059"/>
<stop offset="0.816406" stop-color="#5EB059"/>
<stop offset="0.820312" stop-color="#5DB05A"/>
<stop offset="0.824219" stop-color="#5CB05A"/>
<stop offset="0.828125" stop-color="#5BB15A"/>
<stop offset="0.832031" stop-color="#5BB15B"/>
<stop offset="0.835938" stop-color="#5AB15B"/>
<stop offset="0.84375" stop-color="#5AB15B"/>
<stop offset="0.875" stop-color="#5AB15B"/>
<stop offset="1" stop-color="#5AB15B"/>
</linearGradient>
<linearGradient id="paint1_linear_18_601" x1="281.29" y1="12.0681" x2="303.062" y2="65.1141" gradientUnits="userSpaceOnUse">
<stop stop-color="#FE8903"/>
<stop offset="0.0625" stop-color="#FE8903"/>
<stop offset="0.09375" stop-color="#FE8903"/>
<stop offset="0.0976563" stop-color="#FC8904"/>
<stop offset="0.101563" stop-color="#FC8A04"/>
<stop offset="0.105469" stop-color="#FB8A05"/>
<stop offset="0.109375" stop-color="#FA8A05"/>
<stop offset="0.113281" stop-color="#F98A06"/>
<stop offset="0.117188" stop-color="#F88A06"/>
<stop offset="0.121094" stop-color="#F78B07"/>
<stop offset="0.125" stop-color="#F68B07"/>
<stop offset="0.128906" stop-color="#F68B08"/>
<stop offset="0.132813" stop-color="#F58B08"/>
<stop offset="0.136719" stop-color="#F48B08"/>
<stop offset="0.140625" stop-color="#F38C09"/>
<stop offset="0.144531" stop-color="#F28C09"/>
<stop offset="0.148438" stop-color="#F18C0A"/>
<stop offset="0.152344" stop-color="#F08C0A"/>
<stop offset="0.15625" stop-color="#F08C0B"/>
<stop offset="0.160156" stop-color="#EF8D0B"/>
<stop offset="0.164063" stop-color="#EE8D0C"/>
<stop offset="0.167969" stop-color="#ED8D0C"/>
<stop offset="0.171875" stop-color="#EC8D0D"/>
<stop offset="0.175781" stop-color="#EB8E0D"/>
<stop offset="0.179688" stop-color="#EA8E0E"/>
<stop offset="0.183594" stop-color="#E98E0E"/>
<stop offset="0.1875" stop-color="#E98E0F"/>
<stop offset="0.191406" stop-color="#E88E0F"/>
<stop offset="0.195313" stop-color="#E78F0F"/>
<stop offset="0.199219" stop-color="#E68F10"/>
<stop offset="0.203125" stop-color="#E58F10"/>
<stop offset="0.207031" stop-color="#E48F11"/>
<stop offset="0.210938" stop-color="#E38F11"/>
<stop offset="0.214844" stop-color="#E39012"/>
<stop offset="0.21875" stop-color="#E29012"/>
<stop offset="0.222656" stop-color="#E19013"/>
<stop offset="0.226563" stop-color="#E09013"/>
<stop offset="0.230469" stop-color="#DF9014"/>
<stop offset="0.234375" stop-color="#DE9114"/>
<stop offset="0.238281" stop-color="#DD9115"/>
<stop offset="0.242188" stop-color="#DD9115"/>
<stop offset="0.246094" stop-color="#DC9115"/>
<stop offset="0.25" stop-color="#DB9216"/>
<stop offset="0.253906" stop-color="#DA9216"/>
<stop offset="0.257813" stop-color="#D99217"/>
<stop offset="0.261719" stop-color="#D89217"/>
<stop offset="0.265625" stop-color="#D79218"/>
<stop offset="0.269531" stop-color="#D69318"/>
<stop offset="0.273438" stop-color="#D69319"/>
<stop offset="0.277344" stop-color="#D59319"/>
<stop offset="0.28125" stop-color="#D4931A"/>
<stop offset="0.285156" stop-color="#D3931A"/>
<stop offset="0.289063" stop-color="#D2941B"/>
<stop offset="0.292969" stop-color="#D1941B"/>
<stop offset="0.296875" stop-color="#D0941C"/>
<stop offset="0.300781" stop-color="#D0941C"/>
<stop offset="0.304688" stop-color="#CF941C"/>
<stop offset="0.308594" stop-color="#CE951D"/>
<stop offset="0.3125" stop-color="#CD951D"/>
<stop offset="0.316406" stop-color="#CC951E"/>
<stop offset="0.320313" stop-color="#CB951E"/>
<stop offset="0.324219" stop-color="#CA961F"/>
<stop offset="0.328125" stop-color="#CA961F"/>
<stop offset="0.332031" stop-color="#C99620"/>
<stop offset="0.335938" stop-color="#C89620"/>
<stop offset="0.339844" stop-color="#C79621"/>
<stop offset="0.34375" stop-color="#C69721"/>
<stop offset="0.347656" stop-color="#C59722"/>
<stop offset="0.351563" stop-color="#C49722"/>
<stop offset="0.355469" stop-color="#C39722"/>
<stop offset="0.359375" stop-color="#C39723"/>
<stop offset="0.363281" stop-color="#C29823"/>
<stop offset="0.367188" stop-color="#C19824"/>
<stop offset="0.371094" stop-color="#C09824"/>
<stop offset="0.375" stop-color="#BF9825"/>
<stop offset="0.378906" stop-color="#BE9825"/>
<stop offset="0.382813" stop-color="#BD9926"/>
<stop offset="0.386719" stop-color="#BD9926"/>
<stop offset="0.390625" stop-color="#BC9927"/>
<stop offset="0.394531" stop-color="#BB9927"/>
<stop offset="0.398438" stop-color="#BA9A28"/>
<stop offset="0.402344" stop-color="#B99A28"/>
<stop offset="0.40625" stop-color="#B89A28"/>
<stop offset="0.410156" stop-color="#B79A29"/>
<stop offset="0.414062" stop-color="#B79A29"/>
<stop offset="0.417969" stop-color="#B69B2A"/>
<stop offset="0.421875" stop-color="#B59B2A"/>
<stop offset="0.425781" stop-color="#B49B2B"/>
<stop offset="0.429688" stop-color="#B39B2B"/>
<stop offset="0.433594" stop-color="#B29B2C"/>
<stop offset="0.4375" stop-color="#B19C2C"/>
<stop offset="0.441406" stop-color="#B09C2D"/>
<stop offset="0.445313" stop-color="#B09C2D"/>
<stop offset="0.449219" stop-color="#AF9C2E"/>
<stop offset="0.453125" stop-color="#AE9C2E"/>
<stop offset="0.457031" stop-color="#AD9D2F"/>
<stop offset="0.460938" stop-color="#AC9D2F"/>
<stop offset="0.464844" stop-color="#AB9D2F"/>
<stop offset="0.46875" stop-color="#AA9D30"/>
<stop offset="0.472656" stop-color="#AA9E30"/>
<stop offset="0.476563" stop-color="#A99E31"/>
<stop offset="0.480469" stop-color="#A89E31"/>
<stop offset="0.484375" stop-color="#A79E32"/>
<stop offset="0.488281" stop-color="#A69E32"/>
<stop offset="0.492188" stop-color="#A59F33"/>
<stop offset="0.496094" stop-color="#A49F33"/>
<stop offset="0.5" stop-color="#A39F34"/>
<stop offset="0.503906" stop-color="#A39F34"/>
<stop offset="0.507812" stop-color="#A29F35"/>
<stop offset="0.511719" stop-color="#A1A035"/>
<stop offset="0.515625" stop-color="#A0A035"/>
<stop offset="0.519531" stop-color="#9FA036"/>
<stop offset="0.523438" stop-color="#9EA036"/>
<stop offset="0.527344" stop-color="#9DA037"/>
<stop offset="0.53125" stop-color="#9DA137"/>
<stop offset="0.535156" stop-color="#9CA138"/>
<stop offset="0.539063" stop-color="#9BA138"/>
<stop offset="0.542969" stop-color="#9AA139"/>
<stop offset="0.546875" stop-color="#99A239"/>
<stop offset="0.550781" stop-color="#98A23A"/>
<stop offset="0.554688" stop-color="#97A23A"/>
<stop offset="0.558594" stop-color="#97A23B"/>
<stop offset="0.5625" stop-color="#96A23B"/>
<stop offset="0.566406" stop-color="#95A33B"/>
<stop offset="0.570313" stop-color="#94A33C"/>
<stop offset="0.574219" stop-color="#93A33C"/>
<stop offset="0.578125" stop-color="#92A33D"/>
<stop offset="0.582031" stop-color="#91A33D"/>
<stop offset="0.585938" stop-color="#90A43E"/>
<stop offset="0.589844" stop-color="#90A43E"/>
<stop offset="0.59375" stop-color="#8FA43F"/>
<stop offset="0.597656" stop-color="#8EA43F"/>
<stop offset="0.601563" stop-color="#8DA540"/>
<stop offset="0.605469" stop-color="#8CA540"/>
<stop offset="0.609375" stop-color="#8BA541"/>
<stop offset="0.613281" stop-color="#8AA541"/>
<stop offset="0.617188" stop-color="#8AA542"/>
<stop offset="0.621094" stop-color="#89A642"/>
<stop offset="0.625" stop-color="#88A642"/>
<stop offset="0.628906" stop-color="#87A643"/>
<stop offset="0.632813" stop-color="#86A643"/>
<stop offset="0.636719" stop-color="#85A644"/>
<stop offset="0.640625" stop-color="#84A744"/>
<stop offset="0.644531" stop-color="#84A745"/>
<stop offset="0.648438" stop-color="#83A745"/>
<stop offset="0.652344" stop-color="#82A746"/>
<stop offset="0.65625" stop-color="#81A746"/>
<stop offset="0.660156" stop-color="#80A847"/>
<stop offset="0.664063" stop-color="#7FA847"/>
<stop offset="0.667969" stop-color="#7EA848"/>
<stop offset="0.671875" stop-color="#7DA848"/>
<stop offset="0.675781" stop-color="#7DA948"/>
<stop offset="0.679688" stop-color="#7CA949"/>
<stop offset="0.683594" stop-color="#7BA949"/>
<stop offset="0.6875" stop-color="#7AA94A"/>
<stop offset="0.691406" stop-color="#79A94A"/>
<stop offset="0.695313" stop-color="#78AA4B"/>
<stop offset="0.699219" stop-color="#77AA4B"/>
<stop offset="0.703125" stop-color="#77AA4C"/>
<stop offset="0.707031" stop-color="#76AA4C"/>
<stop offset="0.710938" stop-color="#75AA4D"/>
<stop offset="0.714844" stop-color="#74AB4D"/>
<stop offset="0.71875" stop-color="#73AB4E"/>
<stop offset="0.722656" stop-color="#72AB4E"/>
<stop offset="0.726563" stop-color="#71AB4E"/>
<stop offset="0.730469" stop-color="#71AB4F"/>
<stop offset="0.734375" stop-color="#70AC4F"/>
<stop offset="0.738281" stop-color="#6FAC50"/>
<stop offset="0.742188" stop-color="#6EAC50"/>
<stop offset="0.746094" stop-color="#6DAC51"/>
<stop offset="0.75" stop-color="#6CAD51"/>
<stop offset="0.753906" stop-color="#6BAD52"/>
<stop offset="0.757813" stop-color="#6AAD52"/>
<stop offset="0.761719" stop-color="#6AAD53"/>
<stop offset="0.765625" stop-color="#69AD53"/>
<stop offset="0.769531" stop-color="#68AE54"/>
<stop offset="0.773438" stop-color="#67AE54"/>
<stop offset="0.777344" stop-color="#66AE55"/>
<stop offset="0.78125" stop-color="#65AE55"/>
<stop offset="0.785156" stop-color="#64AE55"/>
<stop offset="0.789063" stop-color="#64AF56"/>
<stop offset="0.792969" stop-color="#63AF56"/>
<stop offset="0.796875" stop-color="#62AF57"/>
<stop offset="0.800781" stop-color="#61AF57"/>
<stop offset="0.804688" stop-color="#60AF58"/>
<stop offset="0.808594" stop-color="#5FB058"/>
<stop offset="0.8125" stop-color="#5EB059"/>
<stop offset="0.816406" stop-color="#5EB059"/>
<stop offset="0.820312" stop-color="#5DB05A"/>
<stop offset="0.824219" stop-color="#5CB15A"/>
<stop offset="0.828125" stop-color="#5BB15B"/>
<stop offset="0.84375" stop-color="#5AB15B"/>
<stop offset="0.875" stop-color="#5AB15B"/>
<stop offset="1" stop-color="#5AB15B"/>
</linearGradient>
</defs>
</svg>
