<svg width="23" height="22" viewBox="0 0 23 22" fill="none" xmlns="http://www.w3.org/2000/svg">
<g clip-path="url(#clip0_168_500)">
<path d="M21.3961 9.0874L12.4225 9.08698C12.0263 9.08698 11.7051 9.40812 11.7051 9.80438V12.671C11.7051 13.0672 12.0263 13.3884 12.4225 13.3884H17.4759C16.9225 14.8245 15.8897 16.0272 14.572 16.7913L16.7268 20.5214C20.1833 18.5224 22.2268 15.0149 22.2268 11.0885C22.2268 10.5294 22.1856 10.1297 22.1032 9.67973C22.0405 9.33783 21.7437 9.0874 21.3961 9.0874Z" fill="#167EE6"/>
<path d="M11.2265 17.6956C8.75346 17.6956 6.59454 16.3444 5.43502 14.345L1.70508 16.4949C3.60322 19.7846 7.15906 22 11.2265 22C13.2218 22 15.1046 21.4627 16.7265 20.5265V20.5214L14.5717 16.7913C13.5861 17.3629 12.4455 17.6956 11.2265 17.6956Z" fill="#12B347"/>
<path d="M16.7266 20.5265V20.5214L14.5718 16.7913C13.5862 17.3629 12.4457 17.6957 11.2266 17.6957V22C13.2219 22 15.1047 21.4628 16.7266 20.5265Z" fill="#0F993E"/>
<path d="M4.53091 11C4.53091 9.781 4.86358 8.64057 5.43511 7.65499L1.70516 5.5051C0.763758 7.12188 0.226562 8.99953 0.226562 11C0.226562 13.0004 0.763758 14.8781 1.70516 16.4949L5.43511 14.345C4.86358 13.3594 4.53091 12.219 4.53091 11Z" fill="#FFD500"/>
<path d="M11.2265 4.30435C12.8391 4.30435 14.3204 4.87738 15.4775 5.83056C15.7629 6.06568 16.1778 6.04871 16.4392 5.78725L18.4704 3.75611C18.767 3.45946 18.7459 2.97387 18.429 2.69895C16.4905 1.0172 13.9682 0 11.2265 0C7.15906 0 3.60322 2.21534 1.70508 5.50511L5.43502 7.65501C6.59454 5.65555 8.75346 4.30435 11.2265 4.30435Z" fill="#FF4B26"/>
<path d="M15.4775 5.83056C15.763 6.06568 16.1779 6.04871 16.4393 5.78725L18.4705 3.75611C18.7671 3.45946 18.7459 2.97387 18.4291 2.69895C16.4905 1.01716 13.9683 0 11.2266 0V4.30435C12.8392 4.30435 14.3205 4.87738 15.4775 5.83056Z" fill="#D93F21"/>
</g>
<defs>
<clipPath id="clip0_168_500">
<rect width="22" height="22" fill="white" transform="translate(0.226562)"/>
</clipPath>
</defs>
</svg>
