<svg width="20" height="21" viewBox="0 0 20 21" fill="none" xmlns="http://www.w3.org/2000/svg">
<mask id="mask0_81_443" style="mask-type:luminance" maskUnits="userSpaceOnUse" x="0" y="0" width="20" height="21">
<path d="M0 0.136719H20V20.1367H0V0.136719Z" fill="white"/>
</mask>
<g mask="url(#mask0_81_443)">
<path d="M14.4165 5.38679C14.0915 5.06179 13.5665 5.06179 13.2415 5.38679L8.54154 10.0868L9.71654 11.2618L14.4165 6.55346C14.7332 6.23679 14.7332 5.70346 14.4165 5.38679ZM17.9499 5.37846L9.71654 13.6118L6.81654 10.7201C6.49154 10.3951 5.96654 10.3951 5.64154 10.7201C5.31654 11.0451 5.31654 11.5701 5.64154 11.8951L9.12487 15.3785C9.44987 15.7035 9.97487 15.7035 10.2999 15.3785L19.1249 6.56179C19.4499 6.23679 19.4499 5.71179 19.1249 5.38679H19.1165C18.7999 5.05346 18.2749 5.05346 17.9499 5.37846ZM0.933204 11.9035L4.41654 15.3868C4.74154 15.7118 5.26654 15.7118 5.59154 15.3868L6.17487 14.8035L2.1082 10.7201C1.7832 10.3951 1.2582 10.3951 0.933204 10.7201C0.608203 11.0451 0.608203 11.5785 0.933204 11.9035Z" fill="#5AB15B"/>
</g>
</svg>
