<svg width="20" height="21" viewBox="0 0 20 21" fill="none" xmlns="http://www.w3.org/2000/svg">
<path fill-rule="evenodd" clip-rule="evenodd" d="M10 0.786377C4.48438 0.786377 0 5.27075 0 10.7864C0 16.302 4.48438 20.7864 10 20.7864C15.5156 20.7864 20 16.302 20 10.7864C20 5.27075 15.5156 0.786377 10 0.786377Z" fill="#4BAE4F"/>
<path fill-rule="evenodd" clip-rule="evenodd" d="M14.8359 7.41528C15.0781 7.65747 15.0781 8.05591 14.8359 8.2981L8.97656 14.1575C8.85547 14.2786 8.69531 14.3411 8.53516 14.3411C8.375 14.3411 8.21484 14.2786 8.09375 14.1575L5.16406 11.2278C4.92187 10.9856 4.92187 10.5872 5.16406 10.345C5.40625 10.1028 5.80469 10.1028 6.04688 10.345L8.53516 12.8333L13.9531 7.41528C14.1953 7.16919 14.5937 7.16919 14.8359 7.41528Z" fill="white"/>
</svg>
