<svg width="60" height="60" viewBox="0 0 60 60" fill="none" xmlns="http://www.w3.org/2000/svg">
<rect width="60" height="60" rx="10" fill="url(#paint0_linear_18_658)"/>
<g clip-path="url(#clip0_18_658)">
<path d="M37.6407 25.6306C36.2917 23.7678 34.9251 21.9297 33.6654 20H26.3348C25.0754 21.9297 23.7092 23.7678 22.3595 25.6306C19.7192 29.275 17.536 33.1569 17.8407 37.9666C18.0914 41.9253 20.6423 44.495 23.761 45.8022C23.1751 45.1853 22.8126 44.3538 22.8126 43.4375C22.8126 41.5425 24.3548 40 26.2501 40C27.9292 40 29.3289 41.2109 29.627 42.8053L30.9401 40.835C31.2885 40.3125 31.8717 40 32.5007 40C32.872 40 33.2317 40.1094 33.541 40.3156C33.9567 40.5928 34.2404 41.0162 34.3389 41.5075C34.4367 41.9981 34.3379 42.4981 34.0604 42.915L33.0367 44.4506C33.267 44.4019 33.5054 44.375 33.7501 44.375C34.8507 44.375 35.8298 44.8972 36.4595 45.7047C39.477 44.37 41.9148 41.8309 42.1589 37.9662C42.4642 33.1569 40.281 29.275 37.6407 25.6306ZM27.5001 34.9019C27.5001 35.0331 27.487 35.1375 27.4607 35.2163C27.4345 35.2944 27.3867 35.3656 27.3164 35.4284C27.2457 35.4916 27.1554 35.5522 27.0464 35.6109C26.7292 35.7784 26.4245 35.9013 26.1314 35.9788C25.8382 36.0559 25.5189 36.0941 25.1732 36.0941C24.7714 36.0941 24.4042 36.0331 24.0729 35.9119C23.7417 35.7906 23.4595 35.6137 23.226 35.3825C22.9926 35.1516 22.8132 34.8712 22.6882 34.5419C22.5626 34.2122 22.5001 33.8438 22.5001 33.4375C22.5001 33.0384 22.561 32.6728 22.6826 32.3406C22.8042 32.0087 22.9826 31.7272 23.2189 31.4959C23.4542 31.2644 23.7414 31.0878 24.0798 30.9656C24.4179 30.8428 24.8023 30.7812 25.2307 30.7812C25.5839 30.7812 25.896 30.8272 26.167 30.9197C26.4389 31.0125 26.6595 31.1281 26.8289 31.2684C26.9979 31.4087 27.1248 31.5569 27.2107 31.7131C27.297 31.8697 27.3398 32.0087 27.3398 32.1303C27.3398 32.2613 27.2904 32.3728 27.191 32.465C27.0926 32.5572 26.9742 32.6028 26.8354 32.6028C26.7589 32.6028 26.686 32.5856 26.6157 32.5506C26.5454 32.5156 26.4864 32.4666 26.4389 32.4034C26.3079 32.2028 26.197 32.0509 26.1067 31.9478C26.0167 31.8447 25.8942 31.7584 25.7404 31.6884C25.587 31.6187 25.3904 31.5837 25.1523 31.5837C24.9073 31.5837 24.6882 31.625 24.4948 31.7075C24.302 31.7909 24.137 31.9106 23.9998 32.0684C23.8629 32.2263 23.7579 32.42 23.6851 32.6484C23.6129 32.8772 23.5764 33.1309 23.5764 33.4091C23.5764 34.0119 23.717 34.475 23.9995 34.8003C24.2823 35.1247 24.6757 35.2875 25.1807 35.2875C25.4257 35.2875 25.656 35.255 25.8726 35.1925C26.0879 35.1297 26.3067 35.0397 26.5282 34.9225V34.0891H25.7064C25.5085 34.0891 25.3589 34.0597 25.2573 34.0013C25.156 33.9428 25.1054 33.8431 25.1054 33.7031C25.1054 33.5891 25.1482 33.4941 25.2323 33.4194C25.317 33.3447 25.432 33.3075 25.5773 33.3075H26.7817C26.9295 33.3075 27.0548 33.3206 27.157 33.3456C27.2595 33.3725 27.3426 33.4291 27.4054 33.5181C27.4685 33.6069 27.5001 33.7403 27.5001 33.9172V34.9019ZM32.261 35.3016C32.1017 35.5497 31.8689 35.7428 31.562 35.8831C31.2554 36.0234 30.891 36.0938 30.4707 36.0938C29.966 36.0938 29.5504 35.9981 29.222 35.8069C28.9898 35.6687 28.8007 35.485 28.6554 35.2544C28.5098 35.0244 28.4376 34.8009 28.4376 34.5834C28.4376 34.4575 28.4814 34.3491 28.5685 34.2594C28.6551 34.1697 28.7667 34.1241 28.9007 34.1241C29.0104 34.1241 29.1026 34.1594 29.1785 34.2297C29.2542 34.2997 29.3185 34.4034 29.372 34.5412C29.4376 34.7047 29.5076 34.8416 29.5829 34.9516C29.6589 35.0609 29.7648 35.1512 29.902 35.2225C30.0395 35.2941 30.2195 35.3294 30.4429 35.3294C30.7492 35.3294 30.9982 35.2578 31.191 35.1144C31.3826 34.9709 31.4782 34.7912 31.4782 34.5762C31.4782 34.4056 31.4267 34.2675 31.3229 34.1606C31.2195 34.0547 31.0864 33.9731 30.922 33.9172C30.7585 33.8616 30.5395 33.8019 30.2645 33.7391C29.8976 33.6525 29.5901 33.5516 29.3426 33.4356C29.0951 33.3203 28.8989 33.1625 28.7535 32.9625C28.6079 32.7631 28.5351 32.5144 28.5351 32.2178C28.5351 31.935 28.612 31.6841 28.7651 31.4647C28.9185 31.2447 29.1407 31.0759 29.4317 30.9581C29.7217 30.8403 30.0635 30.7812 30.456 30.7812C30.7701 30.7812 31.0417 30.8206 31.2704 30.8988C31.4992 30.9769 31.6898 31.0809 31.841 31.2106C31.9917 31.3406 32.1023 31.4762 32.172 31.6194C32.2417 31.7619 32.2764 31.9006 32.2764 32.0359C32.2764 32.16 32.2332 32.2712 32.146 32.3703C32.0589 32.4694 31.9504 32.52 31.8195 32.52C31.701 32.52 31.6117 32.4897 31.5495 32.43C31.4882 32.3706 31.421 32.2734 31.3495 32.1372C31.2564 31.9434 31.1445 31.7925 31.0145 31.6841C30.8839 31.5747 30.6751 31.5212 30.387 31.5212C30.1195 31.5212 29.9039 31.58 29.7401 31.6978C29.576 31.8156 29.4945 31.9578 29.4945 32.1237C29.4945 32.2259 29.5226 32.315 29.5779 32.39C29.6342 32.4644 29.7107 32.5291 29.8082 32.5828C29.9057 32.6366 30.0045 32.6784 30.1045 32.7091C30.2039 32.7391 30.3698 32.7831 30.5995 32.8419C30.8879 32.9094 31.1489 32.9844 31.3826 33.0659C31.6157 33.1481 31.8148 33.2469 31.9789 33.3641C32.1423 33.4809 32.2701 33.6284 32.362 33.8075C32.4539 33.9862 32.5001 34.205 32.5001 34.4641C32.5001 34.775 32.4201 35.0541 32.261 35.3016ZM37.3667 31.4906C37.2776 31.5653 37.1442 31.6025 36.9664 31.6025H35.8289V35.4869C35.8289 35.6922 35.7807 35.8453 35.6845 35.9447C35.5889 36.0438 35.4645 36.0938 35.3126 36.0938C35.1582 36.0938 35.0326 36.0431 34.9351 35.9431C34.8379 35.8422 34.7895 35.69 34.7895 35.4869V31.6025H33.6514C33.4735 31.6025 33.3417 31.5653 33.2545 31.4906C33.1682 31.4156 33.1251 31.3166 33.1251 31.1934C33.1251 31.0656 33.1701 30.9653 33.2604 30.8916C33.3507 30.8178 33.4807 30.7809 33.6517 30.7809H36.9664C37.1464 30.7809 37.2807 30.8191 37.3685 30.8947C37.4564 30.9703 37.5001 31.0706 37.5001 31.1934C37.5001 31.3162 37.4557 31.4156 37.3667 31.4906Z" fill="#093254"/>
<path d="M27.1533 49.8951C27.2599 49.9663 27.3805 50.0001 27.4993 50.0001C27.7012 50.0001 27.8993 49.9022 28.0199 49.7216L33.0199 42.2257C33.2112 41.9385 33.1337 41.5507 32.8465 41.3594C32.559 41.1679 32.1712 41.2457 31.9799 41.5329L26.9799 49.0291C26.7887 49.316 26.8662 49.7038 27.1533 49.8951Z" fill="#093254"/>
<path d="M26.25 45.6271C27.4581 45.6271 28.4375 44.6487 28.4375 43.4406C28.4375 42.2331 27.4581 41.2546 26.25 41.2546C25.0419 41.2546 24.0625 42.2331 24.0625 43.4406C24.0625 44.6487 25.0419 45.6271 26.25 45.6271ZM26.25 42.504C26.7669 42.504 27.1875 42.9243 27.1875 43.4406C27.1875 43.9571 26.7669 44.3778 26.25 44.3778C25.7331 44.3778 25.3125 43.9571 25.3125 43.4406C25.3125 42.924 25.7331 42.504 26.25 42.504Z" fill="#093254"/>
<path d="M33.75 50C34.9581 50 35.9375 49.0213 35.9375 47.8138C35.9375 46.6059 34.9581 45.6272 33.75 45.6272C32.5419 45.6272 31.5625 46.6059 31.5625 47.8138C31.5625 49.0213 32.5419 50 33.75 50ZM33.75 46.8766C34.2669 46.8766 34.6875 47.2972 34.6875 47.8138C34.6875 48.3303 34.2669 48.7506 33.75 48.7506C33.2331 48.7506 32.8125 48.3303 32.8125 47.8138C32.8125 47.2972 33.2331 46.8766 33.75 46.8766Z" fill="#093254"/>
<path d="M26.25 17.5166C25.905 17.5166 25.625 17.7966 25.625 18.1413C25.625 18.4863 25.905 18.766 26.25 18.766H33.75C34.095 18.766 34.375 18.4863 34.375 18.1413C34.375 17.7963 34.095 17.5166 33.75 17.5166H26.25Z" fill="#093254"/>
<path d="M36.3076 10.7978C36.3148 10.1884 35.7023 9.96088 35.191 10.0056C34.9082 10.0303 34.626 10.114 34.4123 10.204C33.7532 10.4824 33.2357 11.0071 32.6185 11.3581C32.1657 11.6156 31.6282 11.7449 31.1048 11.6362C30.5017 11.5112 30.2642 10.7637 29.6995 10.5921C29.0392 10.3912 28.5467 11.0981 28.0951 11.4384C27.6098 11.8046 27.0151 11.9681 26.4267 11.7693C25.8182 11.5643 25.3217 11.149 24.6839 11.0021C24.3101 10.9162 23.8182 11.0821 23.7629 11.5049C23.6979 12.0003 24.1907 12.3568 24.4767 12.6818C24.4767 12.6818 25.7917 13.6706 26.5832 16.2671H33.4226C33.7392 15.0578 34.2289 13.8818 34.9201 12.8134C35.3235 12.1893 36.2976 11.6118 36.3076 10.7978Z" fill="#093254"/>
</g>
<defs>
<linearGradient id="paint0_linear_18_658" x1="-3.33333" y1="-11.6667" x2="30" y2="60" gradientUnits="userSpaceOnUse">
<stop stop-color="#F1FF2F"/>
<stop offset="1" stop-color="#96DD6F"/>
</linearGradient>
<clipPath id="clip0_18_658">
<rect width="40" height="40" fill="white" transform="translate(10 10)"/>
</clipPath>
</defs>
</svg>
