<svg width="61" height="60" viewBox="0 0 61 60" fill="none" xmlns="http://www.w3.org/2000/svg">
<rect x="0.5" width="60" height="60" rx="10" fill="url(#paint0_linear_185_981)"/>
<g clip-path="url(#clip0_185_981)">
<path d="M48.4686 31.6719H48.4217C47.9295 31.6719 47.4529 31.4922 47.0779 31.1641L30.4764 16.5234L13.8748 31.1641C13.5076 31.4922 13.031 31.6719 12.531 31.6719C10.6795 31.6719 9.79667 29.3906 11.1717 28.1406L29.117 11.8906C29.8904 11.1953 31.0623 11.1953 31.8357 11.8906L49.8279 28.1484C51.2029 29.3906 50.3279 31.6719 48.4686 31.6719ZM30.4764 17.9844L45.8201 31.5156V46.4375C45.8201 47.6484 44.8357 48.6328 43.6248 48.6328H17.3201C16.1092 48.6328 15.1248 47.6484 15.1248 46.4375V31.5156L30.4764 17.9844ZM30.4764 25.6641C25.0232 25.6641 20.6092 30.0781 20.6092 35.5313C20.6092 40.9844 25.031 45.3984 30.4764 45.3984C35.9217 45.3984 40.3436 40.9844 40.3436 35.5313C40.3436 30.0781 35.9295 25.6641 30.4764 25.6641ZM27.4217 34.9063C26.5935 34.9063 25.9217 34.6641 25.406 34.1797C24.8904 33.6953 24.6404 33.0469 24.6404 32.2266V31.6016C24.6404 30.8203 24.8982 30.1797 25.406 29.6875C25.9139 29.1953 26.5857 28.9531 27.406 28.9531C28.2264 28.9531 28.9217 29.1953 29.4295 29.6797C29.9373 30.1641 30.1951 30.8203 30.1951 31.6406V32.2734C30.1951 33.0625 29.9373 33.7031 29.4295 34.1797C28.9139 34.6641 28.2498 34.9063 27.4217 34.9063ZM26.6248 33.125C26.8279 33.3359 27.0935 33.4453 27.4217 33.4453C27.7498 33.4453 28.0076 33.3359 28.2029 33.1172C28.3982 32.8984 28.492 32.6094 28.492 32.25V31.6016C28.492 31.25 28.3982 30.9688 28.2029 30.75C28.0076 30.5313 27.742 30.4219 27.406 30.4219C27.0857 30.4219 26.8201 30.5313 26.6248 30.7422C26.4217 30.9531 26.3279 31.25 26.3279 31.6328V32.2734C26.3201 32.625 26.4217 32.9141 26.6248 33.125ZM27.9217 40.9766L34.1717 30.9766L32.9295 30.3047L26.6795 40.3047L27.9217 40.9766ZM33.531 36.1641C34.3592 36.1641 35.0311 36.4063 35.5467 36.8828C36.0623 37.3594 36.3123 38.0156 36.3123 38.8516V39.4844C36.3123 40.2656 36.0623 40.9063 35.5545 41.3828C35.0467 41.8672 34.3826 42.1094 33.5389 42.1094C32.6951 42.1094 32.0154 41.8672 31.5076 41.3828C30.9998 40.8984 30.742 40.25 30.742 39.4531V38.8047C30.742 38.0156 30.9998 37.375 31.5154 36.8906C32.0389 36.4063 32.7107 36.1641 33.531 36.1641ZM34.3201 37.9531C34.1248 37.7422 33.8592 37.6328 33.531 37.6328C33.2029 37.6328 32.9373 37.7422 32.742 37.9531C32.5467 38.1641 32.4451 38.4609 32.4451 38.8281V39.4844C32.4451 39.8047 32.5545 40.0781 32.7576 40.3125C32.9685 40.5391 33.2342 40.6563 33.5467 40.6563C34.2576 40.6563 34.617 40.2578 34.617 39.4688V38.8047C34.617 38.4453 34.5154 38.1641 34.3201 37.9531Z" fill="#093254"/>
</g>
<defs>
<linearGradient id="paint0_linear_185_981" x1="-2.83333" y1="-11.6667" x2="30.5" y2="60" gradientUnits="userSpaceOnUse">
<stop stop-color="#F1FF2F"/>
<stop offset="1" stop-color="#96DD6F"/>
</linearGradient>
<clipPath id="clip0_185_981">
<rect width="40" height="40" fill="white" transform="translate(10.5 10)"/>
</clipPath>
</defs>
</svg>
