<svg width="14" height="12" viewBox="0 0 14 12" fill="none" xmlns="http://www.w3.org/2000/svg">
<path d="M13.9749 2.47745L9.20931 7.06909C8.67793 7.57978 7.95804 7.86657 7.20751 7.86657C6.45697 7.86657 5.73708 7.57978 5.2057 7.06909L0.440104 2.47745C0.432178 2.56364 0.414062 2.64164 0.414062 2.72727V9.27273C0.414961 9.99578 0.713473 10.689 1.24412 11.2002C1.77477 11.7115 2.49422 11.9991 3.24466 12H11.1703C11.9208 11.9991 12.6402 11.7115 13.1709 11.2002C13.7015 10.689 14 9.99578 14.0009 9.27273V2.72727C14.0009 2.64164 13.9828 2.56364 13.9749 2.47745Z" fill="#494949"/>
<path d="M8.40881 6.29782L13.5798 1.31509C13.3293 0.914901 12.976 0.583657 12.5539 0.353307C12.1319 0.122958 11.6554 0.00127673 11.1703 0H3.24466C2.75962 0.00127673 2.28311 0.122958 1.86108 0.353307C1.43905 0.583657 1.08575 0.914901 0.835256 1.31509L6.0062 6.29782C6.32525 6.60399 6.7572 6.77589 7.20751 6.77589C7.65781 6.77589 8.08976 6.60399 8.40881 6.29782Z" fill="#494949"/>
</svg>
