<svg width="40" height="41" viewBox="0 0 40 41" fill="none" xmlns="http://www.w3.org/2000/svg">
<g clip-path="url(#clip0_18_639)">
<path d="M23.8281 20.1934C23.8281 22.3076 22.1143 24.0215 20 24.0215C17.8857 24.0215 16.1719 22.3076 16.1719 20.1934C16.1719 18.0791 17.8857 16.3652 20 16.3652C22.1143 16.3652 23.8281 18.0791 23.8281 20.1934Z" fill="white"/>
<path d="M28.9524 13.4202C28.7684 12.9216 28.4748 12.4702 28.0933 12.0997C27.7228 11.7183 27.2718 11.4247 26.7728 11.2407C26.3682 11.0835 25.7603 10.8964 24.6406 10.8455C23.4293 10.7902 23.0662 10.7783 19.9998 10.7783C16.933 10.7783 16.5699 10.7899 15.3589 10.8452C14.2393 10.8964 13.631 11.0835 13.2267 11.2407C12.7277 11.4247 12.2764 11.7183 11.9062 12.0997C11.5247 12.4702 11.2311 12.9213 11.0468 13.4202C10.8896 13.8249 10.7026 14.4331 10.6516 15.5528C10.5964 16.7637 10.5845 17.1269 10.5845 20.1936C10.5845 23.26 10.5964 23.6232 10.6516 24.8344C10.7026 25.9541 10.8896 26.562 11.0468 26.9667C11.2311 27.4656 11.5244 27.9167 11.9059 28.2872C12.2764 28.6686 12.7274 28.9622 13.2264 29.1462C13.631 29.3037 14.2393 29.4908 15.3589 29.5417C16.5699 29.597 16.9327 29.6086 19.9995 29.6086C23.0665 29.6086 23.4296 29.597 24.6403 29.5417C25.7599 29.4908 26.3682 29.3037 26.7728 29.1462C27.7744 28.7599 28.566 27.9683 28.9524 26.9667C29.1096 26.562 29.2966 25.9541 29.3479 24.8344C29.4031 23.6232 29.4147 23.26 29.4147 20.1936C29.4147 17.1269 29.4031 16.7637 29.3479 15.5528C29.2969 14.4331 29.1099 13.8249 28.9524 13.4202ZM19.9998 26.0905C16.7426 26.0905 14.1022 23.4504 14.1022 20.1933C14.1022 16.9362 16.7426 14.2961 19.9998 14.2961C23.2566 14.2961 25.897 16.9362 25.897 20.1933C25.897 23.4504 23.2566 26.0905 19.9998 26.0905ZM26.1301 15.4411C25.369 15.4411 24.752 14.824 24.752 14.0629C24.752 13.3018 25.369 12.6848 26.1301 12.6848C26.8912 12.6848 27.5083 13.3018 27.5083 14.0629C27.508 14.824 26.8912 15.4411 26.1301 15.4411Z" fill="white"/>
<path d="M20 0.193359C8.95599 0.193359 0 9.14935 0 20.1934C0 31.2374 8.95599 40.1934 20 40.1934C31.044 40.1934 40 31.2374 40 20.1934C40 9.14935 31.044 0.193359 20 0.193359ZM31.4151 24.9282C31.3596 26.1507 31.1652 26.9854 30.8813 27.7159C30.2847 29.2586 29.0652 30.4781 27.5226 31.0747C26.7923 31.3585 25.9573 31.5526 24.7351 31.6085C23.5104 31.6643 23.1192 31.6777 20.0003 31.6777C16.8811 31.6777 16.4902 31.6643 15.2652 31.6085C14.043 31.5526 13.208 31.3585 12.4777 31.0747C11.7111 30.7863 11.0172 30.3344 10.4434 29.7499C9.85931 29.1765 9.40735 28.4822 9.11896 27.7159C8.83514 26.9857 8.64075 26.1507 8.58521 24.9285C8.52875 23.7035 8.51562 23.3123 8.51562 20.1934C8.51562 17.0745 8.52875 16.6832 8.5849 15.4586C8.64044 14.236 8.83453 13.4014 9.11835 12.6708C9.40674 11.9045 9.85901 11.2102 10.4434 10.6368C11.0168 10.0524 11.7111 9.6004 12.4774 9.31201C13.208 9.0282 14.0427 8.83411 15.2652 8.77826C16.4899 8.72241 16.8811 8.70898 20 8.70898C23.1189 8.70898 23.5101 8.72241 24.7348 8.77856C25.9573 8.83411 26.792 9.0282 27.5226 9.31171C28.2889 9.6001 28.9832 10.0524 29.5569 10.6368C30.141 11.2105 30.5933 11.9045 30.8813 12.6708C31.1655 13.4014 31.3596 14.236 31.4154 15.4586C31.4713 16.6832 31.4844 17.0745 31.4844 20.1934C31.4844 23.3123 31.4713 23.7035 31.4151 24.9282Z" fill="white"/>
</g>
<defs>
<clipPath id="clip0_18_639">
<rect width="40" height="40" fill="white" transform="translate(0 0.193359)"/>
</clipPath>
</defs>
</svg>
