<svg width="61" height="60" viewBox="0 0 61 60" fill="none" xmlns="http://www.w3.org/2000/svg">
<rect x="0.5" width="60" height="60" rx="10" fill="url(#paint0_linear_185_857)"/>
<path fill-rule="evenodd" clip-rule="evenodd" d="M14.938 40.7372L23.4188 49.2181L26.1181 46.5188L17.6372 38.038L14.938 40.7372ZM40.2467 23.5006C42.7506 23.5006 44.7803 25.5303 44.7803 28.0342C44.7803 30.538 42.7506 32.5677 40.2467 32.5677C37.7429 32.5677 35.7131 30.538 35.7131 28.0342C35.7131 25.5303 37.7429 23.5006 40.2467 23.5006ZM38.6962 25.0777C38.0163 25.0777 37.4649 25.6292 37.4649 26.3091C37.4649 27.402 38.7927 27.9538 39.5668 27.1797C40.3408 26.4058 39.7893 25.0777 38.6962 25.0777ZM38.904 26.1013C38.6303 25.8276 38.2147 26.2432 38.4884 26.5169C38.7621 26.7906 39.1777 26.3749 38.904 26.1013ZM41.7972 28.5279C41.1174 28.5279 40.5659 29.0793 40.5659 29.7592C40.5659 30.8521 41.8937 31.4039 42.6678 30.6299C43.4418 29.8559 42.8903 28.5279 41.7972 28.5279ZM42.005 29.5514C41.7313 29.2777 41.3157 29.6934 41.5894 29.967C41.8631 30.2407 42.2787 29.8251 42.005 29.5514ZM41.2783 25.314L38.4058 30.2892C38.2774 30.5127 38.3545 30.7981 38.5779 30.9264C38.8014 31.0549 39.0867 30.9777 39.2151 30.7543L42.0876 25.7791C42.216 25.5556 42.1389 25.2702 41.9155 25.1419C41.6921 25.0134 41.4067 25.0906 41.2783 25.314ZM23.8158 17.1998H34.9224C35.4713 17.1998 35.9203 16.7507 35.9203 16.2019C35.9203 15.6531 35.4713 15.204 34.9224 15.204H23.8158C23.267 15.204 22.8179 15.6531 22.8179 16.2019C22.8179 16.7507 23.267 17.1998 23.8158 17.1998ZM29.3692 20.3292C31.873 20.3292 33.9028 22.359 33.9028 24.8628C33.9028 27.3667 31.873 29.3964 29.3692 29.3964C26.8653 29.3964 24.8356 27.3667 24.8356 24.8628C24.8356 22.359 26.8653 20.3292 29.3692 20.3292ZM29.8379 27.665V27.3795C30.5598 27.2006 31.1393 26.6027 31.1393 25.8422C31.1393 23.8074 28.7054 24.6354 28.7054 23.7373C28.7054 23.6084 28.7699 23.4883 28.8742 23.3981C29.2846 23.0431 30.0329 23.2773 30.0329 23.7373C30.0329 23.9962 30.2428 24.206 30.5017 24.206C30.7606 24.206 30.9704 23.9962 30.9704 23.7373C30.9704 23.0641 30.4712 22.5285 29.8379 22.3526V22.0605C29.8379 21.8016 29.6281 21.5917 29.3692 21.5917C29.1103 21.5917 28.9004 21.8016 28.9004 22.0605V22.3526C28.2671 22.5285 27.7679 23.0641 27.7679 23.7373C27.7679 25.6745 30.2018 24.7521 30.2018 25.8422C30.2018 26.0113 30.1184 26.1681 29.9836 26.2846C29.4676 26.7309 28.5365 26.4332 28.5365 25.8422C28.5365 25.5833 28.3267 25.3734 28.0678 25.3734C27.8088 25.3734 27.599 25.5833 27.599 25.8422C27.599 26.6027 28.1786 27.2006 28.9004 27.3795V27.665C28.9004 27.9239 29.1103 28.1338 29.3692 28.1338C29.6281 28.1338 29.8379 27.9239 29.8379 27.665ZM34.7388 11.4127L33.1403 14.2664H25.5981L23.9996 11.4127C24.8109 10.5717 26.768 10.5717 27.5793 11.4127C28.3906 10.5717 30.3478 10.5717 31.1591 11.4127C31.9704 10.5717 33.9275 10.5717 34.7388 11.4127H34.7388ZM20.5663 24.3332C20.5663 32.5466 30.418 34.6149 35.3821 30.5399C33.9353 27.7366 35.1652 24.2813 38.0606 23.0177C37.7364 21.118 36.721 19.4152 35.2446 18.1102C35.1398 18.1278 35.0322 18.1372 34.9224 18.1372H23.8158C23.706 18.1372 23.5985 18.1278 23.4936 18.1102C21.6838 19.7101 20.5663 21.9076 20.5663 24.3332ZM29.3692 19.3917C26.3476 19.3917 23.8981 21.8411 23.8981 24.8627C23.8981 27.8844 26.3476 30.3338 29.3692 30.3338C32.3907 30.3338 34.8403 27.8844 34.8403 24.8627C34.8403 21.8411 32.3907 19.3917 29.3692 19.3917ZM40.3277 36.9254L43.7678 33.2095C44.8444 32.0466 46.744 33.631 45.812 34.9161L40.9818 41.5764C40.0264 42.8939 38.6604 43.6554 37.0328 43.6554H27.688C26.9052 43.6554 26.2313 43.9624 25.7173 44.5527L25.6058 44.6807L19.4374 38.5124L22.3785 35.6408C23.2795 34.7611 24.3525 34.3015 25.6118 34.3015H28.1967C29.0362 34.3015 29.756 34.4943 30.4831 34.9141L31.276 35.3719H37.5693C38.5788 35.3719 39.4046 36.1978 39.4046 37.2073C39.4046 38.2091 38.5864 39.0426 37.5693 39.0426H32.2038C31.9449 39.0426 31.735 39.2524 31.735 39.5113C31.735 39.7702 31.9449 39.9801 32.2038 39.9801H37.5693C39.2067 39.9801 40.4946 38.5561 40.3278 36.9255L40.3277 36.9254Z" fill="#093254"/>
<defs>
<linearGradient id="paint0_linear_185_857" x1="-2.83333" y1="-11.6667" x2="30.5" y2="60" gradientUnits="userSpaceOnUse">
<stop stop-color="#F1FF2F"/>
<stop offset="1" stop-color="#96DD6F"/>
</linearGradient>
</defs>
</svg>
