<svg width="61" height="60" viewBox="0 0 61 60" fill="none" xmlns="http://www.w3.org/2000/svg">
<rect x="0.5" width="60" height="60" rx="10" fill="url(#paint0_linear_185_919)"/>
<path d="M19.9218 22.9141C19.7734 22.5313 20.3515 22.3047 20.5 22.6875L21.2187 24.5C21.3672 24.8828 20.789 25.1094 20.6406 24.7266L19.9218 22.9141ZM25.6875 22.0859C25.7422 21.6797 26.3593 21.7734 26.3047 22.1797L26.0234 24.1094C25.9609 24.5156 25.3437 24.4297 25.4062 24.0156L25.6875 22.0859ZM31.0937 24.25C31.2031 24.1172 31.3984 24.0938 31.5312 24.1953C31.664 24.3047 31.6875 24.5 31.5859 24.6328L30.375 26.1563C30.2656 26.2891 30.0703 26.3125 29.9375 26.2109C29.8047 26.1016 29.7812 25.9063 29.8828 25.7734L31.0937 24.25ZM13.1875 31.9219C12.7812 31.8594 12.8672 31.2422 13.2734 31.3047L15.2031 31.5859C15.6093 31.6484 15.5234 32.2656 15.1172 32.2031L13.1875 31.9219ZM14.0156 37.6875C13.6328 37.8359 13.4062 37.2578 13.789 37.1094L15.6015 36.3906C15.9843 36.2344 16.2109 36.8203 15.8281 36.9688L14.0156 37.6875ZM17.6172 42.2656C17.5078 42.3984 17.3125 42.4219 17.1797 42.3203C17.0468 42.2109 17.0234 42.0156 17.125 41.8828L18.3359 40.3516C18.4453 40.2188 18.6406 40.1953 18.7734 40.2969C18.9062 40.3984 18.9297 40.6016 18.8281 40.7344L17.6172 42.2656ZM15.3515 26.5156C15.2187 26.4063 15.1953 26.2109 15.2968 26.0781C15.4062 25.9453 15.6015 25.9219 15.7343 26.0234L17.2656 27.2344C17.3984 27.3438 17.4218 27.5391 17.3203 27.6719C17.2109 27.8047 17.0156 27.8281 16.8828 27.7266L15.3515 26.5156ZM47.664 27.2578C46.5 22.8359 42.789 18.5781 35.7187 15.7266C35.5703 15.6719 35.4843 15.5078 35.5234 15.3516L35.8359 14.2344L27.9843 16.6328L33.4687 22.2422L33.9218 20.6953C33.9687 20.5 34.1562 20.4063 34.3359 20.4688C40.1718 22.5625 43.3593 25.6797 44.5625 29.0469C46.0312 33.1719 44.4843 37.4531 41.5547 40.6172C39.3515 43 36.2578 44.8828 32.6875 45.7656C37.1797 45.2266 41 43.2578 43.7109 40.5078C45.4922 38.7031 46.7968 36.5703 47.5 34.2969C48.1875 32.0234 48.289 29.6172 47.664 27.2578ZM23.4765 34.4688C23.4375 34.0625 24.0625 34 24.0937 34.4141C24.1406 34.8828 24.9375 35.125 25.3984 34.75C25.5234 34.6484 25.5937 34.5156 25.5937 34.375C25.5937 33.4297 23.4687 34.2656 23.4687 32.6328C23.4687 32.0391 23.9531 31.6016 24.5234 31.4844V31.1875C24.5234 31.0156 24.664 30.875 24.8437 30.875C25.0234 30.875 25.1562 31.0156 25.1562 31.1953L25.1484 31.4844C26.2422 31.6953 26.5 32.9453 25.9062 32.9453C25.7343 32.9453 25.5937 32.8047 25.5937 32.6328C25.5937 32.1406 24.7578 31.8672 24.289 32.2578C24.164 32.3594 24.0937 32.4922 24.0937 32.6328C24.0937 33.5781 26.2187 32.7422 26.2187 34.375C26.2187 34.9688 25.7265 35.4141 25.1562 35.5234L25.1484 35.8203C25.1484 36.2266 24.5234 36.2266 24.5234 35.8203V35.5234C23.9922 35.4141 23.5312 35.0234 23.4765 34.4688ZM40.1797 28.6641C37.5937 26.0781 33.3906 26.0781 30.8047 28.6641C28.2109 31.2578 28.2109 35.4531 30.8047 38.0391C33.3906 40.6328 37.5937 40.6328 40.1797 38.0391C42.7656 35.4531 42.7656 31.2578 40.1797 28.6641ZM28.5234 35.3984C27.8984 33.2578 28.4687 31.5547 28.4687 31.5078C28.1172 30.875 27.6093 30.3438 27 29.9766C25.375 28.9844 23.2734 29.2422 21.9297 30.5859C20.3203 32.2031 20.3203 34.8125 21.9297 36.4297C23.914 38.4141 27.2422 37.875 28.5234 35.3984ZM29.5312 37.5C29.2422 37.0859 28.9922 36.6328 28.789 36.1641C27.1172 38.6406 23.6015 39 21.4765 36.875C19.6172 35.0156 19.6172 32 21.4765 30.1484C23.5625 28.0625 27.0078 28.3672 28.7109 30.75C28.8984 30.2656 29.1328 29.8125 29.414 29.3906C27.0547 26.7813 22.9843 26.6719 20.4922 29.1641C18.0859 31.5703 18.0859 35.4688 20.4922 37.875C23.039 40.4062 27.2031 40.2266 29.5312 37.5ZM31.4843 30.1719C32.5156 28.875 34.6015 29.4844 34.789 31.1172C34.9765 32.7578 33.0781 33.8125 31.7812 32.7813C30.9687 32.1406 30.8515 30.9453 31.4843 30.1719ZM31.9843 30.5469C31.9765 30.5547 31.9687 30.5625 31.9609 30.5703C31.5547 31.0547 31.625 31.8672 32.1718 32.2969C33.0312 32.9844 34.2968 32.2734 34.1718 31.1875C34.0468 30.1094 32.6718 29.7031 31.9843 30.5469ZM36.5781 34.2188C37.6093 32.9219 39.6953 33.5313 39.8828 35.1641C40 36.1875 39.2656 37.1094 38.2422 37.2266C36.6093 37.4141 35.5468 35.5156 36.5781 34.2188ZM37.0703 34.5938C37.0625 34.6016 37.0547 34.6094 37.0468 34.6172C36.6328 35.1094 36.7265 35.9375 37.2422 36.3281C38.1875 37.0469 39.375 36.2734 39.2578 35.2266C39.1406 34.1562 37.7656 33.75 37.0703 34.5938ZM32.9843 37C32.875 37.1328 32.6797 37.1563 32.5468 37.0469C32.414 36.9375 32.3906 36.7422 32.4922 36.6094L37.9765 29.7031C38.0859 29.5703 38.2812 29.5469 38.414 29.6484C38.5468 29.7578 38.5703 29.9531 38.4687 30.0859L32.9843 37Z" fill="#093254"/>
<defs>
<linearGradient id="paint0_linear_185_919" x1="-2.83333" y1="-11.6667" x2="30.5" y2="60" gradientUnits="userSpaceOnUse">
<stop stop-color="#F1FF2F"/>
<stop offset="1" stop-color="#96DD6F"/>
</linearGradient>
</defs>
</svg>
