<svg width="60" height="60" viewBox="0 0 60 60" fill="none" xmlns="http://www.w3.org/2000/svg">
<rect width="60" height="60" rx="10" fill="url(#paint0_linear_18_692)"/>
<g clip-path="url(#clip0_18_692)">
<path d="M34.421 27.8871H45.3642H47.4888C47.809 27.8871 48.0746 27.6215 48.0746 27.3013V24.669C48.0746 24.3487 47.809 24.0831 47.4888 24.0831H34.421C34.1008 24.0831 33.8352 24.3487 33.8352 24.669V27.3013C33.8352 27.6293 34.1008 27.8871 34.421 27.8871Z" fill="#093254"/>
<path d="M16.8073 32.8237H23.595C26.6335 32.8237 29.1017 30.3554 29.1017 27.3169C29.1017 24.2784 26.6335 21.8102 23.595 21.8102H16.8073C13.7688 21.8102 11.3005 24.2784 11.3005 27.3169C11.3005 30.3554 13.7688 32.8237 16.8073 32.8237ZM22.2515 25.2392C22.0797 24.9814 22.1422 24.6221 22.4077 24.4503C22.6655 24.2784 23.0248 24.3409 23.1967 24.6065L24.3371 26.3015L25.4775 24.6065C25.6493 24.3487 26.0086 24.2784 26.2664 24.4503C26.5241 24.6221 26.5944 24.9814 26.4226 25.2392L25.0244 27.3169L26.4226 29.3946C26.5944 29.6524 26.5319 30.0117 26.2664 30.1835C26.1726 30.246 26.0555 30.2773 25.9539 30.2773C25.7743 30.2773 25.5946 30.1914 25.4853 30.0273L24.3449 28.3323L23.2045 30.0273C23.0951 30.1914 22.9155 30.2773 22.7358 30.2773C22.6265 30.2773 22.5171 30.246 22.4234 30.1835C22.1656 30.0117 22.0953 29.6524 22.2671 29.3946L23.6653 27.3169L22.2515 25.2392ZM19.4864 24.3566C19.7208 24.3566 19.9317 24.4972 20.0176 24.7159L21.2283 27.7856L21.8766 29.4337C21.9938 29.7227 21.8454 30.0586 21.5563 30.1679C21.2673 30.2851 20.9315 30.1367 20.8221 29.8477L20.3144 28.5667H18.6585L18.1273 29.9102C18.0414 30.1367 17.8227 30.2695 17.5962 30.2695C17.5259 30.2695 17.4556 30.2538 17.3853 30.2304C17.0963 30.1132 16.9479 29.7852 17.065 29.4962L18.9553 24.7081C19.0412 24.4972 19.2521 24.3566 19.4864 24.3566ZM14.4562 24.3566H17.315C17.6274 24.3566 17.8852 24.6143 17.8852 24.9268C17.8852 25.2392 17.6274 25.497 17.315 25.497H16.4558V29.7149C16.4558 30.0273 16.198 30.2851 15.8856 30.2851C15.5731 30.2851 15.3154 30.0273 15.3154 29.7149V25.497H14.4562C14.1437 25.497 13.886 25.2392 13.886 24.9268C13.886 24.6143 14.1437 24.3566 14.4562 24.3566Z" fill="#093254"/>
<path d="M35.0382 37.7602H46.739C47.0593 37.7602 47.3249 37.4947 47.3249 37.1744V34.5421C47.3249 34.2219 47.0593 33.9563 46.739 33.9563H45.3721H33.6713C33.351 33.9563 33.0854 34.2219 33.0854 34.5421V37.1744C33.0854 37.4947 33.351 37.7602 33.6713 37.7602H35.0382Z" fill="#093254"/>
<path d="M40.9587 20.3886C43.1145 20.3886 44.872 18.6311 44.872 16.4753C44.872 14.3195 43.1145 12.562 40.9587 12.562C38.8029 12.562 37.0454 14.3195 37.0454 16.4753C37.0454 18.6311 38.8029 20.3886 40.9587 20.3886ZM42.1772 18.264C41.8648 18.264 41.607 18.0063 41.607 17.6938C41.607 17.3814 41.8648 17.1236 42.1772 17.1236C42.4897 17.1236 42.7474 17.3814 42.7474 17.6938C42.7474 18.0063 42.4897 18.264 42.1772 18.264ZM39.7402 14.6866C40.0526 14.6866 40.3104 14.9444 40.3104 15.2568C40.3104 15.5692 40.0526 15.827 39.7402 15.827C39.4278 15.827 39.17 15.5692 39.17 15.2568C39.17 14.9444 39.4278 14.6866 39.7402 14.6866ZM38.7873 17.8422L42.3256 14.3039C42.5443 14.0852 42.9036 14.0852 43.1302 14.3039C43.3489 14.5226 43.3489 14.8819 43.1302 15.1084L39.5918 18.6468C39.4824 18.7561 39.334 18.8108 39.1934 18.8108C39.045 18.8108 38.9044 18.7561 38.7951 18.6468C38.5685 18.4281 38.5685 18.0687 38.7873 17.8422Z" fill="#093254"/>
<path d="M40.9587 22.9506C44.5283 22.9506 47.434 20.0449 47.434 16.4753C47.434 12.9057 44.5283 10 40.9587 10C37.3891 10 34.4834 12.9057 34.4834 16.4753C34.4834 20.0449 37.3891 22.9506 40.9587 22.9506ZM40.9587 11.4294C43.7394 11.4294 46.0046 13.6946 46.0046 16.4753C46.0046 19.256 43.7394 21.5212 40.9587 21.5212C38.178 21.5212 35.9128 19.256 35.9128 16.4753C35.9128 13.6946 38.178 11.4294 40.9587 11.4294Z" fill="#093254"/>
<path d="M19.4865 26.4734L19.1038 27.442H19.8692L19.4865 26.4734Z" fill="#093254"/>
<path d="M26.735 38.9006H15.6434C15.3232 38.9006 15.0576 39.1662 15.0576 39.4865V42.1188C15.0576 42.439 15.3232 42.7046 15.6434 42.7046H27.727H28.7112C29.0315 42.7046 29.297 42.439 29.297 42.1188V39.4865C29.297 39.1662 29.0315 38.9006 28.7112 38.9006H26.735Z" fill="#093254"/>
<path d="M32.4058 44.423V47.0553C32.4058 47.3755 32.6713 47.6411 32.9916 47.6411H46.0593C46.3796 47.6411 46.6452 47.3755 46.6452 47.0553V44.423C46.6452 44.1027 46.3796 43.8372 46.0593 43.8372H35.0381H32.9994C32.6713 43.8372 32.4058 44.0949 32.4058 44.423Z" fill="#093254"/>
<path d="M32.2965 32.8237H33.6634H45.3643C45.6845 32.8237 45.9501 32.5581 45.9501 32.2379V29.6056C45.9501 29.2853 45.6845 29.0198 45.3643 29.0198H34.4211H32.2965C31.9763 29.0198 31.7107 29.2853 31.7107 29.6056V32.2379C31.7107 32.566 31.9763 32.8237 32.2965 32.8237Z" fill="#093254"/>
<path d="M35.038 38.9006C34.7177 38.9006 34.4521 39.1662 34.4521 39.4865V42.1188C34.4521 42.439 34.7177 42.7046 35.038 42.7046H46.0671H48.1057C48.426 42.7046 48.6916 42.439 48.6916 42.1188V39.4865C48.6916 39.1662 48.426 38.9006 48.1057 38.9006H46.7388H35.038Z" fill="#093254"/>
<path d="M14.6593 47.6333H27.7271C28.0473 47.6333 28.3129 47.3677 28.3129 47.0475V44.4152C28.3129 44.0949 28.0473 43.8293 27.7271 43.8293H15.6435H14.6593C14.3391 43.8293 14.0735 44.0949 14.0735 44.4152V47.0475C14.0735 47.3755 14.3312 47.6333 14.6593 47.6333Z" fill="#093254"/>
<path d="M26.7351 37.7602C27.0554 37.7602 27.3209 37.4947 27.3209 37.1744V34.5421C27.3209 34.2219 27.0554 33.9563 26.7351 33.9563H23.5951H16.8074H13.6674C13.3471 33.9563 13.0815 34.2219 13.0815 34.5421V37.1744C13.0815 37.4947 13.3471 37.7602 13.6674 37.7602H15.6435H26.7351Z" fill="#093254"/>
<path d="M49.3712 48.8596H10.621C10.3085 48.8596 10.0508 49.1174 10.0508 49.4298C10.0508 49.7423 10.3085 50 10.621 50H49.379C49.6915 50 49.9492 49.7423 49.9492 49.4298C49.9414 49.1096 49.6915 48.8596 49.3712 48.8596Z" fill="#093254"/>
</g>
<defs>
<linearGradient id="paint0_linear_18_692" x1="-3.33333" y1="-11.6667" x2="30" y2="60" gradientUnits="userSpaceOnUse">
<stop stop-color="#F1FF2F"/>
<stop offset="1" stop-color="#96DD6F"/>
</linearGradient>
<clipPath id="clip0_18_692">
<rect width="40" height="40" fill="white" transform="translate(10 10)"/>
</clipPath>
</defs>
</svg>
