<svg width="23" height="22" viewBox="0 0 23 22" fill="none" xmlns="http://www.w3.org/2000/svg">
<g clip-path="url(#clip0_168_522)">
<path d="M11.2266 22C17.3017 22 22.2266 17.0751 22.2266 11C22.2266 4.92487 17.3017 0 11.2266 0C5.15143 0 0.226562 4.92487 0.226562 11C0.226562 17.0751 5.15143 22 11.2266 22Z" fill="#0B69C7"/>
<path d="M8.76646 7.00092C8.76674 7.29819 8.67884 7.58885 8.51386 7.83614C8.34889 8.08342 8.11427 8.27621 7.83969 8.3901C7.56511 8.50399 7.26291 8.53386 6.97135 8.47594C6.67978 8.41802 6.41195 8.2749 6.20175 8.0647C5.99156 7.85451 5.84844 7.58668 5.79052 7.29511C5.73259 7.00355 5.76247 6.70135 5.87636 6.42677C5.99025 6.15219 6.18303 5.91756 6.43032 5.75259C6.6776 5.58762 6.96827 5.49971 7.26553 5.5C7.66349 5.50038 8.04503 5.65864 8.32642 5.94003C8.60782 6.22143 8.76607 6.60297 8.76646 7.00092Z" fill="white"/>
<path d="M8.05602 9.12854H6.47549C6.27005 9.12854 6.10352 9.29508 6.10352 9.50051V16.128C6.10352 16.3334 6.27005 16.5 6.47549 16.5H8.05602C8.26145 16.5 8.42799 16.3334 8.42799 16.128V9.50051C8.42799 9.29508 8.26145 9.12854 8.05602 9.12854Z" fill="white"/>
<path d="M16.6912 12.9496V16.1584C16.6912 16.249 16.6552 16.3359 16.5911 16.3999C16.5271 16.464 16.4402 16.5 16.3496 16.5H14.6533C14.5627 16.5 14.4758 16.464 14.4118 16.3999C14.3477 16.3359 14.3117 16.249 14.3117 16.1584V13.0495C14.3117 12.5849 14.4463 11.0231 13.0988 11.0231C12.0538 11.0231 11.8411 12.0971 11.7962 12.5791V16.1656C11.7943 16.2545 11.7579 16.3391 11.6947 16.4015C11.6314 16.4639 11.5464 16.4993 11.4575 16.5H9.81619C9.77128 16.5002 9.72678 16.4915 9.68525 16.4744C9.64372 16.4573 9.60599 16.4321 9.57423 16.4004C9.54247 16.3686 9.51732 16.3309 9.50022 16.2894C9.48313 16.2478 9.47442 16.2033 9.47461 16.1584V9.47157C9.47442 9.42659 9.48312 9.38202 9.5002 9.34041C9.51728 9.2988 9.54241 9.26097 9.57415 9.2291C9.60588 9.19723 9.6436 9.17194 9.68514 9.15468C9.72668 9.13742 9.77121 9.12854 9.81619 9.12854H11.4575C11.503 9.12777 11.5483 9.13608 11.5906 9.15297C11.6328 9.16987 11.6713 9.19501 11.7038 9.22694C11.7363 9.25887 11.7621 9.29695 11.7797 9.33895C11.7973 9.38095 11.8063 9.42603 11.8063 9.47157V10.0505C12.1942 9.47157 12.7703 9.01999 13.9962 9.01999C16.7071 9.01854 16.6912 11.5558 16.6912 12.9496Z" fill="white"/>
</g>
<defs>
<clipPath id="clip0_168_522">
<rect width="22" height="22" fill="white" transform="translate(0.226562)"/>
</clipPath>
</defs>
</svg>
