<svg width="21" height="21" viewBox="0 0 21 21" fill="none" xmlns="http://www.w3.org/2000/svg">
<path d="M10.5 0.364258C4.978 0.364258 0.5 4.84225 0.5 10.3643C0.5 15.8863 4.978 20.3643 10.5 20.3643C16.022 20.3643 20.5 15.8863 20.5 10.3643C20.5 4.84225 16.022 0.364258 10.5 0.364258ZM7.59412 15.4814H5.15866V8.15433H7.59412V15.4814ZM6.37646 7.15381H6.3606C5.54333 7.15381 5.01477 6.59122 5.01477 5.88809C5.01477 5.1691 5.55951 4.62207 6.39264 4.62207C7.22577 4.62207 7.73846 5.1691 7.75433 5.88809C7.75433 6.59122 7.22577 7.15381 6.37646 7.15381ZM16.3759 15.4814H13.9407V11.5616C13.9407 10.5765 13.5881 9.90466 12.7069 9.90466C12.0341 9.90466 11.6334 10.3578 11.4573 10.7953C11.3929 10.9519 11.3772 11.1707 11.3772 11.3896V15.4814H8.94193C8.94193 15.4814 8.97382 8.84174 8.94193 8.15433H11.3772V9.19177C11.7009 8.6925 12.2799 7.98236 13.5721 7.98236C15.1744 7.98236 16.3759 9.02957 16.3759 11.2801V15.4814Z" fill="#83829C"/>
</svg>
