<svg width="20" height="20" viewBox="0 0 20 20" fill="none" xmlns="http://www.w3.org/2000/svg">
<g clip-path="url(#clip0_106_1696)">
<path d="M10 20C9.90167 20 9.80333 19.965 9.72417 19.8958C9.42917 19.635 2.5 13.4533 2.5 7.5C2.5 3.36417 5.865 0 10 0C14.135 0 17.5 3.36417 17.5 7.5C17.5 13.4533 10.5708 19.635 10.2758 19.8958C10.1967 19.965 10.0983 20 10 20ZM10 0.833333C6.32417 0.833333 3.33333 3.82417 3.33333 7.5C3.33333 12.4317 8.70917 17.7983 10 19.0158C11.2908 17.7983 16.6667 12.4317 16.6667 7.5C16.6667 3.82417 13.6758 0.833333 10 0.833333Z" fill="#FE8903"/>
<path d="M10.0007 11.6667C7.70315 11.6667 5.83398 9.79751 5.83398 7.50001C5.83398 5.20251 7.70315 3.33334 10.0007 3.33334C12.2982 3.33334 14.1673 5.20251 14.1673 7.50001C14.1673 9.79751 12.2982 11.6667 10.0007 11.6667ZM10.0007 4.16668C8.16232 4.16668 6.66732 5.66168 6.66732 7.50001C6.66732 9.33834 8.16232 10.8333 10.0007 10.8333C11.839 10.8333 13.334 9.33834 13.334 7.50001C13.334 5.66168 11.839 4.16668 10.0007 4.16668Z" fill="#FE8903"/>
</g>
<defs>
<clipPath id="clip0_106_1696">
<rect width="20" height="20" fill="white"/>
</clipPath>
</defs>
</svg>
