<svg width="185" height="51" viewBox="0 0 185 51" fill="none" xmlns="http://www.w3.org/2000/svg">
<mask id="mask0_18_35" style="mask-type:alpha" maskUnits="userSpaceOnUse" x="0" y="12" width="24" height="25">
<path d="M13.4789 23.6327H2.93637C2.52695 23.6327 2.23114 23.2435 2.34169 22.8503L5.23628 12.5574C5.311 12.2908 5.55358 12.107 5.83096 12.107H16.3735C16.7819 12.107 17.0777 12.4971 16.9672 12.8894L14.0736 23.1833C13.9989 23.4489 13.7553 23.6327 13.4789 23.6327ZM6.63138 31.4027L8.12167 26.1025C8.23221 25.7093 7.9364 25.3201 7.52698 25.3201H2.10832C1.83094 25.3201 1.58836 25.504 1.51364 25.7695L0.023351 31.0697C-0.0871922 31.463 0.208613 31.8521 0.618033 31.8521H6.0367C6.31408 31.8521 6.55666 31.6683 6.63138 31.4027ZM9.37346 25.7695L6.47989 36.0634C6.36935 36.4557 6.66516 36.8459 7.07355 36.8459H17.6161C17.8925 36.8459 18.1361 36.662 18.2108 36.3954L21.1044 26.1025C21.2149 25.7093 20.9191 25.3201 20.5107 25.3201H9.96815C9.69179 25.3201 9.44818 25.504 9.37346 25.7695ZM16.8157 17.5501L15.3254 22.8503C15.2149 23.2435 15.5107 23.6327 15.9191 23.6327H21.3387C21.6161 23.6327 21.8587 23.4489 21.9334 23.1833L23.4237 17.8831C23.5343 17.4899 23.2385 17.1007 22.829 17.1007H17.4093C17.133 17.1007 16.8904 17.2846 16.8157 17.5501Z" fill="black"/>
</mask>
<g mask="url(#mask0_18_35)">
<path d="M-0.0871582 12.107V36.8162H23.4934V12.107H-0.0871582Z" fill="url(#paint0_linear_18_35)"/>
</g>
<mask id="mask1_18_35" style="mask-type:luminance" maskUnits="userSpaceOnUse" x="159" y="10" width="26" height="27">
<path d="M159.889 10.5544H185V36.8336H159.889V10.5544Z" fill="white"/>
</mask>
<g mask="url(#mask1_18_35)">
<mask id="mask2_18_35" style="mask-type:luminance" maskUnits="userSpaceOnUse" x="159" y="10" width="26" height="27">
<path d="M174.264 22.8033H163.06C162.626 22.8033 162.312 22.3896 162.429 21.9719L165.504 11.0345C165.584 10.7515 165.842 10.5564 166.136 10.5564H177.34C177.774 10.5564 178.088 10.9701 177.971 11.3879L174.895 22.3263C174.816 22.6082 174.558 22.8033 174.264 22.8033ZM166.986 31.0605L168.571 25.4284C168.688 25.0106 168.373 24.5969 167.939 24.5969H162.18C161.886 24.5969 161.628 24.792 161.548 25.075L159.965 30.7071C159.847 31.1238 160.161 31.5385 160.596 31.5385H166.355C166.65 31.5385 166.908 31.3424 166.986 31.0605ZM169.901 25.075L166.826 36.0134C166.708 36.4301 167.022 36.8448 167.457 36.8448H178.66C178.954 36.8448 179.212 36.6487 179.291 36.3668L182.367 25.4284C182.485 25.0106 182.171 24.5969 181.736 24.5969H170.533C170.238 24.5969 169.98 24.792 169.901 25.075ZM177.809 16.3408L176.226 21.9719C176.108 22.3896 176.422 22.8033 176.857 22.8033H182.616C182.91 22.8033 183.168 22.6082 183.248 22.3263L184.831 16.6942C184.949 16.2764 184.634 15.8627 184.199 15.8627H178.441C178.147 15.8627 177.888 16.0578 177.809 16.3408Z" fill="white"/>
</mask>
<g mask="url(#mask2_18_35)">
<path d="M159.847 10.5564V36.8336H184.949V10.5564H159.847Z" fill="url(#paint1_linear_18_35)"/>
</g>
</g>
<path d="M140.503 28.9833C140.47 31.0129 139.921 32.6155 138.857 33.7922C137.792 34.9668 136.074 35.5531 133.702 35.5531C131.12 35.5531 129.212 35.0302 127.979 33.9842C126.744 32.9383 126.128 31.2386 126.128 28.8853V19.5658C126.128 19.3891 126.091 19.2696 126.018 19.2063C125.946 19.1409 125.789 19.0837 125.547 19.0347L124.65 18.8426V18.3564H132.49V18.8426L131.622 19.0347C131.395 19.0837 131.246 19.1368 131.172 19.194C131.1 19.2492 131.066 19.3646 131.066 19.5413V29.3224C131.066 30.6901 131.161 31.7524 131.352 32.5093C131.546 33.2672 131.921 33.8269 132.478 34.1885C133.035 34.5511 133.854 34.7319 134.935 34.7319C136.484 34.7319 137.671 34.2253 138.493 33.212C139.317 32.1967 139.729 30.8505 139.729 29.1754V19.5658C139.729 19.3891 139.692 19.2696 139.618 19.2063C139.547 19.1409 139.39 19.0837 139.148 19.0347L138.251 18.8426V18.3564H141.932V18.8426L141.06 19.0347C140.832 19.0837 140.683 19.1368 140.609 19.194C140.538 19.2492 140.503 19.3646 140.503 19.5413V28.9833Z" fill="#5AB15B"/>
<path fill-rule="evenodd" clip-rule="evenodd" d="M102.008 1.668C103.016 1.66596 104.02 1.73542 105.019 1.87637C106.018 2.01733 107.003 2.22774 107.972 2.50761C108.94 2.78748 109.885 3.13477 110.805 3.54844C111.724 3.96212 112.611 4.43913 113.462 4.97844C112.909 4.78947 112.347 4.62707 111.776 4.4902C111.207 4.35333 110.633 4.24301 110.054 4.15926C109.475 4.0755 108.892 4.01728 108.308 3.98663C107.722 3.95599 107.138 3.95191 106.552 3.9754C105.967 3.99787 105.384 4.04792 104.804 4.12351C104.223 4.20011 103.647 4.30328 103.076 4.43198C102.505 4.56068 101.941 4.71593 101.384 4.89672C100.828 5.07752 100.28 5.28384 99.7416 5.51469C99.2042 5.74553 98.6781 5.99986 98.1633 6.27973C97.6484 6.55858 97.1479 6.86092 96.6617 7.18574C96.1745 7.51055 95.7047 7.85783 95.2492 8.22555C94.7948 8.59428 94.3577 8.98242 93.9391 9.38997C93.5205 9.79854 93.1202 10.2255 92.7405 10.6698C92.3608 11.1152 92.0025 11.5758 91.6658 12.0538C91.328 12.5319 91.0138 13.0242 90.721 13.5308C90.4293 14.0364 90.1612 14.5553 89.9165 15.0865C89.6729 15.6176 89.4539 16.1589 89.2594 16.7105C89.0649 17.2621 88.8961 17.8208 88.7528 18.3877C88.6095 18.9536 88.4928 19.5256 88.4027 20.1037C88.3126 20.6808 88.2492 21.261 88.2123 21.8442C88.1755 22.4274 88.1652 23.0117 88.1816 23.5949C88.199 24.1792 88.242 24.7614 88.3126 25.3416C88.3833 25.9217 88.4795 26.4978 88.6033 27.0688C88.7262 27.6398 88.8756 28.2046 89.0516 28.7623C89.2267 29.32 89.4273 29.8685 89.6525 30.4078C89.8787 30.9461 90.1284 31.4742 90.4027 31.991C90.677 32.5068 90.9749 33.0094 91.2953 33.4986C91.6167 33.9879 91.9585 34.4608 92.3229 34.9184C92.6873 35.376 93.0711 35.8163 93.4764 36.2381C93.8807 36.661 94.3045 37.0634 94.7456 37.4475C95.1878 37.8305 95.6464 38.1931 96.1213 38.5353C96.5962 38.8764 97.0865 39.1962 97.5911 39.4924L105.622 44.1194C105.257 44.1817 104.891 44.2338 104.525 44.2777C104.157 44.3206 103.79 44.3543 103.421 44.3789C103.053 44.4034 102.683 44.4177 102.314 44.4228C101.944 44.4289 101.575 44.4238 101.205 44.4105C100.837 44.3962 100.467 44.3737 100.1 44.34C99.7313 44.3074 99.3649 44.2655 98.9985 44.2134C98.6331 44.1613 98.2687 44.1 97.9064 44.0295C97.543 43.959 97.1827 43.8794 96.8245 43.7905C96.4652 43.7006 96.11 43.6026 95.7559 43.4943C95.4028 43.3871 95.0527 43.2706 94.7047 43.145C94.3577 43.0193 94.0138 42.8845 93.673 42.7415C93.3331 42.5975 92.9964 42.4453 92.6637 42.2849C92.3311 42.1236 92.0036 41.954 91.6791 41.7763C91.3557 41.5985 91.0363 41.4126 90.7231 41.2186C90.4089 41.0245 90.0998 40.8223 89.7958 40.6118C89.4928 40.4014 89.1949 40.1839 88.9022 39.9581C88.6095 39.7324 88.3239 39.4995 88.0434 39.2595C87.763 39.0184 87.4897 38.7712 87.2215 38.5169C86.9544 38.2626 86.6934 38.0011 86.4395 37.7335C86.1857 37.4648 85.939 37.1911 85.6995 36.9102C85.46 36.6293 85.2277 36.3423 85.0035 36.0502C84.7783 35.757 84.5613 35.4588 84.3525 35.1554C84.1427 34.851 83.9421 34.5425 83.7486 34.2279C83.5552 33.9133 83.3699 33.5947 83.1939 33.2709C83.0168 32.9471 82.8489 32.6182 82.6893 32.2862C82.5286 31.9532 82.3781 31.6172 82.2358 31.2771C82.0936 30.9359 81.9605 30.5927 81.8356 30.2454C81.7118 29.8981 81.5961 29.5478 81.4897 29.1944C81.3832 28.841 81.286 28.4855 81.199 28.128C81.111 27.7695 81.0321 27.4089 80.9636 27.0473C80.894 26.6847 80.8346 26.3211 80.7844 25.9554C80.7343 25.5898 80.6933 25.2241 80.6616 24.8564C80.6309 24.4887 80.6084 24.121 80.5961 23.7522C80.5838 23.3835 80.5818 23.0147 80.5889 22.646C80.5951 22.2783 80.6125 21.9096 80.6381 21.5419C80.6637 21.1741 80.6995 20.8064 80.7445 20.4408C80.7896 20.0751 80.8438 19.7104 80.9083 19.3468C80.9717 18.9842 81.0454 18.6226 81.1284 18.2631C81.2102 17.9035 81.3024 17.5471 81.4037 17.1916C81.505 16.8372 81.6156 16.4858 81.7343 16.1365C81.854 15.7882 81.983 15.4419 82.1202 15.0997C82.2573 14.7576 82.4037 14.4184 82.5583 14.0844C82.7128 13.7494 82.8766 13.4185 83.0485 13.0926C83.2205 12.7658 83.4017 12.444 83.59 12.1274C83.7783 11.8097 83.9759 11.4982 84.1806 11.1918C84.3853 10.8843 84.5982 10.583 84.8182 10.2868C85.0393 9.99159 85.2676 9.7015 85.503 9.41755C85.7384 9.13359 85.981 8.85576 86.2307 8.58407C86.4815 8.31237 86.7384 8.0468 87.0015 7.7894C87.2655 7.53098 87.5358 7.27971 87.8121 7.03456C88.0895 6.79044 88.372 6.55347 88.6617 6.32365C88.9503 6.09383 89.2451 5.87218 89.546 5.65768C89.8459 5.44319 90.152 5.23686 90.4631 5.03768C90.7743 4.8385 91.0906 4.64852 91.4119 4.46568C91.7333 4.28387 92.0588 4.10921 92.3894 3.94373C92.719 3.77826 93.0537 3.62199 93.3915 3.47286C93.7303 3.32475 94.0721 3.18584 94.4181 3.0551C94.763 2.92435 95.1121 2.8028 95.4642 2.68943C95.8152 2.57707 96.1704 2.47391 96.5276 2.37891C96.8849 2.28494 97.2441 2.20016 97.6054 2.12458C97.9678 2.04797 98.3311 1.98158 98.6955 1.9254C99.0609 1.8682 99.4274 1.82019 99.7948 1.7824C100.162 1.74461 100.531 1.71601 100.899 1.6966C101.269 1.67719 101.638 1.668 102.008 1.668Z" fill="#5AB15B"/>
<path fill-rule="evenodd" clip-rule="evenodd" d="M112.752 39.9857L122.811 45.7813L119.884 50.8373L98.8552 38.7212C98.544 38.5537 98.239 38.378 97.9391 38.1931C95.8511 36.9061 94.1008 35.2596 92.6903 33.2545C93.0189 33.5528 93.3608 33.8347 93.7159 34.1003C94.0721 34.3658 94.4396 34.613 94.8193 34.8439C95.1991 35.0737 95.588 35.2851 95.9882 35.4782C96.3884 35.6702 96.7968 35.8438 97.2134 35.9971C97.63 36.1513 98.0527 36.2841 98.4826 36.3964C98.9115 36.5098 99.3455 36.6017 99.7846 36.6732C100.223 36.7437 100.663 36.7938 101.106 36.8224C101.549 36.852 101.993 36.8591 102.438 36.8448C102.881 36.8316 103.323 36.7968 103.764 36.7396C104.204 36.6834 104.641 36.6068 105.074 36.5078C105.507 36.4097 105.935 36.2912 106.356 36.1513C106.777 36.0124 107.192 35.853 107.598 35.6743C108.004 35.4945 108.401 35.2964 108.788 35.0788C109.175 34.8622 109.551 34.6263 109.916 34.373C110.28 34.1197 110.631 33.85 110.969 33.562C111.308 33.275 111.631 32.9726 111.94 32.6539C112.249 32.3363 112.543 32.0033 112.819 31.657C113.097 31.3108 113.357 30.9522 113.598 30.5804C113.841 30.2097 114.065 29.8277 114.271 29.4344C114.477 29.0412 114.663 28.6397 114.829 28.2291C114.996 27.8185 115.143 27.3997 115.269 26.9748C115.396 26.5509 115.501 26.1209 115.586 25.6858C115.671 25.2506 115.735 24.8125 115.777 24.3712C115.82 23.9299 115.841 23.4877 115.841 23.0444C115.841 22.6011 115.82 22.1588 115.777 21.7186C115.735 21.2773 115.671 20.8391 115.586 20.404C115.501 19.9689 115.396 19.5388 115.269 19.1139C115.143 18.689 114.996 18.2713 114.829 17.8606C114.663 17.45 114.477 17.0476 114.271 16.6554C114.065 16.2621 113.841 15.8801 113.598 15.5083C113.357 15.1375 113.097 14.778 112.819 14.4317C112.543 14.0855 112.249 13.7535 111.94 13.4348C111.631 13.1161 111.308 12.8138 110.969 12.5268C110.631 12.2397 110.28 11.9691 109.916 11.7158C109.551 11.4624 109.175 11.2275 108.788 11.01C108.401 10.7924 108.004 10.5942 107.598 10.4155C107.192 10.2367 106.777 10.0774 106.356 9.93746C105.935 9.79854 105.507 9.67904 105.074 9.58098C104.641 9.48292 104.204 9.40529 103.764 9.34911C103.323 9.29294 102.881 9.25821 102.438 9.24391C101.993 9.23063 101.549 9.23778 101.106 9.26638C100.663 9.29498 100.223 9.34503 99.7846 9.41653C99.3455 9.48701 98.9115 9.57996 98.4826 9.69231C98.0527 9.80569 97.63 9.93848 97.2134 10.0917C96.7968 10.2459 96.3884 10.4185 95.9882 10.6116C95.588 10.8036 95.1991 11.0151 94.8193 11.2459C94.4396 11.4757 94.0721 11.7239 93.7159 11.9895C93.3608 12.2551 93.0189 12.537 92.6903 12.8352C93.0998 12.252 93.543 11.6943 94.0189 11.1642C94.4959 10.6341 95.0025 10.1336 95.5389 9.66371C96.0752 9.19386 96.6382 8.75873 97.2277 8.35629C97.8173 7.95385 98.4284 7.5892 99.0619 7.2603C99.6945 6.9314 100.345 6.64132 101.014 6.39107C101.682 6.14082 102.363 5.93041 103.056 5.76187C103.75 5.59334 104.451 5.46566 105.159 5.38088C105.869 5.2961 106.58 5.25422 107.293 5.25525C127.249 5.25525 128.442 34.9552 112.752 39.9857Z" fill="#FE8903"/>
<path d="M156.435 8.29398C156.435 8.49622 156.425 8.69846 156.405 8.89968C156.385 9.1009 156.355 9.3011 156.316 9.50028C156.276 9.69844 156.227 9.89455 156.168 10.0886C156.109 10.2827 156.041 10.4727 155.963 10.6596C155.885 10.8465 155.799 11.0294 155.703 11.2081C155.608 11.3868 155.503 11.5605 155.391 11.729C155.278 11.8976 155.158 12.06 155.029 12.2162C154.9 12.3725 154.763 12.5227 154.62 12.6657C154.477 12.8087 154.326 12.9445 154.17 13.0732C154.013 13.2019 153.85 13.3224 153.682 13.4348C153.513 13.5472 153.339 13.6513 153.16 13.7463C152.981 13.8424 152.798 13.9282 152.61 14.0058C152.423 14.0834 152.232 14.1518 152.038 14.2101C151.843 14.2693 151.647 14.3183 151.448 14.3582C151.249 14.397 151.049 14.4266 150.846 14.447C150.645 14.4664 150.442 14.4767 150.239 14.4767C150.037 14.4767 149.834 14.4664 149.632 14.447C149.43 14.4266 149.23 14.397 149.031 14.3582C148.832 14.3183 148.635 14.2693 148.441 14.2101C148.247 14.1518 148.056 14.0834 147.869 14.0058C147.68 13.9282 147.497 13.8424 147.319 13.7463C147.14 13.6513 146.966 13.5472 146.797 13.4348C146.628 13.3224 146.466 13.2019 146.309 13.0732C146.152 12.9445 146.002 12.8087 145.859 12.6657C145.715 12.5227 145.579 12.3725 145.45 12.2162C145.321 12.06 145.2 11.8976 145.088 11.729C144.975 11.5605 144.871 11.3868 144.776 11.2081C144.679 11.0294 144.593 10.8465 144.516 10.6596C144.438 10.4727 144.369 10.2827 144.311 10.0886C144.252 9.89455 144.202 9.69844 144.163 9.50028C144.124 9.3011 144.094 9.1009 144.073 8.89968C144.054 8.69846 144.044 8.49622 144.044 8.29398C144.044 8.09173 144.054 7.88949 144.073 7.68827C144.094 7.48603 144.124 7.28583 144.163 7.08767C144.202 6.8885 144.252 6.69238 144.311 6.49933C144.369 6.30526 144.438 6.11528 144.516 5.92734C144.593 5.74042 144.679 5.55758 144.776 5.37883C144.871 5.2011 144.975 5.02746 145.088 4.85893C145.2 4.69039 145.321 4.52799 145.45 4.37171C145.579 4.21543 145.715 4.06528 145.859 3.92228C146.002 3.77826 146.152 3.64343 146.309 3.51473C146.466 3.38603 146.628 3.26551 146.797 3.15315C146.966 3.04079 147.14 2.93661 147.319 2.84161C147.497 2.7456 147.68 2.65878 147.869 2.58217C148.056 2.50454 148.247 2.43611 148.441 2.37687C148.635 2.31864 148.832 2.26962 149.031 2.22978C149.23 2.18995 149.43 2.16032 149.632 2.14092C149.834 2.12049 150.037 2.1113 150.239 2.1113C150.442 2.1113 150.645 2.12049 150.846 2.14092C151.049 2.16032 151.249 2.18995 151.448 2.22978C151.647 2.26962 151.843 2.31864 152.038 2.37687C152.232 2.43611 152.423 2.50454 152.61 2.58217C152.798 2.65878 152.981 2.7456 153.16 2.84161C153.339 2.93661 153.513 3.04079 153.682 3.15315C153.85 3.26551 154.013 3.38603 154.17 3.51473C154.326 3.64343 154.477 3.77826 154.62 3.92228C154.763 4.06528 154.9 4.21543 155.029 4.37171C155.158 4.52799 155.278 4.69039 155.391 4.85893C155.503 5.02746 155.608 5.2011 155.703 5.37883C155.799 5.55758 155.885 5.74042 155.963 5.92734C156.041 6.11528 156.109 6.30526 156.168 6.49933C156.227 6.69238 156.276 6.8885 156.316 7.08767C156.355 7.28583 156.385 7.48603 156.405 7.68827C156.425 7.88949 156.435 8.09173 156.435 8.29398Z" fill="#FE8903"/>
<path d="M150.462 9.07843H149.538V11.5738H147.83V4.50449H150.618C151.026 4.50449 151.396 4.55046 151.728 4.64341C152.058 4.73533 152.341 4.87118 152.574 5.05095C152.807 5.23073 152.987 5.4534 153.111 5.71794C153.236 5.98352 153.299 6.29096 153.299 6.64131C153.299 6.91301 153.269 7.15509 153.211 7.36652C153.152 7.57898 153.069 7.76488 152.961 7.92524C152.851 8.08561 152.721 8.22452 152.569 8.34301C152.416 8.46047 152.248 8.56363 152.063 8.65045L153.542 11.5012V11.5738H151.712L150.462 9.07843ZM149.538 7.76284H150.618C150.943 7.76284 151.186 7.67704 151.35 7.50748C151.514 7.33792 151.596 7.10095 151.596 6.79657C151.596 6.49218 151.513 6.25317 151.348 6.08055C151.182 5.90691 150.939 5.82009 150.618 5.82009H149.538V7.76284Z" fill="#0D203B"/>
<path d="M150.239 15.6544C148.269 15.6544 146.417 14.8883 145.024 13.4981C143.631 12.108 142.864 10.2602 142.864 8.29398C142.864 6.32774 143.631 4.47896 145.024 3.0888C146.417 1.69864 148.269 0.933598 150.239 0.933598C152.21 0.933598 154.061 1.69864 155.454 3.0888C156.847 4.47896 157.615 6.32774 157.615 8.29398C157.615 10.2602 156.847 12.108 155.454 13.4981C154.061 14.8883 152.21 15.6544 150.239 15.6544ZM150.239 2.24C146.894 2.24 144.173 4.95597 144.173 8.29398C144.173 11.632 146.894 14.348 150.239 14.348C153.584 14.348 156.306 11.632 156.306 8.29398C156.306 4.95597 153.584 2.24 150.239 2.24Z" fill="#0D203B"/>
<path d="M123.521 42.8501L122.264 40.8808C122.225 40.887 122.167 40.889 122.088 40.889H121.298V42.8501H120.581V37.5183H122.006C122.371 37.5183 122.696 37.5826 122.98 37.7103C123.267 37.839 123.49 38.027 123.652 38.2742C123.816 38.5224 123.897 38.8206 123.897 39.1689C123.897 39.4988 123.825 39.8012 123.68 40.0759C123.535 40.3517 123.313 40.5611 123.013 40.7051L124.356 42.8501H123.521ZM122.071 40.1944C122.456 40.1944 122.733 40.0943 122.903 39.8921C123.074 39.6909 123.16 39.461 123.16 39.2016C123.16 39.0443 123.124 38.889 123.05 38.7358C122.978 38.5836 122.866 38.457 122.71 38.3559C122.557 38.2558 122.362 38.2047 122.125 38.2047H121.298V40.1944H122.071Z" fill="white"/>
<path d="M126.718 42.3353C126.973 42.3353 127.223 42.2475 127.467 42.0698L127.782 42.5764C127.62 42.6857 127.444 42.7715 127.254 42.8338C127.066 42.893 126.882 42.9237 126.705 42.9237C126.363 42.9237 126.067 42.8542 125.813 42.7153C125.559 42.5743 125.362 42.3803 125.223 42.1351C125.086 41.89 125.018 41.6122 125.018 41.3017C125.018 41.0024 125.093 40.7286 125.244 40.4804C125.393 40.2332 125.6 40.0371 125.862 39.8921C126.124 39.745 126.408 39.6715 126.718 39.6715C127.119 39.6715 127.452 39.7889 127.721 40.0228C127.988 40.2578 128.171 40.5826 128.269 40.9993L125.845 41.8491C125.936 41.9993 126.055 42.1178 126.206 42.2046C126.355 42.2924 126.526 42.3353 126.718 42.3353ZM126.668 40.2189C126.387 40.2189 126.155 40.317 125.972 40.5131C125.789 40.7092 125.698 40.9605 125.698 41.2649C125.698 41.3384 125.7 41.3946 125.706 41.4324L127.487 40.7787C127.414 40.6101 127.308 40.4753 127.172 40.3742C127.038 40.271 126.87 40.2189 126.668 40.2189Z" fill="white"/>
<path d="M132.266 39.7981V42.8501H131.578V42.3476C131.472 42.4926 131.314 42.6244 131.107 42.7439C130.9 42.8634 130.665 42.9237 130.403 42.9237C130.113 42.9237 129.851 42.8603 129.617 42.7357C129.382 42.6111 129.196 42.4283 129.06 42.1883C128.926 41.9462 128.86 41.6571 128.86 41.3221C128.86 40.9901 128.929 40.7 129.068 40.4518C129.21 40.2016 129.4 40.0096 129.638 39.8757C129.877 39.7399 130.143 39.6715 130.436 39.6715C130.695 39.6715 130.92 39.7287 131.111 39.8431C131.305 39.9554 131.46 40.1025 131.578 40.2843L131.631 39.7981H132.266ZM130.591 42.3558C130.842 42.3558 131.056 42.2863 131.234 42.1474C131.414 42.0064 131.529 41.8154 131.578 41.5754V40.9707C131.521 40.7532 131.398 40.5775 131.21 40.4437C131.023 40.3078 130.809 40.2394 130.567 40.2394C130.384 40.2394 130.215 40.2843 130.059 40.3742C129.906 40.462 129.783 40.5856 129.691 40.746C129.601 40.9043 129.556 41.0841 129.556 41.2853C129.556 41.4845 129.602 41.6653 129.695 41.8287C129.787 41.9901 129.913 42.1178 130.072 42.2128C130.229 42.3088 130.403 42.3558 130.591 42.3558Z" fill="white"/>
<path d="M135.947 42.5641C135.808 42.6765 135.642 42.7643 135.452 42.8297C135.263 42.892 135.071 42.9237 134.874 42.9237C134.544 42.9237 134.252 42.8583 133.998 42.7276C133.744 42.5948 133.546 42.4068 133.405 42.1637C133.265 41.9186 133.196 41.6367 133.196 41.318C133.196 41.0024 133.269 40.7235 133.417 40.4804C133.566 40.2353 133.765 40.0473 134.011 39.9166C134.256 39.7838 134.522 39.7164 134.809 39.7164C135.276 39.7164 135.662 39.8451 135.968 40.1005L135.62 40.5499C135.521 40.4763 135.408 40.414 135.28 40.3619C135.151 40.3109 135.014 40.2843 134.866 40.2843C134.683 40.2843 134.516 40.3313 134.367 40.4232C134.216 40.5131 134.098 40.6377 134.011 40.795C133.926 40.9503 133.884 41.125 133.884 41.318C133.884 41.509 133.929 41.6837 134.019 41.841C134.111 41.9962 134.236 42.1219 134.391 42.2169C134.549 42.3098 134.729 42.3558 134.932 42.3558C135.182 42.3558 135.403 42.2822 135.591 42.1351L135.947 42.5641Z" fill="white"/>
<path d="M138.73 39.6796C139.017 39.6796 139.252 39.7644 139.438 39.9329C139.627 40.1025 139.723 40.3231 139.729 40.5948V42.8501H139.033V40.8277C139.022 40.6561 138.97 40.5213 138.877 40.4232C138.784 40.3252 138.644 40.2741 138.456 40.268C138.278 40.268 138.118 40.317 137.977 40.4151C137.834 40.5131 137.723 40.651 137.641 40.8277C137.559 41.0054 137.518 41.2026 137.518 41.4201V42.8501H136.83V37.1342H137.502V40.3497C137.616 40.1485 137.78 39.9861 137.993 39.8635C138.208 39.7409 138.454 39.6796 138.73 39.6796Z" fill="white"/>
<path d="M145.149 39.6796C145.436 39.6796 145.671 39.7644 145.858 39.933C146.046 40.1025 146.142 40.3231 146.148 40.5948V42.8501H145.452V40.8277C145.441 40.6561 145.389 40.5213 145.297 40.4232C145.204 40.3252 145.063 40.2741 144.875 40.268C144.605 40.268 144.381 40.3773 144.204 40.5948C144.025 40.8104 143.937 41.0851 143.937 41.4201V42.8501H143.25V39.7981H143.872L143.917 40.3865C144.023 40.1658 144.184 39.9932 144.4 39.8676C144.618 39.743 144.868 39.6796 145.149 39.6796Z" fill="white"/>
<path d="M148.768 42.3353C149.023 42.3353 149.273 42.2475 149.517 42.0698L149.832 42.5764C149.67 42.6857 149.494 42.7715 149.304 42.8338C149.116 42.893 148.932 42.9237 148.755 42.9237C148.413 42.9237 148.117 42.8542 147.863 42.7153C147.609 42.5743 147.412 42.3803 147.273 42.1351C147.136 41.89 147.068 41.6122 147.068 41.3017C147.068 41.0024 147.143 40.7286 147.294 40.4804C147.443 40.2332 147.65 40.0371 147.912 39.8921C148.174 39.745 148.458 39.6715 148.768 39.6715C149.169 39.6715 149.502 39.7889 149.771 40.0228C150.038 40.2578 150.221 40.5826 150.319 40.9993L147.896 41.8491C147.986 41.9993 148.105 42.1178 148.256 42.2046C148.405 42.2924 148.576 42.3353 148.768 42.3353ZM148.718 40.2189C148.437 40.2189 148.205 40.317 148.022 40.5131C147.839 40.7092 147.748 40.9605 147.748 41.2649C147.748 41.3384 147.75 41.3946 147.756 41.4324L149.537 40.7787C149.464 40.6101 149.358 40.4753 149.222 40.3742C149.088 40.271 148.92 40.2189 148.718 40.2189Z" fill="white"/>
<path d="M155.426 39.7981L154.013 43.034L153.031 40.9421L152.138 43.034L150.717 39.7981H151.397L152.22 41.6489L152.789 40.3211L152.543 39.7981H153.141L153.968 41.6939L154.746 39.7981H155.426Z" fill="white"/>
<path d="M160.396 39.6796C160.683 39.6796 160.918 39.7644 161.104 39.9329C161.293 40.1025 161.389 40.3231 161.395 40.5948V42.8501H160.699V40.8277C160.688 40.6561 160.636 40.5213 160.543 40.4232C160.45 40.3252 160.31 40.2741 160.122 40.268C159.944 40.268 159.784 40.317 159.643 40.4151C159.5 40.5131 159.389 40.651 159.307 40.8277C159.225 41.0054 159.184 41.2026 159.184 41.4201V42.8501H158.496V37.1342H159.168V40.3497C159.282 40.1485 159.446 39.9861 159.659 39.8635C159.874 39.7409 160.12 39.6796 160.396 39.6796Z" fill="white"/>
<path d="M164.014 42.3353C164.27 42.3353 164.52 42.2475 164.764 42.0698L165.079 42.5764C164.917 42.6857 164.741 42.7715 164.551 42.8338C164.362 42.893 164.179 42.9237 164.002 42.9237C163.66 42.9237 163.363 42.8542 163.109 42.7153C162.856 42.5743 162.659 42.3803 162.52 42.1351C162.383 41.89 162.315 41.6122 162.315 41.3017C162.315 41.0024 162.39 40.7286 162.54 40.4804C162.69 40.2332 162.897 40.0371 163.159 39.8921C163.421 39.745 163.705 39.6715 164.014 39.6715C164.416 39.6715 164.749 39.7889 165.017 40.0228C165.285 40.2578 165.468 40.5826 165.566 40.9993L163.142 41.8491C163.232 41.9993 163.352 42.1178 163.503 42.2046C163.652 42.2924 163.823 42.3353 164.014 42.3353ZM163.965 40.2189C163.684 40.2189 163.451 40.317 163.269 40.5131C163.086 40.7092 162.995 40.9605 162.995 41.2649C162.995 41.3384 162.997 41.3946 163.003 41.4324L164.784 40.7787C164.71 40.6101 164.605 40.4753 164.469 40.3742C164.335 40.271 164.167 40.2189 163.965 40.2189Z" fill="white"/>
<path d="M167.11 39.7981V42.8501H166.423V39.7981H167.11ZM166.373 38.695C166.373 38.5888 166.414 38.4989 166.496 38.4253C166.58 38.3497 166.677 38.3109 166.787 38.3109C166.895 38.3109 166.99 38.3497 167.069 38.4253C167.151 38.4989 167.192 38.5888 167.192 38.695C167.192 38.8043 167.151 38.8952 167.069 38.9687C166.99 39.0423 166.895 39.079 166.787 39.079C166.677 39.079 166.58 39.0423 166.496 38.9687C166.414 38.8952 166.373 38.8043 166.373 38.695Z" fill="white"/>
<path d="M171.537 39.7981V42.8706C171.537 43.1504 171.464 43.4037 171.32 43.6305C171.177 43.8562 170.974 44.036 170.71 44.1698C170.447 44.3026 170.138 44.37 169.784 44.37C169.473 44.37 169.205 44.3179 168.982 44.2148C168.758 44.1106 168.532 43.9584 168.306 43.7572L168.712 43.2832C168.88 43.4405 169.048 43.561 169.215 43.6428C169.384 43.7245 169.569 43.7653 169.772 43.7653C170.11 43.7653 170.372 43.6836 170.558 43.5202C170.743 43.3588 170.837 43.1412 170.841 42.8665L170.849 42.2904C170.736 42.4814 170.57 42.6356 170.349 42.7521C170.13 42.8665 169.878 42.9237 169.592 42.9237C169.31 42.9237 169.051 42.8522 168.814 42.7112C168.578 42.5672 168.39 42.3721 168.249 42.127C168.11 41.8818 168.04 41.6101 168.04 41.3098C168.04 40.9993 168.112 40.7205 168.257 40.4723C168.404 40.2251 168.601 40.03 168.847 39.888C169.092 39.744 169.355 39.6715 169.637 39.6715C169.899 39.6715 170.14 39.7236 170.361 39.8267C170.583 39.9309 170.747 40.0627 170.857 40.223L170.91 39.7981H171.537ZM169.792 42.3558C170.054 42.3558 170.281 42.2853 170.472 42.1433C170.662 41.9993 170.788 41.8124 170.849 41.5836V40.9789C170.78 40.7562 170.649 40.5775 170.456 40.4437C170.264 40.3078 170.043 40.2394 169.792 40.2394C169.491 40.2394 169.241 40.3374 169.039 40.5335C168.836 40.7297 168.736 40.9809 168.736 41.2853C168.736 41.4845 168.782 41.6653 168.875 41.8287C168.967 41.9901 169.096 42.1178 169.26 42.2128C169.424 42.3088 169.601 42.3558 169.792 42.3558Z" fill="white"/>
<path d="M174.631 39.6796C174.917 39.6796 175.153 39.7644 175.339 39.9329C175.527 40.1025 175.624 40.3231 175.63 40.5948V42.8501H174.934V40.8277C174.922 40.6561 174.87 40.5213 174.778 40.4232C174.685 40.3252 174.545 40.2741 174.356 40.268C174.178 40.268 174.019 40.317 173.877 40.4151C173.735 40.5131 173.624 40.651 173.542 40.8277C173.46 41.0054 173.419 41.2026 173.419 41.4201V42.8501H172.731V37.1342H173.402V40.3497C173.517 40.1485 173.681 39.9861 173.894 39.8635C174.109 39.7409 174.354 39.6796 174.631 39.6796Z" fill="white"/>
<path d="M177.807 38.4539V39.8063H178.642V40.3497H177.807V42.8501H177.111V40.3497H176.55V39.8063H177.111V38.4539H177.807Z" fill="white"/>
<path d="M180.339 42.9155C180.112 42.9155 179.897 42.8757 179.692 42.797C179.49 42.7184 179.325 42.604 179.197 42.4538L179.492 42.0534C179.615 42.1709 179.742 42.2618 179.877 42.3272C180.013 42.3905 180.148 42.4211 180.282 42.4211C180.446 42.4211 180.578 42.3905 180.679 42.3272C180.782 42.2618 180.835 42.1637 180.835 42.033C180.835 41.9298 180.802 41.8471 180.736 41.7838C180.673 41.7184 180.601 41.6714 180.519 41.6408C180.439 41.6111 180.303 41.5662 180.11 41.5059C179.588 41.3405 179.328 41.0432 179.328 40.6153C179.328 40.3599 179.422 40.1413 179.61 39.9615C179.801 39.7797 180.067 39.6878 180.409 39.6878C180.624 39.6878 180.815 39.7154 180.982 39.7695C181.151 39.8216 181.306 39.9074 181.449 40.0269L181.174 40.4477C181.095 40.364 180.995 40.2966 180.876 40.2475C180.755 40.1985 180.64 40.172 180.532 40.1658C180.394 40.1658 180.278 40.2006 180.18 40.268C180.081 40.3333 180.032 40.4222 180.032 40.5335C180.032 40.6296 180.063 40.7082 180.126 40.7705C180.192 40.8308 180.258 40.8747 180.327 40.9013C180.394 40.9288 180.53 40.9738 180.732 41.0361C180.983 41.1209 181.178 41.2302 181.318 41.3629C181.459 41.4937 181.531 41.6724 181.531 41.8982C181.531 42.1923 181.426 42.4365 181.219 42.6295C181.012 42.8205 180.718 42.9155 180.339 42.9155Z" fill="white"/>
<path d="M35.6261 34.6107C35.6261 34.7885 35.6609 34.909 35.7326 34.9743C35.8063 35.0397 35.9639 35.0959 36.2075 35.1419L37.1 35.338V35.8201H29.2064V35.338L30.1031 35.1419C30.3456 35.0959 30.5022 35.0397 30.5739 34.9743C30.6476 34.909 30.6844 34.7885 30.6844 34.6107V19.5794H30.1276C29.1419 19.5794 28.3794 19.7419 27.839 20.0656C27.2985 20.3874 26.886 20.8052 26.6025 21.32C26.321 21.8348 25.97 22.656 25.5503 23.7836H25.0181V18.9053H41.2925V23.7836H40.7602C40.3396 22.656 39.9875 21.8348 39.7039 21.32C39.4225 20.8052 39.01 20.3874 38.4675 20.0656C37.9271 19.7419 37.1655 19.5794 36.1829 19.5794H35.6261V34.6107Z" fill="#FE8903"/>
<path d="M52.0887 35.338L53.1327 35.2399C53.3559 35.2072 53.4685 35.1194 53.4685 34.9743C53.4685 34.8926 53.4449 34.7966 53.3989 34.6843L51.798 31.1542H46.1808L44.7274 34.6843C44.6782 34.7966 44.6537 34.8926 44.6537 34.9743C44.6537 35.1194 44.7663 35.2072 44.9935 35.2399L46.0375 35.338V35.8201H42.3527V35.338L43.2494 35.2399C43.4428 35.2236 43.5789 35.1766 43.6588 35.0969C43.7407 35.0152 43.8307 34.8702 43.929 34.6598L50.6353 18.6356H51.4132L58.5084 34.6598C58.6036 34.8702 58.6906 35.0152 58.7704 35.0969C58.8523 35.1766 58.9895 35.2236 59.184 35.2399L60.0806 35.338V35.8201H52.0887V35.338ZM51.4828 30.4311L48.8707 24.6539L46.4715 30.4311H51.4828Z" fill="#FE8903"/>
<path d="M75.5288 20.0411C75.6106 19.9267 75.6516 19.8368 75.6516 19.7715C75.6516 19.6928 75.6188 19.6244 75.5533 19.5672C75.4899 19.51 75.4018 19.4753 75.2872 19.461L74.2227 19.3629V18.9053H78.4848V19.3874L77.5636 19.461C77.2903 19.4753 77.0927 19.5222 76.9699 19.604C76.8491 19.6857 76.6925 19.8389 76.4991 20.0616L71.9955 25.6222L78.0958 34.6598C78.2432 34.8702 78.364 35.0152 78.4602 35.0969C78.5554 35.1766 78.6936 35.2236 78.8737 35.2399L79.8399 35.338V35.8201H71.4387V35.338L72.4049 35.2399C72.6147 35.2236 72.7201 35.1439 72.7201 34.9989C72.7201 34.8712 72.672 34.7496 72.5768 34.6352L68.6996 28.9071L64.1715 34.6843C64.0916 34.7966 64.0527 34.8845 64.0527 34.9498C64.0527 35.0316 64.0834 35.101 64.1469 35.1582C64.2124 35.2134 64.3004 35.2481 64.413 35.2644L65.4816 35.3625V35.8201H61.2196V35.338L62.1367 35.2644C62.412 35.2481 62.6177 35.1929 62.7549 35.0969C62.891 34.9989 63.0415 34.8538 63.2052 34.6598L68.2902 28.282L62.7426 20.0616C62.5972 19.8552 62.4765 19.7102 62.3782 19.6285C62.282 19.5468 62.1459 19.4977 61.9688 19.4814L60.9985 19.3874V18.9053H69.4038V19.3874L68.4335 19.4814C68.2227 19.4977 68.1183 19.5794 68.1183 19.7265C68.1183 19.8389 68.1674 19.9584 68.2657 20.0861L71.5574 24.993L75.5288 20.0411Z" fill="#FE8903"/>
<path d="M143.935 34.5848C144.177 34.5389 144.334 34.4827 144.405 34.4173C144.479 34.3519 144.516 34.2314 144.516 34.0537V19.5658C144.516 19.3891 144.479 19.2696 144.405 19.2063C144.334 19.1409 144.177 19.0837 143.935 19.0347L143.042 18.8426V18.3564H157.949V23.0672H157.343C157.004 22.0213 156.685 21.2328 156.385 20.7016C156.087 20.1705 155.673 19.7691 155.14 19.4963C154.608 19.2216 153.857 19.0837 152.889 19.0837H149.453V26.2541H155.697V26.9813H149.453V34.5399H153.134C154.084 34.5399 154.833 34.3959 155.382 34.1068C155.93 33.8157 156.361 33.3959 156.676 32.8484C156.992 32.3009 157.319 31.5042 157.658 30.4583H158.289V35.263H143.042V34.7809L143.935 34.5848Z" fill="#5AB15B"/>
<defs>
<linearGradient id="paint0_linear_18_35" x1="5.66676" y1="9.75069" x2="17.7211" y2="39.1806" gradientUnits="userSpaceOnUse">
<stop stop-color="#FE8903"/>
<stop offset="0.0625" stop-color="#FE8903"/>
<stop offset="0.09375" stop-color="#FE8903"/>
<stop offset="0.0976562" stop-color="#FD8904"/>
<stop offset="0.101563" stop-color="#FC8A04"/>
<stop offset="0.105469" stop-color="#FB8A05"/>
<stop offset="0.109375" stop-color="#FA8A05"/>
<stop offset="0.113281" stop-color="#F98A06"/>
<stop offset="0.117188" stop-color="#F88A06"/>
<stop offset="0.121094" stop-color="#F78B07"/>
<stop offset="0.125" stop-color="#F68B07"/>
<stop offset="0.128906" stop-color="#F68B08"/>
<stop offset="0.132812" stop-color="#F58B08"/>
<stop offset="0.136719" stop-color="#F48B08"/>
<stop offset="0.140625" stop-color="#F38C09"/>
<stop offset="0.144531" stop-color="#F28C09"/>
<stop offset="0.148438" stop-color="#F18C0A"/>
<stop offset="0.152344" stop-color="#F08C0A"/>
<stop offset="0.15625" stop-color="#F08C0B"/>
<stop offset="0.160156" stop-color="#EF8D0B"/>
<stop offset="0.164063" stop-color="#EE8D0C"/>
<stop offset="0.167969" stop-color="#ED8D0C"/>
<stop offset="0.171875" stop-color="#EC8D0D"/>
<stop offset="0.175781" stop-color="#EB8E0D"/>
<stop offset="0.179688" stop-color="#EA8E0E"/>
<stop offset="0.183594" stop-color="#EA8E0E"/>
<stop offset="0.1875" stop-color="#E98E0E"/>
<stop offset="0.191406" stop-color="#E88E0F"/>
<stop offset="0.195312" stop-color="#E78F0F"/>
<stop offset="0.199219" stop-color="#E68F10"/>
<stop offset="0.203125" stop-color="#E58F10"/>
<stop offset="0.207031" stop-color="#E48F11"/>
<stop offset="0.210938" stop-color="#E38F11"/>
<stop offset="0.214844" stop-color="#E39012"/>
<stop offset="0.21875" stop-color="#E29012"/>
<stop offset="0.222656" stop-color="#E19013"/>
<stop offset="0.226562" stop-color="#E09013"/>
<stop offset="0.230469" stop-color="#DF9014"/>
<stop offset="0.234375" stop-color="#DE9114"/>
<stop offset="0.238281" stop-color="#DD9115"/>
<stop offset="0.242188" stop-color="#DD9115"/>
<stop offset="0.246094" stop-color="#DC9115"/>
<stop offset="0.25" stop-color="#DB9216"/>
<stop offset="0.253906" stop-color="#DA9216"/>
<stop offset="0.257812" stop-color="#D99217"/>
<stop offset="0.261719" stop-color="#D89217"/>
<stop offset="0.265625" stop-color="#D79218"/>
<stop offset="0.269531" stop-color="#D79318"/>
<stop offset="0.273438" stop-color="#D69319"/>
<stop offset="0.277344" stop-color="#D59319"/>
<stop offset="0.28125" stop-color="#D4931A"/>
<stop offset="0.285156" stop-color="#D3931A"/>
<stop offset="0.289062" stop-color="#D2941B"/>
<stop offset="0.292969" stop-color="#D1941B"/>
<stop offset="0.296875" stop-color="#D0941B"/>
<stop offset="0.300781" stop-color="#D0941C"/>
<stop offset="0.304688" stop-color="#CF941C"/>
<stop offset="0.308594" stop-color="#CE951D"/>
<stop offset="0.3125" stop-color="#CD951D"/>
<stop offset="0.316406" stop-color="#CC951E"/>
<stop offset="0.320312" stop-color="#CB951E"/>
<stop offset="0.324219" stop-color="#CA961F"/>
<stop offset="0.328125" stop-color="#CA961F"/>
<stop offset="0.332031" stop-color="#C99620"/>
<stop offset="0.335938" stop-color="#C89620"/>
<stop offset="0.339844" stop-color="#C79621"/>
<stop offset="0.34375" stop-color="#C69721"/>
<stop offset="0.347656" stop-color="#C59721"/>
<stop offset="0.351563" stop-color="#C49722"/>
<stop offset="0.355469" stop-color="#C49722"/>
<stop offset="0.359375" stop-color="#C39723"/>
<stop offset="0.363281" stop-color="#C29823"/>
<stop offset="0.367188" stop-color="#C19824"/>
<stop offset="0.371094" stop-color="#C09824"/>
<stop offset="0.375" stop-color="#BF9825"/>
<stop offset="0.378906" stop-color="#BE9825"/>
<stop offset="0.382813" stop-color="#BE9926"/>
<stop offset="0.386719" stop-color="#BD9926"/>
<stop offset="0.390625" stop-color="#BC9927"/>
<stop offset="0.394531" stop-color="#BB9927"/>
<stop offset="0.398438" stop-color="#BA9A28"/>
<stop offset="0.402344" stop-color="#B99A28"/>
<stop offset="0.40625" stop-color="#B89A28"/>
<stop offset="0.410156" stop-color="#B79A29"/>
<stop offset="0.414062" stop-color="#B79A29"/>
<stop offset="0.417969" stop-color="#B69B2A"/>
<stop offset="0.421875" stop-color="#B59B2A"/>
<stop offset="0.425781" stop-color="#B49B2B"/>
<stop offset="0.429688" stop-color="#B39B2B"/>
<stop offset="0.433594" stop-color="#B29B2C"/>
<stop offset="0.4375" stop-color="#B19C2C"/>
<stop offset="0.441406" stop-color="#B19C2D"/>
<stop offset="0.445312" stop-color="#B09C2D"/>
<stop offset="0.449219" stop-color="#AF9C2E"/>
<stop offset="0.453125" stop-color="#AE9C2E"/>
<stop offset="0.457031" stop-color="#AD9D2E"/>
<stop offset="0.460938" stop-color="#AC9D2F"/>
<stop offset="0.464844" stop-color="#AB9D2F"/>
<stop offset="0.46875" stop-color="#AB9D30"/>
<stop offset="0.472656" stop-color="#AA9E30"/>
<stop offset="0.476563" stop-color="#A99E31"/>
<stop offset="0.480469" stop-color="#A89E31"/>
<stop offset="0.484375" stop-color="#A79E32"/>
<stop offset="0.488281" stop-color="#A69E32"/>
<stop offset="0.492188" stop-color="#A59F33"/>
<stop offset="0.496094" stop-color="#A49F33"/>
<stop offset="0.5" stop-color="#A49F34"/>
<stop offset="0.503906" stop-color="#A39F34"/>
<stop offset="0.507812" stop-color="#A29F34"/>
<stop offset="0.511719" stop-color="#A1A035"/>
<stop offset="0.515625" stop-color="#A0A035"/>
<stop offset="0.519531" stop-color="#9FA036"/>
<stop offset="0.523438" stop-color="#9EA036"/>
<stop offset="0.527344" stop-color="#9EA037"/>
<stop offset="0.53125" stop-color="#9DA137"/>
<stop offset="0.535156" stop-color="#9CA138"/>
<stop offset="0.539063" stop-color="#9BA138"/>
<stop offset="0.542969" stop-color="#9AA139"/>
<stop offset="0.546875" stop-color="#99A239"/>
<stop offset="0.550781" stop-color="#98A23A"/>
<stop offset="0.554688" stop-color="#98A23A"/>
<stop offset="0.558594" stop-color="#97A23A"/>
<stop offset="0.5625" stop-color="#96A23B"/>
<stop offset="0.566406" stop-color="#95A33B"/>
<stop offset="0.570312" stop-color="#94A33C"/>
<stop offset="0.574219" stop-color="#93A33C"/>
<stop offset="0.578125" stop-color="#92A33D"/>
<stop offset="0.582031" stop-color="#91A33D"/>
<stop offset="0.585938" stop-color="#91A43E"/>
<stop offset="0.589844" stop-color="#90A43E"/>
<stop offset="0.59375" stop-color="#8FA43F"/>
<stop offset="0.597656" stop-color="#8EA43F"/>
<stop offset="0.601562" stop-color="#8DA440"/>
<stop offset="0.605469" stop-color="#8CA540"/>
<stop offset="0.609375" stop-color="#8BA541"/>
<stop offset="0.613281" stop-color="#8BA541"/>
<stop offset="0.617188" stop-color="#8AA541"/>
<stop offset="0.621094" stop-color="#89A642"/>
<stop offset="0.625" stop-color="#88A642"/>
<stop offset="0.628906" stop-color="#87A643"/>
<stop offset="0.632812" stop-color="#86A643"/>
<stop offset="0.636719" stop-color="#85A644"/>
<stop offset="0.640625" stop-color="#85A744"/>
<stop offset="0.644531" stop-color="#84A745"/>
<stop offset="0.648438" stop-color="#83A745"/>
<stop offset="0.652344" stop-color="#82A746"/>
<stop offset="0.65625" stop-color="#81A746"/>
<stop offset="0.660156" stop-color="#80A847"/>
<stop offset="0.664062" stop-color="#7FA847"/>
<stop offset="0.667969" stop-color="#7FA847"/>
<stop offset="0.671875" stop-color="#7EA848"/>
<stop offset="0.675781" stop-color="#7DA848"/>
<stop offset="0.679688" stop-color="#7CA949"/>
<stop offset="0.683594" stop-color="#7BA949"/>
<stop offset="0.6875" stop-color="#7AA94A"/>
<stop offset="0.691406" stop-color="#79A94A"/>
<stop offset="0.695313" stop-color="#78AA4B"/>
<stop offset="0.699219" stop-color="#78AA4B"/>
<stop offset="0.703125" stop-color="#77AA4C"/>
<stop offset="0.707031" stop-color="#76AA4C"/>
<stop offset="0.710938" stop-color="#75AA4D"/>
<stop offset="0.714844" stop-color="#74AB4D"/>
<stop offset="0.71875" stop-color="#73AB4D"/>
<stop offset="0.722656" stop-color="#72AB4E"/>
<stop offset="0.726562" stop-color="#72AB4E"/>
<stop offset="0.730469" stop-color="#71AB4F"/>
<stop offset="0.734375" stop-color="#70AC4F"/>
<stop offset="0.738281" stop-color="#6FAC50"/>
<stop offset="0.742188" stop-color="#6EAC50"/>
<stop offset="0.746094" stop-color="#6DAC51"/>
<stop offset="0.75" stop-color="#6CAC51"/>
<stop offset="0.753906" stop-color="#6CAD52"/>
<stop offset="0.757813" stop-color="#6BAD52"/>
<stop offset="0.761719" stop-color="#6AAD53"/>
<stop offset="0.765625" stop-color="#69AD53"/>
<stop offset="0.769531" stop-color="#68AE53"/>
<stop offset="0.773438" stop-color="#67AE54"/>
<stop offset="0.777344" stop-color="#66AE54"/>
<stop offset="0.78125" stop-color="#65AE55"/>
<stop offset="0.785156" stop-color="#65AE55"/>
<stop offset="0.789062" stop-color="#64AF56"/>
<stop offset="0.792969" stop-color="#63AF56"/>
<stop offset="0.796875" stop-color="#62AF57"/>
<stop offset="0.800781" stop-color="#61AF57"/>
<stop offset="0.804688" stop-color="#60AF58"/>
<stop offset="0.808594" stop-color="#5FB058"/>
<stop offset="0.8125" stop-color="#5FB059"/>
<stop offset="0.816406" stop-color="#5EB059"/>
<stop offset="0.820312" stop-color="#5DB05A"/>
<stop offset="0.824219" stop-color="#5CB05A"/>
<stop offset="0.828125" stop-color="#5BB15A"/>
<stop offset="0.832031" stop-color="#5BB15B"/>
<stop offset="0.835938" stop-color="#5AB15B"/>
<stop offset="0.84375" stop-color="#5AB15B"/>
<stop offset="0.875" stop-color="#5AB15B"/>
<stop offset="1" stop-color="#5AB15B"/>
</linearGradient>
<linearGradient id="paint1_linear_18_35" x1="165.962" y1="8.05184" x2="178.785" y2="39.3586" gradientUnits="userSpaceOnUse">
<stop stop-color="#FE8903"/>
<stop offset="0.0625" stop-color="#FE8903"/>
<stop offset="0.09375" stop-color="#FE8903"/>
<stop offset="0.0976563" stop-color="#FC8904"/>
<stop offset="0.101563" stop-color="#FC8A04"/>
<stop offset="0.105469" stop-color="#FB8A05"/>
<stop offset="0.109375" stop-color="#FA8A05"/>
<stop offset="0.113281" stop-color="#F98A06"/>
<stop offset="0.117188" stop-color="#F88A06"/>
<stop offset="0.121094" stop-color="#F78B07"/>
<stop offset="0.125" stop-color="#F68B07"/>
<stop offset="0.128906" stop-color="#F68B08"/>
<stop offset="0.132813" stop-color="#F58B08"/>
<stop offset="0.136719" stop-color="#F48B08"/>
<stop offset="0.140625" stop-color="#F38C09"/>
<stop offset="0.144531" stop-color="#F28C09"/>
<stop offset="0.148438" stop-color="#F18C0A"/>
<stop offset="0.152344" stop-color="#F08C0A"/>
<stop offset="0.15625" stop-color="#F08C0B"/>
<stop offset="0.160156" stop-color="#EF8D0B"/>
<stop offset="0.164063" stop-color="#EE8D0C"/>
<stop offset="0.167969" stop-color="#ED8D0C"/>
<stop offset="0.171875" stop-color="#EC8D0D"/>
<stop offset="0.175781" stop-color="#EB8E0D"/>
<stop offset="0.179688" stop-color="#EA8E0E"/>
<stop offset="0.183594" stop-color="#E98E0E"/>
<stop offset="0.1875" stop-color="#E98E0F"/>
<stop offset="0.191406" stop-color="#E88E0F"/>
<stop offset="0.195313" stop-color="#E78F0F"/>
<stop offset="0.199219" stop-color="#E68F10"/>
<stop offset="0.203125" stop-color="#E58F10"/>
<stop offset="0.207031" stop-color="#E48F11"/>
<stop offset="0.210938" stop-color="#E38F11"/>
<stop offset="0.214844" stop-color="#E39012"/>
<stop offset="0.21875" stop-color="#E29012"/>
<stop offset="0.222656" stop-color="#E19013"/>
<stop offset="0.226563" stop-color="#E09013"/>
<stop offset="0.230469" stop-color="#DF9014"/>
<stop offset="0.234375" stop-color="#DE9114"/>
<stop offset="0.238281" stop-color="#DD9115"/>
<stop offset="0.242188" stop-color="#DD9115"/>
<stop offset="0.246094" stop-color="#DC9115"/>
<stop offset="0.25" stop-color="#DB9216"/>
<stop offset="0.253906" stop-color="#DA9216"/>
<stop offset="0.257813" stop-color="#D99217"/>
<stop offset="0.261719" stop-color="#D89217"/>
<stop offset="0.265625" stop-color="#D79218"/>
<stop offset="0.269531" stop-color="#D69318"/>
<stop offset="0.273438" stop-color="#D69319"/>
<stop offset="0.277344" stop-color="#D59319"/>
<stop offset="0.28125" stop-color="#D4931A"/>
<stop offset="0.285156" stop-color="#D3931A"/>
<stop offset="0.289063" stop-color="#D2941B"/>
<stop offset="0.292969" stop-color="#D1941B"/>
<stop offset="0.296875" stop-color="#D0941C"/>
<stop offset="0.300781" stop-color="#D0941C"/>
<stop offset="0.304688" stop-color="#CF941C"/>
<stop offset="0.308594" stop-color="#CE951D"/>
<stop offset="0.3125" stop-color="#CD951D"/>
<stop offset="0.316406" stop-color="#CC951E"/>
<stop offset="0.320313" stop-color="#CB951E"/>
<stop offset="0.324219" stop-color="#CA961F"/>
<stop offset="0.328125" stop-color="#CA961F"/>
<stop offset="0.332031" stop-color="#C99620"/>
<stop offset="0.335938" stop-color="#C89620"/>
<stop offset="0.339844" stop-color="#C79621"/>
<stop offset="0.34375" stop-color="#C69721"/>
<stop offset="0.347656" stop-color="#C59722"/>
<stop offset="0.351563" stop-color="#C49722"/>
<stop offset="0.355469" stop-color="#C39722"/>
<stop offset="0.359375" stop-color="#C39723"/>
<stop offset="0.363281" stop-color="#C29823"/>
<stop offset="0.367188" stop-color="#C19824"/>
<stop offset="0.371094" stop-color="#C09824"/>
<stop offset="0.375" stop-color="#BF9825"/>
<stop offset="0.378906" stop-color="#BE9825"/>
<stop offset="0.382813" stop-color="#BD9926"/>
<stop offset="0.386719" stop-color="#BD9926"/>
<stop offset="0.390625" stop-color="#BC9927"/>
<stop offset="0.394531" stop-color="#BB9927"/>
<stop offset="0.398438" stop-color="#BA9A28"/>
<stop offset="0.402344" stop-color="#B99A28"/>
<stop offset="0.40625" stop-color="#B89A28"/>
<stop offset="0.410156" stop-color="#B79A29"/>
<stop offset="0.414062" stop-color="#B79A29"/>
<stop offset="0.417969" stop-color="#B69B2A"/>
<stop offset="0.421875" stop-color="#B59B2A"/>
<stop offset="0.425781" stop-color="#B49B2B"/>
<stop offset="0.429688" stop-color="#B39B2B"/>
<stop offset="0.433594" stop-color="#B29B2C"/>
<stop offset="0.4375" stop-color="#B19C2C"/>
<stop offset="0.441406" stop-color="#B09C2D"/>
<stop offset="0.445313" stop-color="#B09C2D"/>
<stop offset="0.449219" stop-color="#AF9C2E"/>
<stop offset="0.453125" stop-color="#AE9C2E"/>
<stop offset="0.457031" stop-color="#AD9D2F"/>
<stop offset="0.460938" stop-color="#AC9D2F"/>
<stop offset="0.464844" stop-color="#AB9D2F"/>
<stop offset="0.46875" stop-color="#AA9D30"/>
<stop offset="0.472656" stop-color="#AA9E30"/>
<stop offset="0.476563" stop-color="#A99E31"/>
<stop offset="0.480469" stop-color="#A89E31"/>
<stop offset="0.484375" stop-color="#A79E32"/>
<stop offset="0.488281" stop-color="#A69E32"/>
<stop offset="0.492188" stop-color="#A59F33"/>
<stop offset="0.496094" stop-color="#A49F33"/>
<stop offset="0.5" stop-color="#A39F34"/>
<stop offset="0.503906" stop-color="#A39F34"/>
<stop offset="0.507812" stop-color="#A29F35"/>
<stop offset="0.511719" stop-color="#A1A035"/>
<stop offset="0.515625" stop-color="#A0A035"/>
<stop offset="0.519531" stop-color="#9FA036"/>
<stop offset="0.523438" stop-color="#9EA036"/>
<stop offset="0.527344" stop-color="#9DA037"/>
<stop offset="0.53125" stop-color="#9DA137"/>
<stop offset="0.535156" stop-color="#9CA138"/>
<stop offset="0.539063" stop-color="#9BA138"/>
<stop offset="0.542969" stop-color="#9AA139"/>
<stop offset="0.546875" stop-color="#99A239"/>
<stop offset="0.550781" stop-color="#98A23A"/>
<stop offset="0.554688" stop-color="#97A23A"/>
<stop offset="0.558594" stop-color="#97A23B"/>
<stop offset="0.5625" stop-color="#96A23B"/>
<stop offset="0.566406" stop-color="#95A33B"/>
<stop offset="0.570313" stop-color="#94A33C"/>
<stop offset="0.574219" stop-color="#93A33C"/>
<stop offset="0.578125" stop-color="#92A33D"/>
<stop offset="0.582031" stop-color="#91A33D"/>
<stop offset="0.585938" stop-color="#90A43E"/>
<stop offset="0.589844" stop-color="#90A43E"/>
<stop offset="0.59375" stop-color="#8FA43F"/>
<stop offset="0.597656" stop-color="#8EA43F"/>
<stop offset="0.601563" stop-color="#8DA540"/>
<stop offset="0.605469" stop-color="#8CA540"/>
<stop offset="0.609375" stop-color="#8BA541"/>
<stop offset="0.613281" stop-color="#8AA541"/>
<stop offset="0.617188" stop-color="#8AA542"/>
<stop offset="0.621094" stop-color="#89A642"/>
<stop offset="0.625" stop-color="#88A642"/>
<stop offset="0.628906" stop-color="#87A643"/>
<stop offset="0.632813" stop-color="#86A643"/>
<stop offset="0.636719" stop-color="#85A644"/>
<stop offset="0.640625" stop-color="#84A744"/>
<stop offset="0.644531" stop-color="#84A745"/>
<stop offset="0.648438" stop-color="#83A745"/>
<stop offset="0.652344" stop-color="#82A746"/>
<stop offset="0.65625" stop-color="#81A746"/>
<stop offset="0.660156" stop-color="#80A847"/>
<stop offset="0.664063" stop-color="#7FA847"/>
<stop offset="0.667969" stop-color="#7EA848"/>
<stop offset="0.671875" stop-color="#7DA848"/>
<stop offset="0.675781" stop-color="#7DA948"/>
<stop offset="0.679688" stop-color="#7CA949"/>
<stop offset="0.683594" stop-color="#7BA949"/>
<stop offset="0.6875" stop-color="#7AA94A"/>
<stop offset="0.691406" stop-color="#79A94A"/>
<stop offset="0.695313" stop-color="#78AA4B"/>
<stop offset="0.699219" stop-color="#77AA4B"/>
<stop offset="0.703125" stop-color="#77AA4C"/>
<stop offset="0.707031" stop-color="#76AA4C"/>
<stop offset="0.710938" stop-color="#75AA4D"/>
<stop offset="0.714844" stop-color="#74AB4D"/>
<stop offset="0.71875" stop-color="#73AB4E"/>
<stop offset="0.722656" stop-color="#72AB4E"/>
<stop offset="0.726563" stop-color="#71AB4E"/>
<stop offset="0.730469" stop-color="#71AB4F"/>
<stop offset="0.734375" stop-color="#70AC4F"/>
<stop offset="0.738281" stop-color="#6FAC50"/>
<stop offset="0.742188" stop-color="#6EAC50"/>
<stop offset="0.746094" stop-color="#6DAC51"/>
<stop offset="0.75" stop-color="#6CAD51"/>
<stop offset="0.753906" stop-color="#6BAD52"/>
<stop offset="0.757813" stop-color="#6AAD52"/>
<stop offset="0.761719" stop-color="#6AAD53"/>
<stop offset="0.765625" stop-color="#69AD53"/>
<stop offset="0.769531" stop-color="#68AE54"/>
<stop offset="0.773438" stop-color="#67AE54"/>
<stop offset="0.777344" stop-color="#66AE55"/>
<stop offset="0.78125" stop-color="#65AE55"/>
<stop offset="0.785156" stop-color="#64AE55"/>
<stop offset="0.789063" stop-color="#64AF56"/>
<stop offset="0.792969" stop-color="#63AF56"/>
<stop offset="0.796875" stop-color="#62AF57"/>
<stop offset="0.800781" stop-color="#61AF57"/>
<stop offset="0.804688" stop-color="#60AF58"/>
<stop offset="0.808594" stop-color="#5FB058"/>
<stop offset="0.8125" stop-color="#5EB059"/>
<stop offset="0.816406" stop-color="#5EB059"/>
<stop offset="0.820312" stop-color="#5DB05A"/>
<stop offset="0.824219" stop-color="#5CB15A"/>
<stop offset="0.828125" stop-color="#5BB15B"/>
<stop offset="0.84375" stop-color="#5AB15B"/>
<stop offset="0.875" stop-color="#5AB15B"/>
<stop offset="1" stop-color="#5AB15B"/>
</linearGradient>
</defs>
</svg>
