<svg width="20" height="20" viewBox="0 0 20 20" fill="none" xmlns="http://www.w3.org/2000/svg">
<g opacity="0.6">
<path d="M2.65345 7.11735C2.88347 7.27966 3.57683 7.76173 4.73357 8.56331C5.89034 9.36489 6.7765 9.98208 7.3921 10.4149C7.45973 10.4624 7.60342 10.5655 7.82324 10.7245C8.04309 10.8836 8.22577 11.0121 8.37113 11.1102C8.5166 11.2082 8.69245 11.3182 8.89887 11.4399C9.10522 11.5615 9.29973 11.653 9.48238 11.7135C9.66505 11.7746 9.83415 11.8048 9.98972 11.8048H9.99992H10.0102C10.1657 11.8048 10.3349 11.7746 10.5176 11.7135C10.7001 11.653 10.8948 11.5614 11.101 11.4399C11.3073 11.318 11.4831 11.2082 11.6286 11.1102C11.7741 11.0121 11.9566 10.8836 12.1765 10.7245C12.3963 10.5654 12.5402 10.4624 12.6078 10.4149C13.23 9.98208 14.8131 8.88278 17.3565 7.11713C17.8503 6.77228 18.2629 6.35617 18.5943 5.86909C18.926 5.38222 19.0916 4.87147 19.0916 4.33712C19.0916 3.89059 18.9309 3.50835 18.6095 3.19044C18.2882 2.87246 17.9076 2.71356 17.4681 2.71356H2.53166C2.01081 2.71356 1.60999 2.88942 1.32925 3.24112C1.04855 3.5929 0.908203 4.03261 0.908203 4.56021C0.908203 4.98637 1.09429 5.44819 1.4663 5.94536C1.83826 6.44257 2.23411 6.83327 2.65345 7.11735Z" fill="#FE8903"/>
<path d="M18.0768 8.20282C15.8582 9.70444 14.1736 10.8714 13.0238 11.7036C12.6382 11.9876 12.3254 12.2093 12.0852 12.3682C11.845 12.5271 11.5255 12.6895 11.1263 12.8551C10.7272 13.021 10.3554 13.1037 10.0103 13.1037H9.99995H9.98975C9.64476 13.1037 9.27265 13.021 8.8736 12.8551C8.47455 12.6895 8.15487 12.5271 7.91472 12.3682C7.67464 12.2093 7.36174 11.9876 6.9762 11.7036C6.06292 11.0339 4.38193 9.86686 1.93315 8.20282C1.54747 7.94594 1.20585 7.65148 0.908203 7.32007V15.3766C0.908203 15.8233 1.0671 16.2053 1.38508 16.5233C1.70299 16.8413 2.08527 17.0003 2.53176 17.0003H17.4682C17.9146 17.0003 18.2968 16.8413 18.6148 16.5233C18.9328 16.2052 19.0917 15.8233 19.0917 15.3766V7.32007C18.8007 7.64462 18.4626 7.93908 18.0768 8.20282Z" fill="#FE8903"/>
</g>
</svg>
