<svg width="35" height="35" viewBox="0 0 35 35" fill="none" xmlns="http://www.w3.org/2000/svg">
<circle opacity="0.1" cx="17.5" cy="17.5" r="17.5" fill="#FE8903"/>
<circle cx="17.4231" cy="17.4231" r="9.42308" fill="#FE8903"/>
<mask id="mask0_106_1856" style="mask-type:luminance" maskUnits="userSpaceOnUse" x="12" y="12" width="11" height="12">
<path d="M12 12H22.5819V23.0974H12V12Z" fill="white"/>
</mask>
<g mask="url(#mask0_106_1856)">
<mask id="mask1_106_1856" style="mask-type:luminance" maskUnits="userSpaceOnUse" x="12" y="12" width="11" height="12">
<path d="M18.0558 17.1726H13.3344C13.1515 17.1726 13.0191 16.9979 13.0683 16.8215L14.3644 12.2027C14.3981 12.0833 14.5068 12.0009 14.6305 12.0009H19.3519C19.5348 12.0009 19.6672 12.1756 19.6181 12.352L18.3219 16.9712C18.2883 17.0902 18.1796 17.1726 18.0558 17.1726ZM14.989 20.6595L15.6567 18.2811C15.7059 18.1047 15.5734 17.93 15.3906 17.93H12.9634C12.8396 17.93 12.7309 18.0124 12.6973 18.1319L12.03 20.5103C11.9804 20.6862 12.1128 20.8614 12.2962 20.8614H14.7229C14.8471 20.8614 14.9558 20.7785 14.989 20.6595ZM16.2174 18.1319L14.9213 22.751C14.8717 22.927 15.0041 23.1021 15.1874 23.1021H19.9084C20.0322 23.1021 20.1408 23.0193 20.1745 22.9003L21.4707 18.2811C21.5203 18.1047 21.3878 17.93 21.2045 17.93H16.4836C16.3593 17.93 16.2506 18.0124 16.2174 18.1319ZM19.5499 14.4435L18.8826 16.8215C18.833 16.9979 18.9655 17.1726 19.1488 17.1726H21.5755C21.6993 17.1726 21.808 17.0902 21.8416 16.9712L22.5089 14.5928C22.5585 14.4164 22.4261 14.2417 22.2427 14.2417H19.8161C19.6923 14.2417 19.5831 14.3241 19.5499 14.4435Z" fill="white"/>
</mask>
<g mask="url(#mask1_106_1856)">
<path d="M11.9805 12.0009V23.0974H22.5585V12.0009H11.9805Z" fill="white"/>
</g>
</g>
</svg>
