<svg width="27" height="27" viewBox="0 0 27 27" fill="none" xmlns="http://www.w3.org/2000/svg">
<circle opacity="0.1" cx="13.4409" cy="13.4409" r="13.4409" fill="#FE8903"/>
<circle cx="13.3819" cy="13.3818" r="7.23742" fill="#FE8903"/>
<mask id="mask0_199_2815" style="mask-type:luminance" maskUnits="userSpaceOnUse" x="9" y="9" width="9" height="9">
<path d="M9.2168 9.21661H17.3443V17.74H9.2168V9.21661Z" fill="white"/>
</mask>
<g mask="url(#mask0_199_2815)">
<mask id="mask1_199_2815" style="mask-type:luminance" maskUnits="userSpaceOnUse" x="9" y="9" width="9" height="9">
<path d="M13.8676 13.1896H10.2413C10.1009 13.1896 9.99915 13.0554 10.0369 12.9199L11.0324 9.37248C11.0583 9.28071 11.1418 9.21744 11.2368 9.21744H14.8631C15.0036 9.21744 15.1053 9.35161 15.0675 9.48711L14.072 13.0349C14.0462 13.1263 13.9627 13.1896 13.8676 13.1896ZM11.5121 15.8677L12.025 14.041C12.0627 13.9055 11.961 13.7713 11.8206 13.7713H9.95641C9.86133 13.7713 9.77785 13.8346 9.75201 13.9264L9.23951 15.7531C9.20141 15.8882 9.30311 16.0227 9.44391 16.0227H11.3077C11.4031 16.0227 11.4866 15.9591 11.5121 15.8677ZM12.4556 13.9264L11.4601 17.4741C11.422 17.6093 11.5237 17.7438 11.6645 17.7438H15.2905C15.3856 17.7438 15.469 17.6802 15.4949 17.5887L16.4904 14.041C16.5285 13.9055 16.4268 13.7713 16.286 13.7713H12.6601C12.5646 13.7713 12.4812 13.8346 12.4556 13.9264ZM15.0152 11.0935L14.5027 12.9199C14.4646 13.0554 14.5663 13.1896 14.7071 13.1896H16.5709C16.666 13.1896 16.7495 13.1263 16.7753 13.0349L17.2878 11.2081C17.3259 11.0726 17.2242 10.9385 17.0834 10.9385H15.2196C15.1245 10.9385 15.0407 11.0018 15.0152 11.0935Z" fill="white"/>
</mask>
<g mask="url(#mask1_199_2815)">
<path d="M9.2002 9.21744V17.7401H17.3247V9.21744H9.2002Z" fill="white"/>
</g>
</g>
</svg>
