<svg width="61" height="60" viewBox="0 0 61 60" fill="none" xmlns="http://www.w3.org/2000/svg">
<rect x="0.5" width="60" height="60" rx="10" fill="url(#paint0_linear_185_888)"/>
<path d="M37.9219 10.6865V17.8125H45.0479L37.9219 10.6865Z" fill="#093254"/>
<path d="M28.9404 27.8012H29.8821L29.4134 26.5594L28.9404 27.8012Z" fill="#093254"/>
<path d="M36.75 20.1562C36.1028 20.1562 35.5781 19.6316 35.5781 18.9844V10H16.4375C15.7903 10 15.2656 10.5247 15.2656 11.1719V48.8281C15.2656 49.4753 15.7903 50 16.4375 50H44.5625C45.2097 50 45.7344 49.4753 45.7344 48.8281V20.1562H36.75ZM34.3643 29.7501L36.3262 26.9652L34.6795 24.6244C34.3692 24.1833 34.4752 23.5741 34.9164 23.2638C35.3575 22.9534 35.9667 23.0595 36.277 23.5006L37.5211 25.2691L38.7673 23.5001C39.0779 23.0591 39.6871 22.9535 40.128 23.2641C40.569 23.5748 40.6746 24.184 40.364 24.6249L38.7148 26.9659L40.6738 29.7506C40.9841 30.1917 40.8781 30.8009 40.437 31.1112C39.9959 31.4216 39.3866 31.3155 39.0763 30.8744L37.52 28.662L35.9611 30.8749C35.6505 31.3159 35.0413 31.4215 34.6003 31.1109C34.1594 30.8002 34.0537 30.191 34.3643 29.7501ZM30.4512 23.7788C30.4548 23.7877 30.4583 23.7966 30.4616 23.8055L32.7872 29.9677C32.9777 30.4723 32.723 31.0357 32.2184 31.2261C31.7138 31.4166 31.1503 31.1619 30.9599 30.6573L30.6191 29.7544H28.1966L27.8516 30.6601C27.7033 31.0497 27.3323 31.2893 26.9388 31.2893C26.8233 31.2893 26.7059 31.2687 26.5914 31.2251C26.0874 31.033 25.8345 30.4689 26.0264 29.9648L28.3733 23.8029C28.3761 23.7955 28.379 23.7882 28.382 23.7809C28.5545 23.3591 28.9603 23.0863 29.4159 23.0859H29.417C29.8722 23.0859 30.278 23.3578 30.4512 23.7788ZM21.125 17.0312H28.9375C29.5847 17.0312 30.1094 17.5559 30.1094 18.2031C30.1094 18.8503 29.5847 19.375 28.9375 19.375H21.125C20.4778 19.375 19.9531 18.8503 19.9531 18.2031C19.9531 17.5559 20.4778 17.0312 21.125 17.0312ZM21.125 25.0391C20.5857 25.0391 20.1484 24.6019 20.1484 24.0625C20.1484 23.5231 20.5857 23.0859 21.125 23.0859H24.5766C25.1159 23.0859 25.5532 23.5231 25.5532 24.0625C25.5532 24.6019 25.1159 25.0391 24.5766 25.0391H23.8204V30.3125C23.8204 30.8518 23.3831 31.2891 22.8438 31.2891C22.3045 31.2891 21.8673 30.8518 21.8673 30.3125V25.0391H21.125ZM39.875 42.8125H21.125C20.4778 42.8125 19.9531 42.2878 19.9531 41.6406C19.9531 40.9934 20.4778 40.4688 21.125 40.4688H39.875C40.5222 40.4688 41.0469 40.9934 41.0469 41.6406C41.0469 42.2878 40.5222 42.8125 39.875 42.8125ZM39.875 38.125H21.125C20.4778 38.125 19.9531 37.6003 19.9531 36.9531C19.9531 36.3059 20.4778 35.7812 21.125 35.7812H39.875C40.5222 35.7812 41.0469 36.3059 41.0469 36.9531C41.0469 37.6003 40.5222 38.125 39.875 38.125Z" fill="#093254"/>
<defs>
<linearGradient id="paint0_linear_185_888" x1="-2.83333" y1="-11.6667" x2="30.5" y2="60" gradientUnits="userSpaceOnUse">
<stop stop-color="#F1FF2F"/>
<stop offset="1" stop-color="#96DD6F"/>
</linearGradient>
</defs>
</svg>
