<svg width="274" height="204" viewBox="0 0 274 204" fill="none" xmlns="http://www.w3.org/2000/svg">
<path d="M32.3269 195.32L6.07184 42.8618H50.6694L57.2378 52.5413H109.094V170.775L32.3269 195.32Z" fill="url(#paint0_linear_4832_13679)"/>
<path d="M41.0082 65.6782L32.3269 195.32H122.442L131.123 65.6782H41.0082Z" fill="url(#paint1_linear_4832_13679)"/>
<path d="M88.524 0.338989C79.3586 0.338989 71.9301 7.76915 71.9301 16.9329V65.6781H125.38V16.9329C125.38 7.76748 132.81 0.338989 141.974 0.338989H88.524Z" fill="#C4D0F0"/>
<g filter="url(#filter0_d_4832_13679)">
<path d="M228.73 179.245V16.4138C228.73 7.53456 221.533 0.338989 212.655 0.338989H88.5255C97.4031 0.338989 104.6 7.53623 104.6 16.4138V179.243C104.6 188.121 111.798 195.318 120.675 195.318H244.805C235.927 195.318 228.73 188.121 228.73 179.243V179.245Z" fill="#E6F2FF"/>
</g>
<g style="mix-blend-mode:multiply">
<path d="M135.53 17.1423H197.535C199.314 17.1423 200.758 18.5864 200.758 20.365V31.0327C200.758 32.8112 199.314 34.2553 197.535 34.2553H135.53C133.751 34.2553 132.307 32.8112 132.307 31.0327V20.365C132.307 18.5864 133.751 17.1423 135.53 17.1423Z" fill="#BDD7F5"/>
</g>
<path d="M137.381 14.8583H199.386C201.164 14.8583 202.608 16.3024 202.608 18.0809V28.7486C202.608 30.5272 201.164 31.9713 199.386 31.9713H137.381C135.602 31.9713 134.158 30.5272 134.158 28.7486V18.0809C134.158 16.3024 135.602 14.8583 137.381 14.8583Z" fill="#F7436A"/>
<path d="M161.096 23.8887H158.898V22.623H161.096C161.455 22.623 161.746 22.5645 161.969 22.4473C162.195 22.3262 162.361 22.1621 162.467 21.9551C162.572 21.7441 162.625 21.5039 162.625 21.2344C162.625 20.9727 162.572 20.7285 162.467 20.502C162.361 20.2754 162.195 20.0918 161.969 19.9512C161.746 19.8105 161.455 19.7402 161.096 19.7402H159.426V27H157.814V18.4688H161.096C161.76 18.4688 162.326 18.5879 162.795 18.8262C163.268 19.0605 163.627 19.3867 163.873 19.8047C164.123 20.2188 164.248 20.6914 164.248 21.2227C164.248 21.7734 164.123 22.248 163.873 22.6465C163.627 23.0449 163.268 23.3516 162.795 23.5664C162.326 23.7812 161.76 23.8887 161.096 23.8887ZM168.514 25.3301L170.641 18.4688H172.428L169.416 27H168.227L168.514 25.3301ZM166.551 18.4688L168.666 25.3301L168.971 27H167.77L164.77 18.4688H166.551ZM176.969 18.4688V27H175.363V18.4688H176.969ZM179.617 18.4688V19.7402H172.744V18.4688H179.617Z" fill="white"/>
<path d="M117.737 55.5943C120.029 55.5943 121.887 53.7366 121.887 51.445C121.887 49.1534 120.029 47.2957 117.737 47.2957C115.446 47.2957 113.588 49.1534 113.588 51.445C113.588 53.7366 115.446 55.5943 117.737 55.5943Z" fill="#B3D8FF"/>
<g style="mix-blend-mode:multiply">
<path d="M190.14 49.7163H128.824C128.429 49.7163 128.109 50.0366 128.109 50.4317V52.8042C128.109 53.1993 128.429 53.5196 128.824 53.5196H190.14C190.535 53.5196 190.856 53.1993 190.856 52.8042V50.4317C190.856 50.0366 190.535 49.7163 190.14 49.7163Z" fill="#CCE4FF"/>
</g>
<g style="mix-blend-mode:multiply">
<path d="M217.74 63.4104H128.824C128.429 63.4104 128.109 63.7307 128.109 64.1258V66.4983C128.109 66.8934 128.429 67.2137 128.824 67.2137H217.74C218.135 67.2137 218.455 66.8934 218.455 66.4983V64.1258C218.455 63.7307 218.135 63.4104 217.74 63.4104Z" fill="#CCE4FF"/>
</g>
<path d="M119.325 91.0585C121.443 90.1816 122.448 87.7544 121.571 85.6372C120.694 83.52 118.267 82.5147 116.15 83.3916C114.032 84.2686 113.027 86.6958 113.904 88.813C114.781 90.9301 117.208 91.9355 119.325 91.0585Z" fill="#B3D8FF"/>
<g style="mix-blend-mode:multiply">
<path d="M190.141 85.4961H128.824C128.429 85.4961 128.109 85.8164 128.109 86.2115V88.584C128.109 88.9791 128.429 89.2993 128.824 89.2993H190.141C190.536 89.2993 190.856 88.9791 190.856 88.584V86.2115C190.856 85.8164 190.536 85.4961 190.141 85.4961Z" fill="#CCE4FF"/>
</g>
<g style="mix-blend-mode:multiply">
<path d="M217.74 99.1902H128.824C128.429 99.1902 128.109 99.5105 128.109 99.9056V102.278C128.109 102.673 128.429 102.993 128.824 102.993H217.74C218.135 102.993 218.455 102.673 218.455 102.278V99.9056C218.455 99.5105 218.135 99.1902 217.74 99.1902Z" fill="#CCE4FF"/>
</g>
<path d="M117.737 127.156C120.029 127.156 121.887 125.298 121.887 123.006C121.887 120.715 120.029 118.857 117.737 118.857C115.446 118.857 113.588 120.715 113.588 123.006C113.588 125.298 115.446 127.156 117.737 127.156Z" fill="#B3D8FF"/>
<g style="mix-blend-mode:multiply">
<path d="M190.14 121.278H128.824C128.429 121.278 128.109 121.598 128.109 121.993V124.365C128.109 124.761 128.429 125.081 128.824 125.081H190.14C190.535 125.081 190.856 124.761 190.856 124.365V121.993C190.856 121.598 190.535 121.278 190.14 121.278Z" fill="#CCE4FF"/>
</g>
<g style="mix-blend-mode:multiply">
<path d="M217.74 134.972H128.824C128.429 134.972 128.109 135.292 128.109 135.687V138.06C128.109 138.455 128.429 138.775 128.824 138.775H217.74C218.135 138.775 218.455 138.455 218.455 138.06V135.687C218.455 135.292 218.135 134.972 217.74 134.972Z" fill="#CCE4FF"/>
</g>
<path d="M117.737 164.262C120.029 164.262 121.887 162.404 121.887 160.112C121.887 157.821 120.029 155.963 117.737 155.963C115.446 155.963 113.588 157.821 113.588 160.112C113.588 162.404 115.446 164.262 117.737 164.262Z" fill="#B3D8FF"/>
<g style="mix-blend-mode:multiply">
<path d="M190.14 158.384H128.824C128.429 158.384 128.109 158.704 128.109 159.099V161.472C128.109 161.867 128.429 162.187 128.824 162.187H190.14C190.535 162.187 190.856 161.867 190.856 161.472V159.099C190.856 158.704 190.535 158.384 190.14 158.384Z" fill="#CCE4FF"/>
</g>
<g style="mix-blend-mode:multiply">
<path d="M217.74 172.078H128.824C128.429 172.078 128.109 172.398 128.109 172.793V175.165C128.109 175.561 128.429 175.881 128.824 175.881H217.74C218.135 175.881 218.455 175.561 218.455 175.165V172.793C218.455 172.398 218.135 172.078 217.74 172.078Z" fill="#CCE4FF"/>
</g>
<g filter="url(#filter1_d_4832_13679)">
<path d="M141.938 152.28V174.059C141.938 185.802 132.418 195.32 120.677 195.32H244.807C256.549 195.32 266.068 185.8 266.068 174.059V152.28H141.938Z" fill="#C4D0F0"/>
</g>
<g style="mix-blend-mode:multiply">
<path d="M101.696 138.11L97.36 136.582L101.722 135.155C102.526 134.892 103.037 134.105 102.952 133.265C102.867 132.425 102.206 131.758 101.368 131.661L95.7029 131.014L100.556 127.866C101.265 127.407 101.558 126.515 101.26 125.725C100.962 124.935 100.153 124.459 99.3182 124.58L93.5118 125.431L97.4415 121.083C98.0089 120.456 98.0621 119.519 97.5696 118.832C97.0788 118.145 96.1738 117.892 95.3985 118.227L91.1743 120.04L93.4153 116.034C93.8279 115.297 93.6715 114.372 93.0393 113.811C92.4071 113.251 91.4705 113.207 90.7883 113.705L86.7355 116.664L88.0964 111.752C88.3227 110.938 87.95 110.076 87.203 109.682C86.456 109.288 85.5343 109.467 84.9903 110.113L81.207 114.6L81.2652 108.74C81.2735 107.895 80.6929 107.158 79.8694 106.97C79.0458 106.782 78.2023 107.191 77.843 107.957L75.8848 112.116L74.9048 107.632C74.7252 106.807 73.9931 106.218 73.1496 106.218C72.3061 106.218 71.5741 106.807 71.3944 107.632L70.5775 111.374L69.007 107.925C68.6576 107.156 67.8191 106.735 66.9922 106.913C66.167 107.091 65.5764 107.82 65.5731 108.665L65.5564 114.533L61.838 110.005C61.3023 109.352 60.3839 109.161 59.6303 109.545C58.8783 109.93 58.4956 110.787 58.7102 111.603L59.6469 115.164L56.7154 112.79C56.0583 112.257 55.1199 112.256 54.4611 112.783C53.8023 113.31 53.5993 114.227 53.9736 114.984L56.579 120.243L51.2302 117.852C50.4582 117.508 49.5515 117.746 49.0507 118.426C48.5499 119.107 48.5898 120.043 49.1472 120.679L52.1801 124.135L47.6781 123.244C46.8496 123.081 46.0177 123.516 45.6817 124.291C45.3439 125.066 45.5935 125.97 46.2773 126.465L50.5397 129.543L45.1593 129.833C44.3158 129.878 43.617 130.505 43.4822 131.338C43.3475 132.172 43.81 132.987 44.5953 133.298L50.0539 135.454L44.4805 137.266C43.6769 137.527 43.1645 138.313 43.2477 139.153C43.3308 139.993 43.9897 140.662 44.8282 140.76L49.3951 141.292L45.4571 143.65C44.7317 144.084 44.4073 144.964 44.6768 145.765C44.9463 146.565 45.7366 147.071 46.5767 146.979L51.4198 146.448L47.8561 149.957C47.2539 150.549 47.1457 151.481 47.5966 152.196C48.0475 152.912 48.9342 153.215 49.7295 152.929L55.2464 150.93L52.27 155.978C51.8407 156.705 51.9772 157.633 52.5961 158.209C53.215 158.783 54.1516 158.85 54.8454 158.367L58.6187 155.742L57.7935 158.336L45.893 186.291L55.8586 179.776L58.7235 191.753L70.9152 163.11L71.3045 164.874C71.4859 165.699 72.2179 166.286 73.0631 166.285C73.9083 166.283 74.637 165.693 74.8167 164.867L75.4039 162.15L88.2445 183.84L88.895 171.951L100.242 176.736L88.5357 156.963L90.953 158.687C91.6418 159.177 92.5768 159.123 93.204 158.555C93.8296 157.988 93.976 157.061 93.5551 156.329L91.2658 152.343L95.5033 154.105C96.2836 154.429 97.1837 154.166 97.6678 153.474C98.1519 152.782 98.0871 151.845 97.5131 151.225L94.4685 147.934L98.9638 148.701C99.7973 148.842 100.616 148.387 100.932 147.603C101.248 146.819 100.977 145.921 100.28 145.445L95.4334 142.136L101.268 141.602C102.11 141.525 102.784 140.872 102.889 140.035C102.993 139.196 102.499 138.399 101.702 138.118L101.696 138.11Z" fill="#9FDC9B"/>
</g>
<path d="M55.9499 188.635L53.085 176.658L43.121 183.173L59.5036 144.685L72.3342 150.147L55.9499 188.635Z" fill="#3EB837"/>
<path d="M97.4697 173.618L86.1232 168.834L85.471 180.721L64.1605 144.726L76.1592 137.622L97.4697 173.618Z" fill="#3EB837"/>
<path d="M70.3794 103.107C69.5342 103.107 68.8038 103.696 68.6242 104.521L66.458 114.437H74.3008L72.1346 104.521C71.9549 103.696 71.2229 103.107 70.3794 103.107Z" fill="#9FDC9B"/>
<path d="M77.1008 103.859C76.2773 103.671 75.4338 104.08 75.0744 104.845L70.7504 114.027L78.3952 115.778L78.4967 105.629C78.505 104.784 77.9244 104.047 77.1008 103.859Z" fill="#9FDC9B"/>
<path d="M84.4328 106.571C83.6858 106.176 82.7641 106.356 82.2201 107.002L75.6783 114.761L82.616 118.42L85.3262 108.639C85.5525 107.825 85.1798 106.963 84.4328 106.569V106.571Z" fill="#9FDC9B"/>
<path d="M90.269 110.7C89.6368 110.139 88.7001 110.096 88.018 110.594L79.8209 116.578L85.6921 121.779L90.6467 112.921C91.0593 112.184 90.9029 111.259 90.2707 110.698L90.269 110.7Z" fill="#9FDC9B"/>
<path d="M94.8012 115.719C94.3104 115.032 93.407 114.779 92.6301 115.114L83.3049 119.118L87.8668 125.499L94.6731 117.97C95.2404 117.343 95.2937 116.407 94.8012 115.719Z" fill="#9FDC9B"/>
<path d="M98.4911 122.612C98.1933 121.822 97.3847 121.346 96.5495 121.468L86.5073 122.937L89.2724 130.275L97.7873 124.752C98.4961 124.293 98.7889 123.401 98.4911 122.611V122.612Z" fill="#9FDC9B"/>
<path d="M100.185 130.152C100.1 129.312 99.4395 128.645 98.601 128.549L88.5172 127.397L89.3108 135.2L98.9554 132.042C99.7589 131.779 100.27 130.993 100.185 130.152Z" fill="#9FDC9B"/>
<path d="M100.117 136.915C100.222 136.077 99.7274 135.28 98.9305 134.999L89.3574 131.626L88.3892 139.409L98.4962 138.484C99.3381 138.408 100.012 137.754 100.115 136.917L100.117 136.915Z" fill="#9FDC9B"/>
<path d="M98.1601 144.484C98.4762 143.7 98.205 142.802 97.5079 142.326L89.1261 136.603L86.188 143.875L96.1919 145.582C97.0254 145.723 97.844 145.267 98.1601 144.484Z" fill="#9FDC9B"/>
<path d="M94.8942 150.355C95.3784 149.663 95.3135 148.726 94.7395 148.105L87.8467 140.655L83.358 147.087L92.7281 150.985C93.5084 151.31 94.4084 151.047 94.8926 150.355H94.8942Z" fill="#9FDC9B"/>
<path d="M90.432 155.436C91.0576 154.868 91.204 153.942 90.7831 153.21L85.7271 144.41L79.9174 149.679L88.1827 155.57C88.8715 156.061 89.8065 156.006 90.4337 155.439L90.432 155.436Z" fill="#9FDC9B"/>
<path d="M84.0119 159.898C84.7622 159.51 85.1432 158.653 84.9236 157.837L82.3032 148.032L75.3323 151.628L81.8025 159.447C82.3415 160.097 83.2599 160.286 84.0102 159.898H84.0119Z" fill="#9FDC9B"/>
<path d="M77.0077 162.387C77.8312 162.197 78.4102 161.458 78.4002 160.615L78.2788 150.466L70.6373 152.231L74.9796 161.405C75.3406 162.169 76.1858 162.578 77.0094 162.387H77.0077Z" fill="#9FDC9B"/>
<path d="M70.2896 163.165C71.1347 163.165 71.8634 162.573 72.0431 161.748L74.1893 151.829L66.3466 151.844L68.531 161.755C68.7124 162.58 69.4444 163.167 70.2896 163.165Z" fill="#9FDC9B"/>
<path d="M62.535 162.175C63.3518 162.392 64.2087 162.009 64.593 161.257L69.2198 152.225L61.6365 150.22L61.1973 160.36C61.1607 161.204 61.7164 161.959 62.5333 162.175H62.535Z" fill="#9FDC9B"/>
<path d="M55.2695 159.099C56.0015 159.522 56.9282 159.375 57.4972 158.752L64.3251 151.242L57.5304 147.325L54.4559 156.998C54.1997 157.803 54.5391 158.678 55.2711 159.099H55.2695Z" fill="#9FDC9B"/>
<path d="M49.8225 155.091C50.4414 155.665 51.3781 155.732 52.0718 155.249L60.4037 149.453L54.6539 144.119L49.4981 152.862C49.0688 153.589 49.2052 154.517 49.8241 155.093L49.8225 155.091Z" fill="#9FDC9B"/>
<path d="M44.8232 149.082C45.2741 149.797 46.1608 150.1 46.9561 149.814L56.4992 146.357L52.3166 139.722L45.0844 146.843C44.4822 147.435 44.374 148.367 44.8249 149.082H44.8232Z" fill="#9FDC9B"/>
<path d="M41.9048 142.65C42.1744 143.45 42.9646 143.956 43.8048 143.865L53.8936 142.758L51.3947 135.323L42.6851 140.534C41.9597 140.968 41.6353 141.848 41.9048 142.648V142.65Z" fill="#9FDC9B"/>
<path d="M40.4775 136.04C40.5607 136.88 41.2195 137.549 42.058 137.647L52.1385 138.82L51.3615 131.016L41.7086 134.152C40.905 134.413 40.3926 135.198 40.4758 136.038L40.4775 136.04Z" fill="#9FDC9B"/>
<path d="M40.7105 128.226C40.5758 129.059 41.0383 129.874 41.8236 130.185L51.2635 133.914L52.5229 126.173L42.3892 126.718C41.5457 126.763 40.847 127.39 40.7122 128.224L40.7105 128.226Z" fill="#9FDC9B"/>
<path d="M42.9115 121.178C42.5738 121.954 42.8234 122.859 43.5072 123.353L51.7359 129.294L54.8637 122.102L44.908 120.132C44.0795 119.967 43.2476 120.403 42.9115 121.178Z" fill="#9FDC9B"/>
<path d="M46.2821 115.315C45.7813 115.996 45.8212 116.932 46.3786 117.568L53.0734 125.196L57.7284 118.884L48.4632 114.743C47.6912 114.399 46.7845 114.637 46.2837 115.317L46.2821 115.315Z" fill="#9FDC9B"/>
<path d="M51.6924 109.672C51.0336 110.199 50.8306 111.116 51.205 111.873L55.712 120.967L61.8344 116.066L53.9468 109.679C53.2896 109.146 52.3513 109.145 51.6924 109.672Z" fill="#9FDC9B"/>
<path d="M56.86 106.434C56.108 106.819 55.7254 107.676 55.94 108.492L58.5237 118.307L65.508 114.736L59.0661 106.894C58.5304 106.241 57.612 106.05 56.86 106.434Z" fill="#9FDC9B"/>
<path d="M64.222 103.802C63.3968 103.98 62.8061 104.709 62.8028 105.554L62.7745 115.703L70.4426 114.051L66.2367 104.814C65.8873 104.045 65.0488 103.624 64.222 103.802Z" fill="#9FDC9B"/>
<path d="M85.8985 148.869C94.4696 140.298 94.4696 126.401 85.8985 117.83C77.3274 109.259 63.4308 109.259 54.8597 117.83C46.2886 126.401 46.2886 140.298 54.8597 148.869C63.4308 157.44 77.3274 157.44 85.8985 148.869Z" fill="#F7F7F7"/>
<path d="M82.7185 145.689C89.5334 138.874 89.5334 127.825 82.7185 121.01C75.9036 114.195 64.8544 114.195 58.0395 121.01C51.2245 127.825 51.2245 138.874 58.0395 145.689C64.8544 152.504 75.9036 152.504 82.7185 145.689Z" fill="#65C65F"/>
<path d="M63.0001 133.209L68.2657 137.873C68.3461 137.944 68.4683 137.939 68.5426 137.861L78.0001 128" stroke="#F7F7F7" stroke-width="3" stroke-linecap="round"/>
<defs>
<filter id="filter0_d_4832_13679" x="84.5255" y="0.338989" width="164.279" height="202.979" filterUnits="userSpaceOnUse" color-interpolation-filters="sRGB">
<feFlood flood-opacity="0" result="BackgroundImageFix"/>
<feColorMatrix in="SourceAlpha" type="matrix" values="0 0 0 0 0 0 0 0 0 0 0 0 0 0 0 0 0 0 127 0" result="hardAlpha"/>
<feOffset dy="4"/>
<feGaussianBlur stdDeviation="2"/>
<feComposite in2="hardAlpha" operator="out"/>
<feColorMatrix type="matrix" values="0 0 0 0 0 0 0 0 0 0 0 0 0 0 0 0 0 0 0.25 0"/>
<feBlend mode="normal" in2="BackgroundImageFix" result="effect1_dropShadow_4832_13679"/>
<feBlend mode="normal" in="SourceGraphic" in2="effect1_dropShadow_4832_13679" result="shape"/>
</filter>
<filter id="filter1_d_4832_13679" x="119.677" y="152.28" width="153.391" height="51.0403" filterUnits="userSpaceOnUse" color-interpolation-filters="sRGB">
<feFlood flood-opacity="0" result="BackgroundImageFix"/>
<feColorMatrix in="SourceAlpha" type="matrix" values="0 0 0 0 0 0 0 0 0 0 0 0 0 0 0 0 0 0 127 0" result="hardAlpha"/>
<feOffset dx="3" dy="4"/>
<feGaussianBlur stdDeviation="2"/>
<feComposite in2="hardAlpha" operator="out"/>
<feColorMatrix type="matrix" values="0 0 0 0 0 0 0 0 0 0 0 0 0 0 0 0 0 0 0.05 0"/>
<feBlend mode="normal" in2="BackgroundImageFix" result="effect1_dropShadow_4832_13679"/>
<feBlend mode="normal" in="SourceGraphic" in2="effect1_dropShadow_4832_13679" result="shape"/>
</filter>
<linearGradient id="paint0_linear_4832_13679" x1="57.583" y1="42.8618" x2="57.583" y2="195.32" gradientUnits="userSpaceOnUse">
<stop stop-color="#53A3F9"/>
<stop offset="1" stop-color="#057BFB"/>
</linearGradient>
<linearGradient id="paint1_linear_4832_13679" x1="81.7251" y1="65.6782" x2="81.7251" y2="195.32" gradientUnits="userSpaceOnUse">
<stop stop-color="#1778DF"/>
<stop offset="1" stop-color="#0B5CB3"/>
</linearGradient>
</defs>
</svg>
