<svg width="40" height="40" viewBox="0 0 40 40" fill="none" xmlns="http://www.w3.org/2000/svg">
<g clip-path="url(#clip0_18_722)">
<path d="M34.1429 5.8654C31.3473 3.06622 27.7843 1.15929 23.9049 0.385861C20.0255 -0.38757 16.0039 0.00726113 12.3487 1.52038C8.69377 3.03351 5.56955 5.59695 3.37142 8.8864C1.17329 12.1758 0 16.0435 0 20C0 23.9566 1.17329 27.8242 3.37142 31.1137C5.56955 34.4031 8.69377 36.9665 12.3487 38.4797C16.0039 39.9928 20.0255 40.3875 23.9049 39.6142C27.7843 38.8408 31.3473 36.9338 34.1429 34.1346C35.9997 32.2791 37.4727 30.0755 38.4777 27.6503C39.4827 25.2249 40 22.6254 40 20C40 17.3746 39.4827 14.7751 38.4777 12.3497C37.4727 9.92443 35.9997 7.721 34.1429 5.8654ZM26.9328 23.8462C26.9328 24.2542 26.7708 24.6455 26.4822 24.934C26.1938 25.2225 25.8025 25.3846 25.3946 25.3846C24.9867 25.3846 24.5954 25.2225 24.307 24.934C24.0186 24.6455 23.8564 24.2542 23.8564 23.8462V18.3269L15.7234 26.4808C15.4261 26.7598 15.0353 26.9175 14.6275 26.9231C14.2191 26.9214 13.8269 26.7631 13.5316 26.4808C13.2427 26.1891 13.0807 25.7952 13.0807 25.3846C13.0807 24.9742 13.2427 24.5802 13.5316 24.2885L21.6838 16.1538H16.1657C15.7577 16.1538 15.3664 15.9917 15.078 15.7032C14.7896 15.4148 14.6275 15.0234 14.6275 14.6154C14.6275 14.2074 14.7896 13.816 15.078 13.5275C15.3664 13.2391 15.7577 13.0769 16.1657 13.0769H25.3946C25.5927 13.0765 25.7888 13.1157 25.9714 13.1923C26.3512 13.346 26.6551 13.6431 26.8174 14.0192C26.8928 14.2091 26.9318 14.4112 26.9328 14.6154V23.8462Z" fill="#003057"/>
</g>
<defs>
<clipPath id="clip0_18_722">
<rect width="40" height="40" fill="white"/>
</clipPath>
</defs>
</svg>
