<svg width="60" height="60" viewBox="0 0 60 60" fill="none" xmlns="http://www.w3.org/2000/svg">
<rect width="60" height="60" rx="10" fill="url(#paint0_linear_18_734)"/>
<path d="M16.25 11.25V15.625C16.25 15.9703 15.9703 16.25 15.625 16.25H11.25V48.75H36.582C35.8258 48.4125 35.0492 48.0156 34.2766 47.5695C32.4289 46.5031 30.8117 45.2758 29.7234 44.1133C28.8375 43.168 27.9062 41.8242 28.5016 40.7945L30.8562 36.7156C31.4508 35.6852 33.0797 35.8195 34.3414 36.1141C34.8102 36.2234 35.3078 36.3719 35.8258 36.5547C36.4359 36.2398 38.218 35.207 39.2586 33.4047C39.5609 32.8805 39.8039 32.3359 40 31.8031V11.25H16.25ZM25.7719 15.0117C29.5273 15.0117 32.5828 18.0664 32.5828 21.8219C32.5828 25.5773 29.5273 28.632 25.7719 28.632C22.0164 28.632 18.9617 25.5773 18.9617 21.8219C18.9617 18.0664 22.0172 15.0117 25.7719 15.0117ZM26.9766 45.2672H14.5484C14.2031 45.2672 13.9234 44.9875 13.9234 44.6422C13.9234 44.2969 14.2031 44.0172 14.5484 44.0172H26.9766C27.3219 44.0172 27.6016 44.2977 27.6016 44.6422C27.6016 44.9867 27.3219 45.2672 26.9766 45.2672ZM13.9234 40.3781C13.9234 40.0328 14.2031 39.7531 14.5484 39.7531H25.7719C26.1172 39.7531 26.3969 40.0328 26.3969 40.3781C26.3969 40.7234 26.1172 41.0031 25.7719 41.0031H14.5484C14.2031 41.0031 13.9234 40.7234 13.9234 40.3781ZM27.7359 36.8797H14.5484C14.2031 36.8797 13.9234 36.5992 13.9234 36.2547C13.9234 35.9102 14.2031 35.6297 14.5484 35.6297H27.7359C28.0805 35.6297 28.3609 35.9094 28.3609 36.2547C28.3609 36.6 28.0805 36.8797 27.7359 36.8797ZM36.9953 32.7555H14.5484C14.2031 32.7555 13.9234 32.4758 13.9234 32.1305C13.9234 31.7852 14.2031 31.5055 14.5484 31.5055H36.9953C37.3406 31.5055 37.6203 31.7859 37.6203 32.1305C37.6203 32.475 37.3406 32.7555 36.9953 32.7555Z" fill="#093254"/>
<path d="M48.3001 30.0328C48.0423 30.4805 47.6962 30.8516 47.272 31.1375C47.079 31.261 44.5415 32.9125 43.0079 35.5688C42.1438 37.0657 41.8907 38.6703 41.8329 39.7688C41.1501 39.2711 40.4024 38.7852 39.6118 38.3289C38.8353 37.8805 38.0548 37.4828 37.2954 37.1446C38.2173 36.5438 39.4782 35.5235 40.3407 34.0297C41.8751 31.3727 42.0368 28.3493 42.047 28.1219C42.0821 27.611 42.2306 27.125 42.4892 26.6782C42.9368 25.9016 43.6603 25.3461 44.5267 25.1141C45.3923 24.8821 46.2962 25.0016 47.0728 25.45C48.6743 26.375 49.2259 28.4305 48.3001 30.0328Z" fill="#093254"/>
<path d="M41.9494 48.5585C41.908 48.6296 41.69 48.7507 41.1744 48.7507C40.8525 48.7507 40.4142 48.7031 39.8306 48.5671C38.3962 48.2328 36.6455 47.4945 34.9017 46.4875C33.1572 45.4804 31.6423 44.3335 30.6353 43.2585C29.5681 42.1195 29.5173 41.5343 29.5837 41.4195C29.6251 41.3484 29.8423 41.2273 30.3587 41.2273C30.6806 41.2273 31.1189 41.2742 31.7025 41.4101C33.1369 41.7445 34.8876 42.4835 36.6314 43.4906C38.3759 44.4976 39.8908 45.6445 40.8978 46.7187C41.9642 47.8578 42.0158 48.4429 41.9494 48.5585Z" fill="#093254"/>
<path d="M44.3039 44.4797L42.7789 47.1204C42.5125 46.6696 42.1578 46.236 41.8094 45.8649C40.7211 44.7024 39.1039 43.475 37.2563 42.4079C35.4086 41.3415 33.5367 40.5547 31.9867 40.193C31.4906 40.0774 30.9383 39.9868 30.4141 39.9813L31.9391 37.3407C32.0055 37.225 32.5367 36.9766 34.0578 37.3313C35.4914 37.6657 37.2422 38.4047 38.9867 39.4118C40.7305 40.4188 42.2461 41.5649 43.2523 42.6399C44.3195 43.7797 44.3703 44.3641 44.3039 44.4797Z" fill="#093254"/>
<path d="M25.7721 16.2617C22.7064 16.2617 20.2119 18.7563 20.2119 21.8219C20.2119 24.8875 22.7064 27.382 25.7721 27.382C28.8377 27.382 31.333 24.8875 31.333 21.8219C31.333 18.7563 28.8385 16.2617 25.7721 16.2617ZM29.1252 20.8805L25.5869 24.9852C25.4635 25.1273 25.2893 25.2023 25.1135 25.2023C24.9885 25.2023 24.8627 25.1648 24.7533 25.0875L22.7908 23.7047C22.5088 23.5055 22.4416 23.1156 22.64 22.8336C22.8393 22.5516 23.2291 22.4836 23.5111 22.6828L25.0104 23.7398L28.1791 20.0641C28.4041 19.8031 28.7986 19.7742 29.0604 19.9992C29.3221 20.225 29.351 20.6195 29.1252 20.8805Z" fill="#093254"/>
<path d="M15.0002 12.1335V15H12.1338L15.0002 12.1335Z" fill="#093254"/>
<defs>
<linearGradient id="paint0_linear_18_734" x1="-3.33333" y1="-11.6667" x2="30" y2="60" gradientUnits="userSpaceOnUse">
<stop stop-color="#F1FF2F"/>
<stop offset="1" stop-color="#96DD6F"/>
</linearGradient>
</defs>
</svg>
