<svg width="72" height="73" viewBox="0 0 72 73" fill="none" xmlns="http://www.w3.org/2000/svg">
<circle cx="36" cy="36.793" r="36" fill="url(#paint0_linear_18_586)"/>
<path d="M47.8126 28.918C47.2706 28.9178 46.73 28.9737 46.1995 29.0847C45.6498 26.7934 44.3447 24.7539 42.4944 23.295C40.644 21.8361 38.3564 21.0427 36.0001 21.0427C33.6438 21.0427 31.3562 21.8361 29.5058 23.295C27.6555 24.7539 26.3503 26.7934 25.8007 29.0847C24.7216 28.859 23.6071 28.8625 22.5294 29.0948C21.4518 29.3271 20.4349 29.7832 19.5446 30.4333C18.6543 31.0835 17.9104 31.9134 17.3611 32.8692C16.8118 33.8251 16.4693 34.8856 16.3558 35.9822C16.2423 37.0787 16.3603 38.1869 16.7022 39.235C17.044 40.2831 17.6021 41.2477 18.3404 42.0665C19.0786 42.8852 19.9806 43.5399 20.9878 43.988C21.995 44.4361 23.0852 44.6678 24.1876 44.668H27.4688V50.5742C27.4688 51.0964 27.6763 51.5971 28.0455 51.9663C28.4147 52.3356 28.9154 52.543 29.4376 52.543H42.5626C43.0847 52.543 43.5855 52.3356 43.9547 51.9663C44.3239 51.5971 44.5313 51.0964 44.5313 50.5742V44.668H47.8126C49.9012 44.668 51.9042 43.8383 53.3811 42.3614C54.8579 40.8846 55.6876 38.8816 55.6876 36.793C55.6876 34.7044 54.8579 32.7014 53.3811 31.2245C51.9042 29.7477 49.9012 28.918 47.8126 28.918ZM43.2188 50.5742C43.2188 50.7483 43.1497 50.9152 43.0266 51.0383C42.9036 51.1613 42.7366 51.2305 42.5626 51.2305H29.4376C29.2635 51.2305 29.0966 51.1613 28.9736 51.0383C28.8505 50.9152 28.7813 50.7483 28.7813 50.5742V41.3867C28.7813 41.2127 28.8505 41.0458 28.9736 40.9227C29.0966 40.7996 29.2635 40.7305 29.4376 40.7305H42.5626C42.7366 40.7305 42.9036 40.7996 43.0266 40.9227C43.1497 41.0458 43.2188 41.2127 43.2188 41.3867V50.5742ZM40.5938 39.418H39.2813V37.4492C39.2813 36.579 38.9356 35.7444 38.3203 35.129C37.7049 34.5137 36.8703 34.168 36.0001 34.168C35.1299 34.168 34.2953 34.5137 33.6799 35.129C33.0645 35.7444 32.7188 36.579 32.7188 37.4492V39.418H31.4063V37.4492C31.4063 36.2309 31.8903 35.0625 32.7518 34.201C33.6133 33.3395 34.7818 32.8555 36.0001 32.8555C37.2184 32.8555 38.3869 33.3395 39.2484 34.201C40.1099 35.0625 40.5938 36.2309 40.5938 37.4492V39.418ZM34.0313 39.418V37.4492C34.0313 36.9271 34.2388 36.4263 34.608 36.0571C34.9772 35.6879 35.4779 35.4805 36.0001 35.4805C36.5222 35.4805 37.023 35.6879 37.3922 36.0571C37.7614 36.4263 37.9688 36.9271 37.9688 37.4492V39.418H34.0313ZM47.8126 43.3555H44.5313V41.3867C44.5313 40.8646 44.3239 40.3638 43.9547 39.9946C43.5855 39.6254 43.0847 39.418 42.5626 39.418H41.9063V37.4492C41.9063 35.8828 41.2841 34.3805 40.1764 33.2729C39.0688 32.1652 37.5665 31.543 36.0001 31.543C34.4337 31.543 32.9314 32.1652 31.8237 33.2729C30.7161 34.3805 30.0938 35.8828 30.0938 37.4492V39.418H29.4376C28.9154 39.418 28.4147 39.6254 28.0455 39.9946C27.6763 40.3638 27.4688 40.8646 27.4688 41.3867V43.3555H24.1876C23.2437 43.355 22.3111 43.151 21.4532 42.7573C20.5954 42.3636 19.8326 41.7895 19.2169 41.0741C18.6011 40.3588 18.1469 39.519 17.8853 38.6121C17.6236 37.7053 17.5607 36.7526 17.7008 35.8192C17.8408 34.8858 18.1806 33.9936 18.6968 33.2034C19.2131 32.4133 19.8937 31.7438 20.6923 31.2407C21.4909 30.7375 22.3886 30.4125 23.3242 30.2879C24.2598 30.1633 25.2113 30.242 26.1137 30.5186C26.2029 30.5459 26.297 30.5539 26.3896 30.542C26.4821 30.5302 26.5711 30.4987 26.6506 30.4497C26.73 30.4007 26.7981 30.3353 26.8502 30.2579C26.9024 30.1805 26.9374 30.0928 26.953 30.0008C27.3148 27.8631 28.4218 25.9225 30.0779 24.5232C31.7339 23.1238 33.832 22.3561 36.0001 22.3561C38.1682 22.3561 40.2663 23.1238 41.9223 24.5232C43.5784 25.9225 44.6854 27.8631 45.0472 30.0008C45.0628 30.0928 45.0978 30.1805 45.15 30.2579C45.2021 30.3353 45.2702 30.4007 45.3496 30.4497C45.4291 30.4987 45.5181 30.5302 45.6106 30.542C45.7032 30.5539 45.7973 30.5459 45.8865 30.5186C46.7889 30.242 47.7404 30.1633 48.676 30.2879C49.6116 30.4125 50.5093 30.7375 51.3079 31.2407C52.1064 31.7438 52.7871 32.4133 53.3034 33.2034C53.8196 33.9936 54.1594 34.8858 54.2994 35.8192C54.4395 36.7526 54.3765 37.7053 54.1149 38.6121C53.8533 39.519 53.3991 40.3588 52.7833 41.0741C52.1676 41.7895 51.4048 42.3636 50.5469 42.7573C49.6891 43.151 48.7565 43.355 47.8126 43.3555Z" fill="#0D203B"/>
<path d="M36.0003 42.043C35.5258 42.0411 35.0597 42.1684 34.652 42.4112C34.2444 42.6541 33.9105 43.0033 33.6862 43.4215C33.462 43.8396 33.3558 44.311 33.379 44.7849C33.4023 45.2589 33.5541 45.7175 33.8182 46.1117L33.3818 49.1672C33.3683 49.2604 33.3749 49.3555 33.4014 49.4459C33.4278 49.5363 33.4734 49.62 33.535 49.6912C33.5966 49.7624 33.6729 49.8195 33.7586 49.8587C33.8442 49.8978 33.9373 49.918 34.0315 49.918H37.969C38.0631 49.918 38.1561 49.8978 38.2416 49.8587C38.3272 49.8197 38.4034 49.7627 38.465 49.6916C38.5266 49.6205 38.5722 49.537 38.5987 49.4468C38.6253 49.3566 38.6321 49.2617 38.6187 49.1686L38.1823 46.1117C38.4464 45.7175 38.5983 45.2589 38.6215 44.7849C38.6448 44.311 38.5386 43.8396 38.3143 43.4215C38.0901 43.0033 37.7562 42.6541 37.3485 42.4112C36.9409 42.1684 36.4748 42.0411 36.0003 42.043ZM37.2124 48.6055H34.7882L35.1563 46.0297C35.1694 45.9377 35.1627 45.8439 35.1368 45.7547C35.1109 45.6654 35.0663 45.5827 35.0061 45.5119C34.8026 45.2776 34.6897 44.9783 34.6878 44.668C34.6878 44.3199 34.8261 43.9861 35.0722 43.7399C35.3183 43.4938 35.6522 43.3555 36.0003 43.3555C36.3484 43.3555 36.6822 43.4938 36.9284 43.7399C37.1745 43.9861 37.3128 44.3199 37.3128 44.668C37.3109 44.9783 37.198 45.2776 36.9945 45.5119C36.9342 45.5827 36.8896 45.6654 36.8637 45.7547C36.8378 45.8439 36.8312 45.9377 36.8442 46.0297L37.2124 48.6055Z" fill="#0D203B"/>
<defs>
<linearGradient id="paint0_linear_18_586" x1="-4" y1="-13.207" x2="36" y2="72.793" gradientUnits="userSpaceOnUse">
<stop stop-color="#F1FF2F"/>
<stop offset="1" stop-color="#96DD6F"/>
</linearGradient>
</defs>
</svg>
