<svg width="72" height="72" viewBox="0 0 72 72" fill="none" xmlns="http://www.w3.org/2000/svg">
<circle cx="36" cy="36" r="36" fill="url(#paint0_linear_433_1018)"/>
<path d="M38.7086 19.6358L28.626 29.7184C27.3292 31.0152 26.6152 32.7398 26.6152 34.5734C26.6152 36.4069 27.3292 38.1302 28.626 39.427C29.9227 40.7237 31.6474 41.4377 33.4809 41.4377C35.3145 41.4377 37.0378 40.7237 38.3345 39.427C38.8477 38.9138 38.8477 38.083 38.3345 37.5711C37.8214 37.0579 36.9919 37.0579 36.4787 37.5711C34.8761 39.1737 32.0844 39.1737 30.4819 37.5711C29.6812 36.7705 29.2402 35.7061 29.2402 34.5734C29.2402 33.4407 29.6812 32.3762 30.4819 31.5743L40.5645 21.4917C42.2182 19.8379 44.9089 19.8379 46.5613 21.4917C48.2137 23.1454 48.2137 25.8347 46.5613 27.4885L44.9902 29.0596C44.477 29.5727 44.477 30.4022 44.9902 30.9154C45.5034 31.4286 46.3329 31.4286 46.8461 30.9154L48.4172 29.3444C51.0934 26.6669 51.0934 22.312 48.4172 19.6358C45.741 16.9583 41.3848 16.9583 38.7086 19.6358Z" fill="#0D203B"/>
<path d="M38.5196 30.519C36.686 30.519 34.9627 31.233 33.6659 32.5298C33.1528 33.043 33.1528 33.8738 33.6659 34.3857C34.1791 34.8989 35.0086 34.8989 35.5218 34.3857C37.1244 32.7831 39.9161 32.7831 41.5186 34.3857C42.3193 35.1863 42.7602 36.2507 42.7602 37.3834C42.7602 38.5161 42.3193 39.5805 41.5186 40.3825L31.436 50.4651C29.7823 52.1189 27.0916 52.1189 25.4392 50.4651C23.7868 48.8114 23.7868 46.122 25.4392 44.4683L27.0103 42.8972C27.5234 42.384 27.5234 41.5545 27.0103 41.0414C26.4971 40.5282 25.6676 40.5282 25.1544 41.0414L23.5833 42.6124C20.9071 45.2899 20.9071 49.6448 23.5833 52.321C24.9221 53.6597 26.6795 54.3291 28.4383 54.3291C30.197 54.3291 31.9544 53.6597 33.2932 52.321L43.3758 42.2384C44.6726 40.9416 45.3866 39.217 45.3866 37.3834C45.3866 35.5499 44.6726 33.8265 43.3758 32.5298C42.0791 31.233 40.3531 30.519 38.5196 30.519Z" fill="#0D203B"/>
<defs>
<linearGradient id="paint0_linear_433_1018" x1="-4" y1="-14" x2="36" y2="72" gradientUnits="userSpaceOnUse">
<stop stop-color="#F1FF2F"/>
<stop offset="1" stop-color="#96DD6F"/>
</linearGradient>
</defs>
</svg>
