<svg width="72" height="73" viewBox="0 0 72 73" fill="none" xmlns="http://www.w3.org/2000/svg">
<circle cx="36" cy="36.9626" r="36" fill="url(#paint0_linear_433_1036)"/>
<g clip-path="url(#clip0_433_1036)">
<path d="M47.1148 50.7299H46.6148C46.3852 50.7299 46.1687 50.838 46.0304 51.0221L47.1148 50.7299ZM47.1148 50.7299V50.7296H51.2136H52.0226L51.6609 50.006L47.8432 42.3697L47.5267 41.7367L47.0358 42.2465C44.9358 44.4272 42.1953 45.9843 39.1213 46.6119L38.4826 46.7424L38.7742 47.3255L42.4239 54.6246L42.7857 55.3482L43.2711 54.701L46.0302 51.0223L47.1148 50.7299ZM53.858 51.1335L53.8581 51.1336C53.9714 51.3601 53.9593 51.6287 53.8261 51.8441L53.8259 51.8443C53.693 52.0596 53.4579 52.1909 53.2048 52.1909H47.2303H46.9803L46.8303 52.3908L43.2453 57.1704L43.6453 57.4705L43.2453 57.1705C43.1066 57.3553 42.8896 57.4626 42.6612 57.4626C42.3602 57.4626 42.1201 57.2836 42.0078 57.0589L42.0078 57.0588L37.0705 47.1846L36.9268 46.8973L36.6058 46.9085C36.4259 46.9148 36.2482 46.9191 36.0712 46.9191C35.8942 46.9191 35.7165 46.9148 35.5365 46.9085L35.2155 46.8973L35.0719 47.1846L30.1347 57.0586C30.1347 57.0587 30.1346 57.0587 30.1346 57.0588C30.0217 57.2843 29.7818 57.4626 29.4811 57.4626C29.2526 57.4626 29.0357 57.3554 28.8966 57.1702L25.312 52.3909L25.162 52.1909H24.912H18.9375C18.6847 52.1909 18.4495 52.0598 18.3161 51.8443C18.1831 51.6289 18.1709 51.3601 18.2841 51.1335C18.2841 51.1334 18.2841 51.1334 18.2841 51.1333L23.4918 40.7191L23.6227 40.4572L23.4584 40.2148C21.8079 37.7806 20.843 34.8468 20.843 31.6909C20.843 23.2944 27.6748 16.4626 36.0712 16.4626C44.4676 16.4626 51.2994 23.2944 51.2994 31.6909C51.2994 34.8468 50.3345 37.7803 48.6843 40.2142L48.52 40.4565L48.6509 40.7184L53.858 51.1335ZM28.8713 54.701L29.3567 55.3482L29.7185 54.6246L33.3679 47.3254L33.6594 46.7423L33.0207 46.6119C29.9472 45.9846 27.2069 44.4272 25.1068 42.2471L24.6159 41.7375L24.2995 42.3703L20.4812 50.0063L20.1194 50.7299H20.9284H25.5273C25.7573 50.7299 25.9738 50.8382 26.1116 51.022L26.1117 51.0221L28.8713 54.701ZM36.0712 17.9236C28.4795 17.9236 22.3039 24.0992 22.3039 31.6909C22.3039 39.2825 28.4795 45.4581 36.0712 45.4581C43.6628 45.4581 49.8385 39.2825 49.8385 31.6909C49.8385 24.0992 43.6628 17.9236 36.0712 17.9236Z" fill="#0D203B" stroke="black"/>
<path d="M41.839 33.565L41.9685 33.4105L45.4048 29.309L45.4049 29.3089C45.5666 29.116 45.6175 28.8536 45.5397 28.6144L45.5397 28.6143C45.4619 28.3748 45.2663 28.1924 45.0223 28.1313C45.0223 28.1313 45.0223 28.1313 45.0223 28.1313L39.8316 26.8329L39.6361 26.784L39.5291 26.6132L36.6898 22.0774L36.6897 22.0773C36.5562 21.8639 36.3222 21.7344 36.0706 21.7344C35.8189 21.7344 35.5849 21.8639 35.4514 22.0773L35.4514 22.0774L32.6127 26.6131L32.5057 26.784L32.3102 26.8329L27.1198 28.1313L27.1197 28.1313C26.8754 28.1924 26.6799 28.3748 26.6021 28.6139C26.5244 28.8539 26.5755 29.1163 26.7369 29.3089L26.737 29.309L30.1733 33.4105L30.3028 33.5651L30.2888 33.7662L29.9191 39.1035C29.9191 39.1036 29.9191 39.1036 29.9191 39.1037C29.9018 39.355 30.0149 39.5972 30.2183 39.7452L41.839 33.565ZM41.839 33.565L41.8529 33.7661M41.839 33.565L41.8529 33.7661M41.8529 33.7661L42.222 39.1038C42.2394 39.3551 42.1263 39.5974 41.9227 39.7454C41.7192 39.8931 41.4538 39.9259 41.2204 39.832C41.2203 39.832 41.2203 39.832 41.2202 39.8319L36.2575 37.8315L36.0706 37.7562M41.8529 33.7661L36.0706 37.7562M36.0706 37.7562L35.8837 37.8315M36.0706 37.7562L35.8837 37.8315M35.8837 37.8315L30.921 39.8316M35.8837 37.8315L30.921 39.8316M30.921 39.8316C30.8345 39.8664 30.5235 39.967 30.2183 39.7452L30.921 39.8316ZM40.3614 33.3719L40.3614 33.3717C40.3483 33.1835 40.4086 32.9976 40.53 32.8524C40.5301 32.8524 40.5301 32.8523 40.5302 32.8523L43.0227 29.8778L43.5358 29.2655L42.7608 29.0716L38.996 28.1299L38.9959 28.1299C38.8127 28.0841 38.6545 27.9691 38.5541 27.8088L38.5541 27.8088L36.4947 24.5188L36.0708 23.8418L35.647 24.5189L33.5879 27.8088C33.4876 27.9691 33.3294 28.0841 33.1461 28.1299L33.1461 28.1299L29.3813 29.0716L28.6063 29.2655L29.1194 29.8778L31.6116 32.8523C31.733 32.9973 31.7936 33.1836 31.7807 33.3722C31.7807 33.3722 31.7807 33.3722 31.7807 33.3722C31.7807 33.3723 31.7807 33.3724 31.7807 33.3725L31.5125 37.2437L31.4573 38.0406L32.1982 37.742L35.7977 36.291L35.7982 36.2908C35.9011 36.2492 36.1083 36.1961 36.3437 36.291L36.3438 36.291L39.9432 37.742L40.684 38.0406L40.629 37.2437L40.3614 33.3719Z" fill="#0D203B" stroke="black"/>
</g>
<defs>
<linearGradient id="paint0_linear_433_1036" x1="-4" y1="-13.0374" x2="36" y2="72.9626" gradientUnits="userSpaceOnUse">
<stop stop-color="#F1FF2F"/>
<stop offset="1" stop-color="#96DD6F"/>
</linearGradient>
<clipPath id="clip0_433_1036">
<rect width="42" height="42" fill="white" transform="translate(15 15.9626)"/>
</clipPath>
</defs>
</svg>
