<svg width="72" height="73" viewBox="0 0 72 73" fill="none" xmlns="http://www.w3.org/2000/svg">
<circle cx="36" cy="36.9812" r="36" fill="url(#paint0_linear_433_1028)"/>
<g clip-path="url(#clip0_433_1028)">
<path fill-rule="evenodd" clip-rule="evenodd" d="M24.9847 27.1375C24.9847 33.2212 29.9166 38.1531 36.0003 38.1531C42.0841 38.1531 47.016 33.2212 47.016 27.1375C47.016 21.0537 42.0841 16.1218 36.0003 16.1218C29.9166 16.1218 24.9847 21.0537 24.9847 27.1375ZM36.0003 35.1531C31.5734 35.1531 27.9847 31.5644 27.9847 27.1375C27.9847 22.7105 31.5734 19.1218 36.0003 19.1218C40.4272 19.1218 44.016 22.7105 44.016 27.1375C44.016 31.5644 40.4272 35.1531 36.0003 35.1531Z" fill="#0D203B"/>
<path fill-rule="evenodd" clip-rule="evenodd" d="M15.2444 51.9988C14.6196 55.0001 16.8927 57.8406 19.979 57.8406H32.8011C33.6295 57.8406 34.3011 57.169 34.3011 56.3406C34.3011 55.5121 33.6295 54.8406 32.8011 54.8406H19.979C18.8162 54.8406 17.9402 53.769 18.1815 52.6103C19.9018 44.3471 27.2278 38.1394 36.0003 38.1394C39.2104 38.1394 42.2221 38.9691 44.8376 40.4247C45.5615 40.8276 46.4749 40.5673 46.8777 39.8435C47.2806 39.1196 47.0204 38.2062 46.2965 37.8033C43.2464 36.1058 39.734 35.1394 36.0003 35.1394C25.778 35.1394 17.2485 42.3725 15.2444 51.9988Z" fill="#0D203B"/>
<path fill-rule="evenodd" clip-rule="evenodd" d="M50.5227 52.3123C51.1068 52.8998 52.0565 52.9024 52.644 52.3183L55.6956 49.2836C57.2508 47.737 57.2473 45.2277 55.6878 43.6854L52.641 40.6724C52.0519 40.0899 51.1022 40.0952 50.5197 40.6843C49.9372 41.2734 49.9425 42.2231 50.5316 42.8056L53.5783 45.8185C53.5783 45.8185 53.5783 45.8185 53.5783 45.8185C53.9528 46.1888 53.9536 46.785 53.5802 47.1564C53.5802 47.1564 53.5802 47.1564 53.5802 47.1564L50.5286 50.191C49.9412 50.7752 49.9385 51.7249 50.5227 52.3123Z" fill="#0D203B"/>
<path fill-rule="evenodd" clip-rule="evenodd" d="M43.1371 54.8406C41.2409 54.8406 39.7152 53.3066 39.7152 51.3786C39.7152 49.4666 41.2652 47.9167 43.1771 47.9167H54.2113C55.0397 47.9167 55.7113 47.2451 55.7113 46.4167C55.7113 45.5883 55.0397 44.9167 54.2113 44.9167H43.1771C39.6083 44.9167 36.7152 47.8097 36.7152 51.3786C36.7152 54.9316 39.5524 57.8406 43.1371 57.8406C43.9655 57.8406 44.6371 57.169 44.6371 56.3406C44.6371 55.5121 43.9655 54.8406 43.1371 54.8406Z" fill="#0D203B"/>
</g>
<defs>
<linearGradient id="paint0_linear_433_1028" x1="-4" y1="-13.0188" x2="36" y2="72.9812" gradientUnits="userSpaceOnUse">
<stop stop-color="#F1FF2F"/>
<stop offset="1" stop-color="#96DD6F"/>
</linearGradient>
<clipPath id="clip0_433_1028">
<rect width="42" height="42" fill="white" transform="translate(15 15.9812)"/>
</clipPath>
</defs>
</svg>
