<svg width="72" height="73" viewBox="0 0 72 73" fill="none" xmlns="http://www.w3.org/2000/svg">
<circle cx="36" cy="36.793" r="36" fill="url(#paint0_linear_18_554)"/>
<g clip-path="url(#clip0_18_554)">
<path d="M50.5093 43.8566C49.4911 43.4748 48.3457 43.6021 47.3275 44.2384L41.2184 47.9293C40.9639 47.7384 40.7093 47.5475 40.4548 47.4839L31.2275 44.1748C30.5275 43.9203 29.7639 43.9203 29.1275 44.2384C29.1275 44.2384 29.0639 44.2384 29.0639 44.3021L25.3729 46.5293V46.3384C25.3729 45.6384 24.8002 45.0657 24.1002 45.0657H21.0457C20.3457 45.0657 19.7729 45.6384 19.7729 46.3384V55.8839C19.7729 56.5839 20.3457 57.1566 21.0457 57.1566H24.0366C24.7366 57.1566 25.3093 56.5839 25.3093 55.8839V55.5657C26.7093 54.8021 27.282 54.1021 28.2366 54.2293L38.4184 56.4566C39.2457 56.7112 40.1366 56.5203 40.9002 56.0112L51.273 47.8021C52.673 46.8475 52.5457 44.6203 50.5093 43.8566ZM21.0457 55.8839V46.3384H24.0366V55.8839H21.0457ZM50.5093 46.7839C39.9457 54.8021 40.2002 55.6293 38.7366 55.1839L28.4911 52.9566H28.4275C26.9639 52.7021 25.9457 53.7203 25.3093 54.0384V47.9293L29.6366 45.3203C30.0184 45.193 30.4002 45.193 30.782 45.3203L40.0093 48.6293C40.8366 48.9475 41.1548 49.9657 40.6457 50.6657C40.2639 51.1748 39.6275 51.3657 38.9911 51.1112L33.5184 49.0112C33.2002 48.8839 32.8184 49.0748 32.6911 49.393C32.5639 49.7112 32.7548 50.093 33.073 50.2203L38.5457 52.3203C39.6911 52.8293 40.9639 52.4475 41.6639 51.493C42.173 50.793 42.3639 49.9657 41.982 49.0112L48.0275 45.3839C48.6639 45.0021 49.4275 44.8748 50.1275 45.1293C51.082 45.4475 51.1457 46.3384 50.5093 46.7839Z" fill="#0D203B"/>
<path d="M34.9185 37.493C35.4912 37.8748 35.8731 38.5112 36.0003 39.1475C35.4276 39.4657 35.1094 40.1021 35.1094 40.7385C35.1094 41.6294 35.7458 42.393 36.6367 42.5839L36.8912 44.6203C36.9549 44.9385 37.2094 45.193 37.5276 45.193H42.4912C42.8094 45.193 43.064 44.9385 43.1276 44.6203L43.3821 42.5203C44.1458 42.2657 44.7821 41.5657 44.7821 40.7385C44.7821 40.0385 44.4003 39.4657 43.8912 39.1475C43.9549 38.5112 44.3367 37.8748 44.9731 37.4294C47.3276 35.7748 48.7912 33.1021 48.7912 30.2385C48.7912 25.2748 44.6549 21.2657 39.6276 21.5203C35.1094 21.7112 31.3549 25.593 31.2912 30.1112C31.1003 33.1021 32.5003 35.8385 34.9185 37.493ZM38.0367 43.9839L37.9094 42.7112H42.0458L41.9185 43.9839H38.0367ZM42.7458 41.4385H36.9549C36.6367 41.4385 36.3185 41.1839 36.3185 40.8021C36.3185 40.4839 36.5731 40.1657 36.9549 40.1657H42.7458C43.064 40.1657 43.3821 40.4203 43.3821 40.8021C43.3821 41.1203 43.1276 41.4385 42.7458 41.4385ZM39.5003 22.8566C43.764 22.6657 47.3276 26.1021 47.3276 30.3021C47.3276 32.7839 46.1185 35.0748 44.0821 36.4748C43.1912 37.0475 42.6185 37.9385 42.4912 38.9566H37.2731C37.1458 38.0021 36.5731 37.1112 35.6821 36.4748C33.6458 35.0748 32.4367 32.7203 32.4367 30.2385C32.5003 26.3566 35.6821 23.0475 39.5003 22.8566Z" fill="#0D203B"/>
<path d="M39.6912 26.0385C42.1094 25.9113 44.1458 27.884 44.1458 30.3022C44.1458 30.684 44.4003 30.9385 44.7821 30.9385C45.1639 30.9385 45.4185 30.684 45.4185 30.3022C45.4185 27.184 42.8094 24.6385 39.6276 24.7658C39.2458 24.7658 38.9912 25.084 38.9912 25.4022C38.9912 25.784 39.3094 26.0385 39.6912 26.0385Z" fill="#0D203B"/>
<path d="M39.882 20.184C40.2638 20.184 40.5183 19.9294 40.5183 19.5476V17.0658C40.5183 16.684 40.2638 16.4294 39.882 16.4294C39.5002 16.4294 39.2456 16.684 39.2456 17.0658V19.5476C39.2456 19.9294 39.5002 20.184 39.882 20.184Z" fill="#0D203B"/>
<path d="M35.3637 20.5022C35.491 20.7568 35.6819 20.884 35.9365 20.884C36.0001 20.884 36.1274 20.884 36.191 20.8204C36.5092 20.6931 36.7001 20.3113 36.5092 19.9931L35.5546 17.7022C35.4274 17.384 35.0455 17.1931 34.7274 17.384C34.4092 17.5113 34.2183 17.8931 34.4092 18.2113L35.3637 20.5022Z" fill="#0D203B"/>
<path d="M32.1822 22.9203C32.4367 23.1748 32.8186 23.1748 33.0731 22.9203C33.3277 22.6657 33.3277 22.2839 33.0731 22.0294L31.2913 20.2475C31.0367 19.993 30.6549 19.993 30.4004 20.2475C30.1458 20.5021 30.1458 20.8839 30.4004 21.1385L32.1822 22.9203Z" fill="#0D203B"/>
<path d="M47.5183 23.1112L49.3002 21.3294C49.5547 21.0748 49.5547 20.693 49.3002 20.4385C49.0456 20.1839 48.6638 20.1839 48.4093 20.4385L46.6274 22.1566C46.3729 22.4112 46.3729 22.793 46.6274 23.0476C46.8183 23.3021 47.2638 23.3021 47.5183 23.1112Z" fill="#0D203B"/>
<path d="M43.5095 20.9475C43.5732 21.0112 43.7004 21.0112 43.7641 21.0112C44.0186 21.0112 44.2732 20.8839 44.3368 20.6294L45.2913 18.3384C45.4186 18.0203 45.2913 17.6384 44.9732 17.5112C44.655 17.3839 44.2732 17.5112 44.1459 17.8294L43.1913 20.1203C43.0641 20.4384 43.1913 20.8203 43.5095 20.9475Z" fill="#0D203B"/>
</g>
<defs>
<linearGradient id="paint0_linear_18_554" x1="-4" y1="-13.207" x2="36" y2="72.793" gradientUnits="userSpaceOnUse">
<stop stop-color="#F1FF2F"/>
<stop offset="1" stop-color="#96DD6F"/>
</linearGradient>
<clipPath id="clip0_18_554">
<rect width="42" height="42" fill="white" transform="translate(15 15.793)"/>
</clipPath>
</defs>
</svg>
