<svg width="72" height="73" viewBox="0 0 72 73" fill="none" xmlns="http://www.w3.org/2000/svg">
<circle cx="36" cy="36.793" r="36" fill="url(#paint0_linear_18_578)"/>
<g clip-path="url(#clip0_18_578)">
<path d="M54.7783 42.0649C54.4096 41.4491 52.8977 39.6199 48.921 41.9359L41.9641 45.9879C41.6474 46.1723 41.3258 46.3071 40.9917 46.3935C41.1078 46.1908 41.2002 45.9655 41.2661 45.7195C41.4532 45.0214 41.3442 44.2657 40.9672 43.6462C40.606 43.0524 40.0432 42.6457 39.3827 42.5008C37.3323 42.0512 35.3066 41.3517 33.6788 40.7896C33.1747 40.6155 32.6986 40.4512 32.2917 40.3192C30.4961 39.7368 28.8765 40.4558 27.5288 41.236L22.3871 44.213L21.9184 43.385C21.4621 42.5785 20.4344 42.2935 19.6281 42.7502L17.6762 43.855C16.8698 44.3113 16.585 45.3387 17.0414 46.1452L22.78 56.2847C23.0888 56.8303 23.659 57.1372 24.2454 57.1372C24.5255 57.1372 24.8095 57.0672 25.0703 56.9195L27.0222 55.8148C27.4119 55.5943 27.6927 55.2342 27.8128 54.8008C27.9329 54.3674 27.8776 53.9141 27.6571 53.5245L27.0844 52.5126L28.2168 51.8588L37.1116 54.2422C37.6066 54.3749 38.099 54.4408 38.5833 54.4408C39.5629 54.4408 40.5093 54.1711 41.3743 53.6386L53.9994 45.8646C55.1673 45.1455 55.5387 43.3344 54.7783 42.0649ZM26.5479 54.4502C26.5214 54.5457 26.4603 54.6246 26.3757 54.6725L24.4237 55.7773C24.2503 55.8756 24.0205 55.8119 23.9221 55.6383L18.1837 45.4985C18.0854 45.3249 18.1491 45.0952 18.3227 44.9969L20.2746 43.8922C20.3301 43.8608 20.3914 43.846 20.4523 43.846C20.5817 43.846 20.7094 43.9132 20.7762 44.0313L21.5743 45.4414C21.5744 45.4415 21.5744 45.4416 21.5745 45.4417C21.5745 45.4418 21.5745 45.4418 21.5745 45.4419L26.5148 54.171C26.5626 54.2555 26.5744 54.3546 26.5479 54.4502ZM53.3112 44.7469L40.6862 52.5208C39.6946 53.1313 38.6062 53.284 37.4512 52.9744L28.2938 50.5207C28.1257 50.4755 27.9466 50.4992 27.7959 50.5863L26.4378 51.3703L23.0335 45.3551L28.1863 42.3717C29.3388 41.7043 30.5849 41.1453 31.8865 41.5674C32.2817 41.6956 32.7522 41.8581 33.2502 42.0301C34.9102 42.6032 36.9762 43.3167 39.1014 43.7827C39.4084 43.85 39.6728 44.0438 39.8459 44.3282C40.0373 44.643 40.0928 45.0262 39.9981 45.3797C39.7615 46.2628 39.0237 46.3735 38.4355 46.3062C37.4127 46.0958 36.4401 45.8183 35.411 45.5244C34.9221 45.3848 34.4166 45.2404 33.8969 45.1011C33.5471 45.0076 33.187 45.2151 33.0931 45.5651C32.9993 45.9152 33.2071 46.275 33.5572 46.3689C34.0665 46.5053 34.5667 46.6482 35.0505 46.7864C36.1129 47.0899 37.1165 47.3764 38.1978 47.5976C38.2021 47.5985 38.2064 47.5987 38.2106 47.5995C38.2152 47.6003 38.2194 47.6017 38.224 47.6024L39.0892 47.7431C40.3925 47.9517 41.5487 47.7482 42.6245 47.1219L49.5814 43.0699C51.5632 41.9157 53.085 41.792 53.6522 42.7391C54.0419 43.3898 53.8698 44.403 53.3112 44.7469ZM20.8218 45.8167C20.8775 46.1975 20.6139 46.5514 20.233 46.607C19.8521 46.6627 19.4983 46.3991 19.4426 46.0183C19.3869 45.6375 19.6506 45.2836 20.0314 45.2279C20.4122 45.1723 20.7661 45.4359 20.8218 45.8167ZM41.2879 28.4917V23.2374C41.2879 22.875 41.5817 22.5811 41.9441 22.5811C42.3065 22.5811 42.6004 22.875 42.6004 23.2374V28.1128L46.0746 30.1187C46.3885 30.2999 46.4961 30.7013 46.3148 31.0152C46.1933 31.2257 45.9727 31.3434 45.7459 31.3434C45.6346 31.3434 45.5218 31.315 45.4184 31.2554L41.616 29.0599C41.4129 28.9427 41.2879 28.7261 41.2879 28.4917ZM20.6555 28.9324L21.7475 29.3527C21.9135 29.9345 22.1456 30.494 22.44 31.0232L21.9647 32.0932C21.8545 32.3413 21.9084 32.6316 22.1004 32.8236L23.7245 34.4476C23.9164 34.6395 24.2067 34.6933 24.4548 34.5833L25.5253 34.1078C26.0546 34.4023 26.614 34.6343 27.1952 34.8002L27.6156 35.8925C27.7131 36.1458 27.9566 36.313 28.2281 36.313H30.5247C30.7962 36.313 31.0396 36.1458 31.1372 35.8925L31.5575 34.8005C31.5942 34.7901 31.6304 34.7785 31.6668 34.7676C33.85 38.3377 37.7375 40.5341 41.944 40.5341C48.5842 40.5341 53.9865 35.1319 53.9865 28.4916C53.9866 21.8514 48.5843 16.4492 41.9441 16.4492C38.6402 16.4492 35.4646 17.8206 33.1956 20.2181C32.6757 19.9319 32.1274 19.7055 31.5577 19.5429L31.1372 18.4507C31.0398 18.1974 30.7963 18.0302 30.5248 18.0302H28.2282C27.9567 18.0302 27.7133 18.1973 27.6157 18.4507L27.1952 19.5429C26.614 19.7089 26.0547 19.9408 25.5253 20.2353L24.4548 19.7598C24.2066 19.6495 23.9164 19.7035 23.7244 19.8956L22.1004 21.5197C21.9085 21.7117 21.8546 22.002 21.9648 22.2501L22.4401 23.3204C22.1456 23.8496 21.9137 24.409 21.7478 24.9905L20.6556 25.4109C20.4023 25.5083 20.2351 25.7518 20.2351 26.0233V28.32C20.235 28.5915 20.4022 28.8349 20.6555 28.9324ZM52.6741 28.4917C52.6741 34.4082 47.8606 39.2217 41.9441 39.2217C38.2725 39.2217 34.8724 37.3441 32.9063 34.2767C33.0146 34.2228 33.1221 34.1671 33.2281 34.1081L34.2981 34.5834C34.4248 34.6397 34.5626 34.6526 34.6927 34.6267C36.4892 36.7443 39.1536 37.9918 41.9441 37.9918C47.1824 37.9918 51.4442 33.7301 51.4442 28.4917C51.4442 23.2534 47.1825 18.9916 41.9441 18.9916C39.8267 18.9916 37.7816 19.6963 36.12 20.9871L35.2451 20.1122C37.1349 18.604 39.5002 17.7617 41.9441 17.7617C47.8606 17.7617 52.6741 22.5751 52.6741 28.4917ZM36.7882 32.0932L36.3127 31.0227C36.6073 30.4935 36.8391 29.9342 37.005 29.3528L38.0974 28.9324C38.3507 28.835 38.5178 28.5915 38.5178 28.32V26.0232C38.5178 25.7517 38.3507 25.5083 38.0973 25.4108L37.0054 24.9906C36.8394 24.409 36.6073 23.8494 36.3128 23.32L36.7881 22.2501C36.7922 22.2409 36.7945 22.2313 36.7981 22.222C36.8047 22.2052 36.8111 22.1884 36.8162 22.1711C36.8207 22.156 36.8242 22.1407 36.8275 22.1254C36.8298 22.1149 36.8335 22.1046 36.8353 22.094C38.2828 20.9368 40.081 20.3041 41.944 20.3041C46.4586 20.3041 50.1315 23.977 50.1315 28.4917C50.1315 33.0063 46.4586 36.6793 41.944 36.6793C39.5398 36.6793 37.2441 35.6047 35.6956 33.7804L36.6524 32.8237C36.8445 32.6316 36.8984 32.3413 36.7882 32.0932ZM21.5475 26.4739L22.533 26.0945C22.735 26.0169 22.8856 25.8445 22.9356 25.6341C23.0979 24.9524 23.3668 24.3036 23.7351 23.7056C23.8486 23.5213 23.8639 23.2929 23.7761 23.0951L23.3472 22.1291L24.3339 21.1424L25.3 21.5714C25.4976 21.6592 25.7261 21.644 25.9104 21.5305C26.5087 21.1621 27.1575 20.8931 27.8388 20.7309C28.0492 20.6809 28.2215 20.5303 28.2992 20.3283L28.6786 19.3427H30.0741L30.4535 20.3283C30.5312 20.5302 30.7036 20.6809 30.914 20.7309C31.5954 20.8932 32.2442 21.1622 32.8424 21.5305C33.0268 21.644 33.2551 21.6592 33.4527 21.5714L33.7985 21.4179C33.7987 21.4178 33.7988 21.4178 33.799 21.4177L34.2087 21.2357L34.4189 21.1423L35.4057 22.129L34.9767 23.0946C34.889 23.2924 34.9042 23.5208 35.0177 23.7051C35.3861 24.3034 35.6552 24.9523 35.8173 25.6339C35.8673 25.8445 36.018 26.0169 36.2201 26.0945L37.2053 26.4738V27.8693L36.2197 28.2487C36.0178 28.3264 35.8671 28.4987 35.8171 28.7091C35.6548 29.3906 35.3858 30.0393 35.0176 30.6374C34.904 30.8217 34.8888 31.0501 34.9766 31.2479L35.4057 32.2141L34.4189 33.2007L33.4532 32.7718C33.2556 32.684 33.0273 32.6991 32.8428 32.8128C32.2447 33.1811 31.5957 33.4502 30.914 33.6125C30.7035 33.6625 30.5311 33.8131 30.4534 34.0151L30.0741 35.0004H28.6787L28.2993 34.0147C28.2216 33.8129 28.0493 33.6622 27.8389 33.6121C27.1575 33.4499 26.5087 33.181 25.9105 32.8126C25.7261 32.699 25.4977 32.6838 25.3001 32.7716L24.3339 33.2007L23.3472 32.214L23.7761 31.2483C23.8639 31.0505 23.8486 30.8222 23.7351 30.6378C23.3669 30.0399 23.0978 29.391 22.9354 28.709C22.8854 28.4985 22.7347 28.3262 22.5328 28.2485L21.5476 27.8693L21.5475 26.4739ZM29.3764 31.8332C31.9469 31.8332 34.038 29.7421 34.038 27.1717C34.038 24.6012 31.9469 22.51 29.3764 22.51C26.806 22.51 24.7149 24.6012 24.7149 27.1717C24.7149 29.7421 26.806 31.8332 29.3764 31.8332ZM29.3764 23.8225C31.2231 23.8225 32.7255 25.3249 32.7255 27.1717C32.7255 29.0184 31.2231 30.5207 29.3764 30.5207C27.5298 30.5207 26.0274 29.0184 26.0274 27.1717C26.0274 25.3249 27.5298 23.8225 29.3764 23.8225Z" fill="#0D203B"/>
</g>
<defs>
<linearGradient id="paint0_linear_18_578" x1="-4" y1="-13.207" x2="36" y2="72.793" gradientUnits="userSpaceOnUse">
<stop stop-color="#F1FF2F"/>
<stop offset="1" stop-color="#96DD6F"/>
</linearGradient>
<clipPath id="clip0_18_578">
<rect width="42" height="42" fill="white" transform="translate(15 15.793)"/>
</clipPath>
</defs>
</svg>
