<svg width="20" height="20" viewBox="0 0 20 20" fill="none" xmlns="http://www.w3.org/2000/svg">
<path d="M9.99961 1.60001C8.33825 1.60001 6.7142 2.09266 5.33282 3.01566C3.95145 3.93867 2.8748 5.25057 2.23903 6.78547C1.60325 8.32036 1.4369 10.0093 1.76102 11.6388C2.08513 13.2682 2.88516 14.7649 4.05992 15.9397C5.23468 17.1145 6.73141 17.9145 8.36085 18.2386C9.9903 18.5627 11.6793 18.3964 13.2142 17.7606C14.7491 17.1248 16.061 16.0482 16.984 14.6668C17.907 13.2854 18.3996 11.6614 18.3996 10C18.3975 7.77284 17.5118 5.6375 15.937 4.06265C14.3621 2.4878 12.2268 1.60212 9.99961 1.60001ZM9.99961 17.6C8.49648 17.6 7.02709 17.1543 5.77728 16.3192C4.52747 15.4841 3.55335 14.2971 2.97813 12.9084C2.4029 11.5197 2.2524 9.99158 2.54565 8.51732C2.83889 7.04306 3.56272 5.68887 4.6256 4.62599C5.68848 3.56312 7.04267 2.83929 8.51693 2.54604C9.99118 2.25279 11.5193 2.4033 12.908 2.97852C14.2967 3.55375 15.4837 4.52786 16.3188 5.77767C17.1539 7.02749 17.5996 8.49687 17.5996 10C17.5975 12.015 16.7961 13.9469 15.3713 15.3717C13.9465 16.7965 12.0146 17.5979 9.99961 17.6Z" fill="#FE8903"/>
<path d="M12.7996 10.504L10.3996 9.70402V5.20002C10.3996 5.09393 10.3575 4.99219 10.2825 4.91718C10.2074 4.84216 10.1057 4.80002 9.99962 4.80002C9.89353 4.80002 9.79179 4.84216 9.71678 4.91718C9.64176 4.99219 9.59962 5.09393 9.59962 5.20002V10C9.59902 10.0835 9.62508 10.165 9.674 10.2326C9.72292 10.3002 9.79216 10.3505 9.87162 10.376L12.5276 11.264C12.5699 11.2724 12.6134 11.2724 12.6556 11.264C12.7398 11.2628 12.8214 11.2351 12.8889 11.1849C12.9564 11.1346 13.0064 11.0643 13.0316 10.984C13.0606 10.8895 13.0528 10.7875 13.0098 10.6985C12.9668 10.6095 12.8917 10.54 12.7996 10.504Z" fill="#FE8903"/>
</svg>
