<svg width="21" height="21" viewBox="0 0 21 21" fill="none" xmlns="http://www.w3.org/2000/svg">
<path d="M10.1832 2.08252C8.52184 2.08252 6.89779 2.57517 5.51642 3.49817C4.13504 4.42118 3.0584 5.73308 2.42262 7.26798C1.78684 8.80288 1.62049 10.4918 1.94461 12.1213C2.26873 13.7507 3.06875 15.2475 4.24351 16.4222C5.41827 17.597 6.91501 18.397 8.54445 18.7211C10.1739 19.0452 11.8628 18.8789 13.3977 18.2431C14.9326 17.6073 16.2445 16.5307 17.1676 15.1493C18.0906 13.7679 18.5832 12.1439 18.5832 10.4825C18.5811 8.25535 17.6954 6.12001 16.1206 4.54516C14.5457 2.97032 12.4104 2.08464 10.1832 2.08252ZM10.1832 18.0825C8.68007 18.0825 7.21069 17.6368 5.96087 16.8017C4.71106 15.9666 3.73695 14.7796 3.16172 13.3909C2.5865 12.0022 2.43599 10.4741 2.72924 8.99983C3.02249 7.52558 3.74632 6.17139 4.8092 5.10851C5.87207 4.04563 7.22626 3.3218 8.70052 3.02855C10.1748 2.7353 11.7029 2.88581 13.0916 3.46104C14.4803 4.03626 15.6673 5.01037 16.5024 6.26019C17.3375 7.51 17.7832 8.97938 17.7832 10.4825C17.7811 12.4975 16.9797 14.4294 15.5549 15.8542C14.1301 17.279 12.1982 18.0804 10.1832 18.0825Z" fill="black"/>
<path d="M12.9832 10.9867L10.5832 10.1867V5.68271C10.5832 5.57663 10.5411 5.47489 10.4661 5.39987C10.391 5.32486 10.2893 5.28271 10.1832 5.28271C10.0771 5.28271 9.97538 5.32486 9.90037 5.39987C9.82536 5.47489 9.78321 5.57663 9.78321 5.68271V10.4827C9.78261 10.5662 9.80867 10.6477 9.8576 10.7153C9.90652 10.7829 9.97575 10.8332 10.0552 10.8587L12.7112 11.7467C12.7535 11.7551 12.797 11.7551 12.8392 11.7467C12.9234 11.7455 13.005 11.7178 13.0725 11.6676C13.14 11.6173 13.19 11.547 13.2152 11.4667C13.2442 11.3722 13.2364 11.2702 13.1934 11.1812C13.1504 11.0922 13.0753 11.0227 12.9832 10.9867Z" fill="black"/>
</svg>
