<svg width="61" height="60" viewBox="0 0 61 60" fill="none" xmlns="http://www.w3.org/2000/svg">
<rect x="0.5" width="60" height="60" rx="10" fill="url(#paint0_linear_185_950)"/>
<path d="M34.686 43.1444C34.178 42.7068 33.8499 42.066 33.8499 41.347V39.4168C33.8499 38.1039 34.9204 37.0332 36.2333 37.0332C35.1157 35.7125 34.4672 34.0089 34.4672 32.1959C34.4672 30.0937 35.3346 28.1869 36.7334 26.8114V18.856C36.7334 17.5588 35.6783 16.5038 34.3812 16.5038H32.4119V17.8948C32.4119 18.9732 31.5288 19.8563 30.4503 19.8563H18.3139C17.2356 19.8563 16.3602 18.9732 16.3602 17.8948V16.5038H14.3831C13.0858 16.5038 12.0386 17.5588 12.0386 18.856V45.739C12.0386 47.0362 13.0858 48.0912 14.3831 48.0912H34.1859C33.967 47.7396 33.8499 47.3253 33.8499 46.8799V44.9496C33.8499 44.2229 34.178 43.5821 34.686 43.1444ZM20.1973 43.7931C20.1973 44.004 20.0254 44.1838 19.8066 44.1838H16.6806C16.4697 44.1838 16.2899 44.004 16.2899 43.7931V40.6671C16.2899 40.4483 16.4697 40.2764 16.6806 40.2764H19.8066C20.0254 40.2764 20.1973 40.4483 20.1973 40.6671V43.7931ZM20.1973 35.9704C20.1973 36.1815 20.0254 36.3612 19.8066 36.3612H16.6806C16.4697 36.3612 16.2899 36.1815 16.2899 35.9704V32.8445C16.2899 32.6257 16.4697 32.4538 16.6806 32.4538H19.8066C20.0254 32.4538 20.1973 32.6257 20.1973 32.8445V35.9704ZM20.76 23.3573C20.6505 23.4589 20.5256 23.5058 20.3771 23.5058H18.9391V27.9212C18.9391 28.0775 18.8844 28.2103 18.7673 28.3198C18.6657 28.4214 18.5249 28.476 18.3765 28.476C18.2202 28.476 18.0873 28.4214 17.978 28.3198C17.8764 28.2103 17.8138 28.0775 17.8138 27.9212V23.5058H16.368C16.2275 23.5058 16.0945 23.4589 15.9929 23.3573C15.8913 23.2557 15.8367 23.1229 15.8367 22.9744C15.8367 22.8259 15.8913 22.7009 15.9851 22.5915C16.0867 22.4899 16.2196 22.4352 16.368 22.4352H20.3771C20.5256 22.4352 20.6583 22.4899 20.76 22.5915C20.8615 22.6931 20.9163 22.8259 20.9163 22.9744C20.9163 23.1229 20.8615 23.2557 20.76 23.3573ZM21.9869 28.3901C21.7681 28.5307 21.4555 28.4995 21.2757 28.3198V28.3119C21.1741 28.2103 21.1195 28.0775 21.1195 27.9212C21.1195 27.8508 21.143 27.7727 21.1741 27.6867L23.2294 22.8416C23.2843 22.7165 23.3624 22.6071 23.4718 22.5289C23.5811 22.443 23.7218 22.3961 23.8781 22.3961H23.9562C24.1125 22.3961 24.2454 22.443 24.3626 22.5289C24.4642 22.6149 24.5423 22.7165 24.597 22.8416L26.6524 27.6867C26.6913 27.7805 26.707 27.8508 26.707 27.9212C26.707 28.0697 26.6524 28.2103 26.5508 28.3119C26.4492 28.4214 26.3084 28.476 26.1522 28.476C26.035 28.476 25.9334 28.4448 25.8397 28.3901C25.7458 28.3275 25.6755 28.2494 25.6287 28.14L25.1519 26.9991H22.6747L22.2057 28.1322C22.1511 28.2494 22.0806 28.3275 21.9869 28.3901ZM30.1378 32.2896C30.4581 32.2896 30.724 32.5554 30.724 32.8758C30.724 33.204 30.4581 33.4619 30.1378 33.4619H23.2451C22.9246 33.4619 22.659 33.204 22.659 32.8758C22.659 32.5554 22.9246 32.2896 23.2451 32.2896H30.1378ZM31.8961 44.3401H23.2451C22.9246 44.3401 22.659 44.0744 22.659 43.754C22.659 43.4257 22.9246 43.1679 23.2451 43.1679H31.8961C32.2164 43.1679 32.4823 43.4257 32.4823 43.754C32.4823 44.0744 32.2164 44.3401 31.8961 44.3401ZM22.659 40.6984C22.659 40.378 22.9246 40.1123 23.2451 40.1123H30.1378C30.4581 40.1123 30.724 40.378 30.724 40.6984C30.724 41.0266 30.4581 41.2845 30.1378 41.2845H23.2451C22.9246 41.2845 22.659 41.0266 22.659 40.6984ZM31.8961 36.5175H23.2451C22.9246 36.5175 22.659 36.2518 22.659 35.9314C22.659 35.6031 22.9246 35.3452 23.2451 35.3452H31.8961C32.2164 35.3452 32.4823 35.6031 32.4823 35.9314C32.4823 36.2518 32.2164 36.5175 31.8961 36.5175ZM32.7791 28.3119C32.6777 28.4214 32.5369 28.476 32.3727 28.476C32.1929 28.476 32.0446 28.3979 31.9274 28.2494L30.3643 26.2801L28.8249 28.2572C28.6685 28.4448 28.5045 28.476 28.3874 28.476C28.2466 28.476 28.1137 28.4291 28.0121 28.3198C27.9105 28.2182 27.8559 28.0853 27.8559 27.9446C27.8559 27.8196 27.8871 27.7024 27.9653 27.6008L29.7236 25.4361L27.9888 23.2948C27.9026 23.1854 27.8715 23.076 27.8715 22.9432C27.8715 22.7947 27.9261 22.654 28.0277 22.5524C28.192 22.3883 28.4497 22.3414 28.6764 22.4587C28.7545 22.4977 28.8249 22.5524 28.8717 22.6149L30.4113 24.5764L31.9586 22.5993C32.0132 22.5133 32.1462 22.3961 32.3727 22.3961C32.5212 22.3961 32.6542 22.4508 32.7635 22.5524C32.8652 22.654 32.9276 22.7868 32.9276 22.9353C32.9276 23.0525 32.8886 23.1541 32.826 23.2479L31.0599 25.4283L32.8182 27.5929C32.8886 27.6711 32.9355 27.7883 32.9355 27.9212C32.9355 28.0775 32.8809 28.2103 32.7791 28.3119Z" fill="#093254"/>
<path d="M23.9172 24.0294L23.1201 25.9441H24.7066L23.9172 24.0294Z" fill="#093254"/>
<path d="M18.3142 18.6842H30.4506C30.8882 18.6842 31.2399 18.3325 31.2399 17.8948V15.0815C31.2399 14.6517 30.8882 14.3 30.4506 14.3H26.9261C26.848 12.9637 25.7304 11.9087 24.3863 11.9087C23.0343 11.9087 21.9246 12.9637 21.8465 14.3H18.3142C17.8766 14.3 17.5327 14.6517 17.5327 15.0815V17.8948C17.5327 18.3325 17.8766 18.6842 18.3142 18.6842Z" fill="#093254"/>
<path d="M47.7477 43.734H36.2324C35.562 43.734 35.0186 44.2776 35.0186 44.948V46.8765C35.0186 47.5469 35.562 48.0904 36.2324 48.0904H47.7477C48.4181 48.0904 48.9616 47.5469 48.9616 46.8765V44.948C48.9616 44.2776 48.4181 43.734 47.7477 43.734Z" fill="#093254"/>
<path d="M47.7477 38.2054H44.0232C46.5326 37.3594 48.3384 34.9941 48.3384 32.1966C48.3384 28.6878 45.5016 25.8431 41.9927 25.8431C38.4839 25.8431 35.6393 28.6878 35.6393 32.1966C35.6393 34.9941 37.45 37.3594 39.9615 38.2054H36.2324C35.562 38.2054 35.0186 38.7489 35.0186 39.4193V41.3479C35.0186 42.0183 35.562 42.5617 36.2324 42.5617H47.7477C48.4181 42.5617 48.9616 42.0183 48.9616 41.3479V39.4193C48.9616 38.7489 48.4181 38.2054 47.7477 38.2054ZM42.5711 35.5022V35.7211C42.5711 36.0415 42.3132 36.3072 41.985 36.3072C41.6646 36.3072 41.3989 36.0415 41.3989 35.7211V35.5022C40.4768 35.2678 39.7968 34.5098 39.7968 33.5954C39.7968 33.275 40.0625 33.0093 40.3829 33.0093C40.7033 33.0093 40.969 33.275 40.969 33.5954C40.969 34.0487 41.4302 34.416 41.9927 34.416C42.5554 34.416 43.0087 34.0487 43.0087 33.5954C43.0087 33.1422 42.5554 32.7827 41.9927 32.7827C40.7814 32.7827 39.7968 31.8918 39.7968 30.7899C39.7968 29.8834 40.4768 29.1175 41.3989 28.8831V28.6721C41.3989 28.3439 41.6646 28.086 41.985 28.086C42.3132 28.086 42.5711 28.3439 42.5711 28.6721V28.8831C43.5009 29.1175 44.181 29.8756 44.181 30.7899C44.181 31.1181 43.923 31.376 43.5948 31.376C43.2745 31.376 43.0087 31.1181 43.0087 30.7899C43.0087 30.3445 42.5554 29.9772 41.9927 29.9772H41.985C41.4224 29.9772 40.969 30.3445 40.969 30.7899C40.969 31.2432 41.4224 31.6104 41.985 31.6104C43.2041 31.6104 44.181 32.5014 44.181 33.5954C44.181 34.5098 43.5009 35.2756 42.5711 35.5022Z" fill="#093254"/>
<defs>
<linearGradient id="paint0_linear_185_950" x1="-2.83333" y1="-11.6667" x2="30.5" y2="60" gradientUnits="userSpaceOnUse">
<stop stop-color="#F1FF2F"/>
<stop offset="1" stop-color="#96DD6F"/>
</linearGradient>
</defs>
</svg>
