<svg width="21" height="21" viewBox="0 0 21 21" fill="none" xmlns="http://www.w3.org/2000/svg">
<g clip-path="url(#clip0_74_320)">
<path d="M10.5 0.364258C4.98602 0.364258 0.5 4.85028 0.5 10.3643C0.5 15.8778 4.98602 20.3643 10.5 20.3643C16.0136 20.3643 20.5 15.8778 20.5 10.3643C20.5 4.85028 16.0144 0.364258 10.5 0.364258ZM14.961 8.07553C14.9655 8.17462 14.9679 8.27451 14.9679 8.37441C14.9679 11.416 12.6534 14.922 8.41871 14.922C7.11887 14.922 5.90884 14.5421 4.89056 13.8888C5.07061 13.9101 5.25389 13.921 5.43958 13.921C6.51829 13.921 7.51039 13.5528 8.29828 12.9358C7.29127 12.9172 6.44095 12.2518 6.14811 11.337C6.28829 11.3636 6.43289 11.3785 6.58072 11.3785C6.79058 11.3785 6.9944 11.3511 7.18734 11.2984C6.13441 11.0873 5.3413 10.1572 5.3413 9.04145C5.3413 9.03178 5.3413 9.02171 5.3417 9.01245C5.65186 9.18445 6.00673 9.28837 6.38375 9.30005C5.76666 8.88798 5.36023 8.18308 5.36023 7.38472C5.36023 6.96258 5.47341 6.56703 5.67159 6.22706C6.80629 7.61996 8.5029 8.53593 10.4154 8.6326C10.3759 8.46383 10.3562 8.28861 10.3562 8.10775C10.3562 6.83691 11.3866 5.80613 12.6574 5.80613C13.3196 5.80613 13.917 6.08568 14.3375 6.53279C14.8624 6.42967 15.3538 6.23874 15.7997 5.9741C15.6265 6.51184 15.2627 6.96258 14.7862 7.24777C15.2523 7.19218 15.697 7.06892 16.1082 6.88565C15.8013 7.34645 15.411 7.75208 14.961 8.07553Z" fill="#83829C"/>
</g>
<defs>
<clipPath id="clip0_74_320">
<rect width="20" height="20" fill="white" transform="translate(0.5 0.364258)"/>
</clipPath>
</defs>
</svg>
