<svg width="13" height="13" viewBox="0 0 13 13" fill="none" xmlns="http://www.w3.org/2000/svg">
<path d="M6.49922 0.199951C5.2532 0.199951 4.03516 0.56944 2.99913 1.26169C1.9631 1.95395 1.15561 2.93787 0.678781 4.08905C0.201948 5.24022 0.0771874 6.50694 0.320274 7.72902C0.563361 8.9511 1.16338 10.0737 2.04445 10.9547C2.92552 11.8358 4.04807 12.4358 5.27015 12.6789C6.49223 12.922 7.75895 12.7972 8.91013 12.3204C10.0613 11.8436 11.0452 11.0361 11.7375 10C12.4297 8.96401 12.7992 7.74597 12.7992 6.49995C12.7976 4.82958 12.1334 3.22807 10.9522 2.04693C9.7711 0.865798 8.1696 0.20154 6.49922 0.199951ZM6.49922 12.2C5.37187 12.2 4.26983 11.8657 3.33247 11.2393C2.39511 10.613 1.66453 9.72279 1.23311 8.68125C0.801689 7.63971 0.68881 6.49363 0.908746 5.38794C1.12868 4.28224 1.67155 3.2666 2.46871 2.46944C3.26587 1.67228 4.28152 1.12941 5.38721 0.909475C6.4929 0.689539 7.63898 0.802418 8.68052 1.23384C9.72206 1.66526 10.6123 2.39584 11.2386 3.3332C11.8649 4.27056 12.1992 5.3726 12.1992 6.49995C12.1976 8.0112 11.5966 9.46009 10.528 10.5287C9.45936 11.5973 8.01047 12.1984 6.49922 12.2Z" fill="#FE8903"/>
<path d="M8.59923 6.87798L6.79923 6.27798V2.89998C6.79923 2.82041 6.76762 2.7441 6.71136 2.68784C6.6551 2.63158 6.57879 2.59998 6.49923 2.59998C6.41966 2.59998 6.34335 2.63158 6.28709 2.68784C6.23083 2.7441 6.19923 2.82041 6.19923 2.89998V6.49998C6.19878 6.56258 6.21832 6.62368 6.25501 6.67441C6.2917 6.72513 6.34363 6.76281 6.40323 6.78198L8.39523 7.44798C8.42692 7.45428 8.45954 7.45428 8.49123 7.44798C8.55435 7.44709 8.61558 7.42632 8.66622 7.38862C8.71685 7.35091 8.75429 7.2982 8.77323 7.23798C8.79497 7.16709 8.78911 7.0906 8.75685 7.02384C8.72458 6.95708 8.66828 6.90498 8.59923 6.87798Z" fill="#FE8903"/>
</svg>
